%TF.GenerationSoftware,KiCad,Pcbnew,(5.1.8)-1*%
%TF.CreationDate,2021-02-07T13:37:49+01:00*%
%TF.ProjectId,CO2-PlatineMZ-H19,434f322d-506c-4617-9469-6e654d5a2d48,rev?*%
%TF.SameCoordinates,Original*%
%TF.FileFunction,Copper,L2,Bot*%
%TF.FilePolarity,Positive*%
%FSLAX46Y46*%
G04 Gerber Fmt 4.6, Leading zero omitted, Abs format (unit mm)*
G04 Created by KiCad (PCBNEW (5.1.8)-1) date 2021-02-07 13:37:49*
%MOMM*%
%LPD*%
G01*
G04 APERTURE LIST*
%TA.AperFunction,ComponentPad*%
%ADD10R,1.700000X1.700000*%
%TD*%
%TA.AperFunction,ComponentPad*%
%ADD11O,1.700000X1.700000*%
%TD*%
%TA.AperFunction,SMDPad,CuDef*%
%ADD12R,1.000000X1.500000*%
%TD*%
%TA.AperFunction,ViaPad*%
%ADD13C,0.800000*%
%TD*%
%TA.AperFunction,Conductor*%
%ADD14C,0.250000*%
%TD*%
%TA.AperFunction,Conductor*%
%ADD15C,0.254000*%
%TD*%
%TA.AperFunction,Conductor*%
%ADD16C,0.100000*%
%TD*%
G04 APERTURE END LIST*
D10*
%TO.P,J3,1*%
%TO.N,N/C*%
X76360000Y-76800000D03*
D11*
%TO.P,J3,2*%
%TO.N,TX*%
X73820000Y-76800000D03*
%TO.P,J3,3*%
%TO.N,RX*%
X71280000Y-76800000D03*
%TO.P,J3,4*%
%TO.N,N/C*%
X68740000Y-76800000D03*
%TO.P,J3,5*%
%TO.N,HD*%
X66200000Y-76800000D03*
%TD*%
D12*
%TO.P,D2,3*%
%TO.N,GND*%
X60400000Y-71550000D03*
%TO.P,D2,4*%
%TO.N,Net-(D1-Pad2)*%
X57200000Y-71550000D03*
%TO.P,D2,2*%
%TO.N,Net-(D2-Pad2)*%
X60400000Y-66650000D03*
%TO.P,D2,1*%
%TO.N,+5V*%
X57200000Y-66650000D03*
%TD*%
%TO.P,D3,1*%
%TO.N,+5V*%
X81900000Y-66650000D03*
%TO.P,D3,2*%
%TO.N,N/C*%
X85100000Y-66650000D03*
%TO.P,D3,4*%
%TO.N,Net-(D2-Pad2)*%
X81900000Y-71550000D03*
%TO.P,D3,3*%
%TO.N,GND*%
X85100000Y-71550000D03*
%TD*%
D10*
%TO.P,J1,1*%
%TO.N,+3V3*%
X58420000Y-45710000D03*
D11*
%TO.P,J1,2*%
%TO.N,GND*%
X58420000Y-48250000D03*
%TO.P,J1,3*%
%TO.N,N/C*%
X58420000Y-50790000D03*
%TO.P,J1,4*%
X58420000Y-53330000D03*
%TO.P,J1,5*%
%TO.N,AdHoc*%
X58420000Y-55870000D03*
%TO.P,J1,6*%
%TO.N,PC1*%
X58420000Y-58410000D03*
%TO.P,J1,7*%
%TO.N,N/C*%
X58420000Y-60950000D03*
%TO.P,J1,8*%
X58420000Y-63490000D03*
%TD*%
%TO.P,J2,8*%
%TO.N,N/C*%
X83820000Y-63490000D03*
%TO.P,J2,7*%
X83820000Y-60950000D03*
%TO.P,J2,6*%
X83820000Y-58410000D03*
%TO.P,J2,5*%
X83820000Y-55870000D03*
%TO.P,J2,4*%
%TO.N,PWM*%
X83820000Y-53330000D03*
%TO.P,J2,3*%
%TO.N,HD*%
X83820000Y-50790000D03*
%TO.P,J2,2*%
%TO.N,RX*%
X83820000Y-48250000D03*
D10*
%TO.P,J2,1*%
%TO.N,TX*%
X83820000Y-45710000D03*
%TD*%
%TO.P,J4,1*%
%TO.N,+5V*%
X76360000Y-47260000D03*
D11*
%TO.P,J4,2*%
%TO.N,GND*%
X73820000Y-47260000D03*
%TO.P,J4,3*%
%TO.N,N/C*%
X71280000Y-47260000D03*
%TO.P,J4,4*%
%TO.N,PWM*%
X68740000Y-47260000D03*
%TD*%
D13*
%TO.N,+5V*%
X81900000Y-67000000D03*
X77300000Y-73500000D03*
X60700000Y-74000000D03*
%TO.N,GND*%
X60400000Y-71200000D03*
X71300000Y-67200000D03*
X77100000Y-67200000D03*
%TO.N,PC1*%
X66700000Y-60200000D03*
%TO.N,Net-(D1-Pad2)*%
X66400000Y-49700000D03*
%TO.N,Net-(D2-Pad2)*%
X71400000Y-65800000D03*
X66400000Y-67100000D03*
%TO.N,HD*%
X61600000Y-58700000D03*
X78174999Y-48974999D03*
%TO.N,AdHoc*%
X63200000Y-75300000D03*
X63200000Y-68900000D03*
%TD*%
D14*
%TO.N,*%
X74100000Y-75100000D02*
X74100000Y-74800000D01*
%TO.N,+5V*%
X57200000Y-66650000D02*
X56374999Y-67475001D01*
X60700000Y-74000000D02*
X56749998Y-74000000D01*
X56749998Y-74000000D02*
X56374999Y-73625001D01*
X56374999Y-73625001D02*
X56374999Y-73774999D01*
X56374999Y-67475001D02*
X56374999Y-73625001D01*
%TO.N,GND*%
X71300000Y-67200000D02*
X77100000Y-67200000D01*
X77100000Y-67200000D02*
X77100000Y-69400000D01*
X84024999Y-72625001D02*
X85100000Y-71550000D01*
X81139999Y-72625001D02*
X84024999Y-72625001D01*
X77100000Y-68585002D02*
X81139999Y-72625001D01*
X77100000Y-67200000D02*
X77100000Y-68585002D01*
%TO.N,PC1*%
X60210000Y-60200000D02*
X58420000Y-58410000D01*
X66700000Y-60200000D02*
X60210000Y-60200000D01*
%TO.N,Net-(D1-Pad2)*%
X67425001Y-50725001D02*
X66400000Y-49700000D01*
X67425001Y-60548001D02*
X67425001Y-50725001D01*
X67048001Y-60925001D02*
X67425001Y-60548001D01*
X64189997Y-60925001D02*
X67048001Y-60925001D01*
X59474999Y-65639999D02*
X64189997Y-60925001D01*
X59474999Y-69275001D02*
X57200000Y-71550000D01*
X59474999Y-65639999D02*
X59474999Y-69275001D01*
%TO.N,Net-(D2-Pad2)*%
X71400000Y-65800000D02*
X71625001Y-65574999D01*
X60850000Y-67100000D02*
X60400000Y-66650000D01*
X66400000Y-67100000D02*
X60850000Y-67100000D01*
X82725001Y-70724999D02*
X81900000Y-71550000D01*
X82725001Y-65639999D02*
X82725001Y-70724999D01*
X82485003Y-65400001D02*
X82725001Y-65639999D01*
X71799999Y-65400001D02*
X82485003Y-65400001D01*
X71400000Y-65800000D02*
X71799999Y-65400001D01*
%TO.N,PWM*%
X71465001Y-44534999D02*
X68740000Y-47260000D01*
X84930001Y-44534999D02*
X71465001Y-44534999D01*
X84995001Y-44599999D02*
X84930001Y-44534999D01*
X84995001Y-52154999D02*
X84995001Y-44599999D01*
X83820000Y-53330000D02*
X84995001Y-52154999D01*
%TO.N,RX*%
X69800000Y-62270000D02*
X83820000Y-48250000D01*
X69915001Y-75435001D02*
X71280000Y-76800000D01*
X69915001Y-62385001D02*
X69915001Y-75435001D01*
X69800000Y-62270000D02*
X69915001Y-62385001D01*
%TO.N,TX*%
X67400000Y-62930998D02*
X83820000Y-46510998D01*
X83820000Y-46510998D02*
X83820000Y-45710000D01*
X72644999Y-77975001D02*
X73820000Y-76800000D01*
X70575001Y-77975001D02*
X72644999Y-77975001D01*
X70104999Y-77504999D02*
X70575001Y-77975001D01*
X67400000Y-73720998D02*
X70104999Y-76425997D01*
X70104999Y-76425997D02*
X70104999Y-77504999D01*
X67400000Y-71600000D02*
X67400000Y-73720998D01*
X67400000Y-62930998D02*
X67400000Y-71600000D01*
%TO.N,HD*%
X66051999Y-48974999D02*
X78174999Y-48974999D01*
X61600000Y-53426998D02*
X66051999Y-48974999D01*
X61600000Y-58700000D02*
X61600000Y-53426998D01*
%TO.N,AdHoc*%
X63200000Y-75300000D02*
X63200000Y-68900000D01*
%TD*%
D15*
%TO.N,GND*%
X82335000Y-50936260D02*
X82392068Y-51223158D01*
X82504010Y-51493411D01*
X82666525Y-51736632D01*
X82873368Y-51943475D01*
X83047760Y-52060000D01*
X82873368Y-52176525D01*
X82666525Y-52383368D01*
X82504010Y-52626589D01*
X82392068Y-52896842D01*
X82335000Y-53183740D01*
X82335000Y-53476260D01*
X82392068Y-53763158D01*
X82504010Y-54033411D01*
X82666525Y-54276632D01*
X82873368Y-54483475D01*
X83047760Y-54600000D01*
X82873368Y-54716525D01*
X82666525Y-54923368D01*
X82504010Y-55166589D01*
X82392068Y-55436842D01*
X82335000Y-55723740D01*
X82335000Y-56016260D01*
X82392068Y-56303158D01*
X82504010Y-56573411D01*
X82666525Y-56816632D01*
X82873368Y-57023475D01*
X83047760Y-57140000D01*
X82873368Y-57256525D01*
X82666525Y-57463368D01*
X82504010Y-57706589D01*
X82392068Y-57976842D01*
X82335000Y-58263740D01*
X82335000Y-58556260D01*
X82392068Y-58843158D01*
X82504010Y-59113411D01*
X82666525Y-59356632D01*
X82873368Y-59563475D01*
X83047760Y-59680000D01*
X82873368Y-59796525D01*
X82666525Y-60003368D01*
X82504010Y-60246589D01*
X82392068Y-60516842D01*
X82335000Y-60803740D01*
X82335000Y-61096260D01*
X82392068Y-61383158D01*
X82504010Y-61653411D01*
X82666525Y-61896632D01*
X82873368Y-62103475D01*
X83047760Y-62220000D01*
X82873368Y-62336525D01*
X82666525Y-62543368D01*
X82504010Y-62786589D01*
X82392068Y-63056842D01*
X82335000Y-63343740D01*
X82335000Y-63636260D01*
X82392068Y-63923158D01*
X82504010Y-64193411D01*
X82666525Y-64436632D01*
X82873368Y-64643475D01*
X83116589Y-64805990D01*
X83386842Y-64917932D01*
X83673740Y-64975000D01*
X83966260Y-64975000D01*
X84253158Y-64917932D01*
X84523411Y-64805990D01*
X84766632Y-64643475D01*
X84973475Y-64436632D01*
X85135990Y-64193411D01*
X85247932Y-63923158D01*
X85305000Y-63636260D01*
X85305000Y-63343740D01*
X85247932Y-63056842D01*
X85135990Y-62786589D01*
X84973475Y-62543368D01*
X84766632Y-62336525D01*
X84592240Y-62220000D01*
X84766632Y-62103475D01*
X84973475Y-61896632D01*
X85135990Y-61653411D01*
X85247932Y-61383158D01*
X85305000Y-61096260D01*
X85305000Y-60803740D01*
X85247932Y-60516842D01*
X85135990Y-60246589D01*
X84973475Y-60003368D01*
X84766632Y-59796525D01*
X84592240Y-59680000D01*
X84766632Y-59563475D01*
X84973475Y-59356632D01*
X85135990Y-59113411D01*
X85247932Y-58843158D01*
X85305000Y-58556260D01*
X85305000Y-58263740D01*
X85247932Y-57976842D01*
X85135990Y-57706589D01*
X84973475Y-57463368D01*
X84766632Y-57256525D01*
X84592240Y-57140000D01*
X84766632Y-57023475D01*
X84973475Y-56816632D01*
X85135990Y-56573411D01*
X85247932Y-56303158D01*
X85305000Y-56016260D01*
X85305000Y-55723740D01*
X85247932Y-55436842D01*
X85135990Y-55166589D01*
X84973475Y-54923368D01*
X84766632Y-54716525D01*
X84592240Y-54600000D01*
X84766632Y-54483475D01*
X84973475Y-54276632D01*
X85135990Y-54033411D01*
X85247932Y-53763158D01*
X85305000Y-53476260D01*
X85305000Y-53183740D01*
X85261210Y-52963592D01*
X85506005Y-52718797D01*
X85535002Y-52695000D01*
X85629975Y-52579275D01*
X85675000Y-52495040D01*
X85675001Y-65269315D01*
X85600000Y-65261928D01*
X84600000Y-65261928D01*
X84475518Y-65274188D01*
X84355820Y-65310498D01*
X84245506Y-65369463D01*
X84148815Y-65448815D01*
X84069463Y-65545506D01*
X84010498Y-65655820D01*
X83974188Y-65775518D01*
X83961928Y-65900000D01*
X83961928Y-67400000D01*
X83974188Y-67524482D01*
X84010498Y-67644180D01*
X84069463Y-67754494D01*
X84148815Y-67851185D01*
X84245506Y-67930537D01*
X84355820Y-67989502D01*
X84475518Y-68025812D01*
X84600000Y-68038072D01*
X85600000Y-68038072D01*
X85675001Y-68030685D01*
X85675001Y-70169315D01*
X85600000Y-70161928D01*
X85385750Y-70165000D01*
X85227000Y-70323750D01*
X85227000Y-71423000D01*
X85247000Y-71423000D01*
X85247000Y-71677000D01*
X85227000Y-71677000D01*
X85227000Y-72776250D01*
X85385750Y-72935000D01*
X85600000Y-72938072D01*
X85675001Y-72930685D01*
X85675001Y-78055000D01*
X77699088Y-78055000D01*
X77740537Y-78004494D01*
X77799502Y-77894180D01*
X77835812Y-77774482D01*
X77848072Y-77650000D01*
X77848072Y-75950000D01*
X77835812Y-75825518D01*
X77799502Y-75705820D01*
X77740537Y-75595506D01*
X77661185Y-75498815D01*
X77564494Y-75419463D01*
X77454180Y-75360498D01*
X77334482Y-75324188D01*
X77210000Y-75311928D01*
X75510000Y-75311928D01*
X75385518Y-75324188D01*
X75265820Y-75360498D01*
X75155506Y-75419463D01*
X75058815Y-75498815D01*
X74979463Y-75595506D01*
X74920498Y-75705820D01*
X74898487Y-75778380D01*
X74766632Y-75646525D01*
X74681390Y-75589568D01*
X74734974Y-75524276D01*
X74805546Y-75392247D01*
X74849003Y-75248986D01*
X74860000Y-75137333D01*
X74860000Y-74762668D01*
X74849003Y-74651015D01*
X74805546Y-74507753D01*
X74734974Y-74375724D01*
X74640001Y-74259999D01*
X74524276Y-74165026D01*
X74392247Y-74094454D01*
X74248986Y-74050997D01*
X74100000Y-74036323D01*
X73951015Y-74050997D01*
X73807754Y-74094454D01*
X73675725Y-74165026D01*
X73559999Y-74259999D01*
X73465026Y-74375724D01*
X73394454Y-74507753D01*
X73350997Y-74651014D01*
X73340000Y-74762667D01*
X73340000Y-75137332D01*
X73350997Y-75248985D01*
X73388248Y-75371788D01*
X73386842Y-75372068D01*
X73116589Y-75484010D01*
X72873368Y-75646525D01*
X72666525Y-75853368D01*
X72550000Y-76027760D01*
X72433475Y-75853368D01*
X72226632Y-75646525D01*
X71983411Y-75484010D01*
X71713158Y-75372068D01*
X71426260Y-75315000D01*
X71133740Y-75315000D01*
X70913592Y-75358791D01*
X70675001Y-75120200D01*
X70675001Y-73398061D01*
X76265000Y-73398061D01*
X76265000Y-73601939D01*
X76304774Y-73801898D01*
X76382795Y-73990256D01*
X76496063Y-74159774D01*
X76640226Y-74303937D01*
X76809744Y-74417205D01*
X76998102Y-74495226D01*
X77198061Y-74535000D01*
X77401939Y-74535000D01*
X77601898Y-74495226D01*
X77790256Y-74417205D01*
X77959774Y-74303937D01*
X78103937Y-74159774D01*
X78217205Y-73990256D01*
X78295226Y-73801898D01*
X78335000Y-73601939D01*
X78335000Y-73398061D01*
X78295226Y-73198102D01*
X78217205Y-73009744D01*
X78103937Y-72840226D01*
X77959774Y-72696063D01*
X77790256Y-72582795D01*
X77601898Y-72504774D01*
X77401939Y-72465000D01*
X77198061Y-72465000D01*
X76998102Y-72504774D01*
X76809744Y-72582795D01*
X76640226Y-72696063D01*
X76496063Y-72840226D01*
X76382795Y-73009744D01*
X76304774Y-73198102D01*
X76265000Y-73398061D01*
X70675001Y-73398061D01*
X70675001Y-66538712D01*
X70740226Y-66603937D01*
X70909744Y-66717205D01*
X71098102Y-66795226D01*
X71298061Y-66835000D01*
X71501939Y-66835000D01*
X71701898Y-66795226D01*
X71890256Y-66717205D01*
X72059774Y-66603937D01*
X72203937Y-66459774D01*
X72317205Y-66290256D01*
X72371159Y-66160001D01*
X80761928Y-66160001D01*
X80761928Y-67400000D01*
X80774188Y-67524482D01*
X80810498Y-67644180D01*
X80869463Y-67754494D01*
X80948815Y-67851185D01*
X81045506Y-67930537D01*
X81155820Y-67989502D01*
X81275518Y-68025812D01*
X81400000Y-68038072D01*
X81965001Y-68038072D01*
X81965002Y-70161928D01*
X81400000Y-70161928D01*
X81275518Y-70174188D01*
X81155820Y-70210498D01*
X81045506Y-70269463D01*
X80948815Y-70348815D01*
X80869463Y-70445506D01*
X80810498Y-70555820D01*
X80774188Y-70675518D01*
X80761928Y-70800000D01*
X80761928Y-72300000D01*
X80774188Y-72424482D01*
X80810498Y-72544180D01*
X80869463Y-72654494D01*
X80948815Y-72751185D01*
X81045506Y-72830537D01*
X81155820Y-72889502D01*
X81275518Y-72925812D01*
X81400000Y-72938072D01*
X82400000Y-72938072D01*
X82524482Y-72925812D01*
X82644180Y-72889502D01*
X82754494Y-72830537D01*
X82851185Y-72751185D01*
X82930537Y-72654494D01*
X82989502Y-72544180D01*
X83025812Y-72424482D01*
X83038072Y-72300000D01*
X83961928Y-72300000D01*
X83974188Y-72424482D01*
X84010498Y-72544180D01*
X84069463Y-72654494D01*
X84148815Y-72751185D01*
X84245506Y-72830537D01*
X84355820Y-72889502D01*
X84475518Y-72925812D01*
X84600000Y-72938072D01*
X84814250Y-72935000D01*
X84973000Y-72776250D01*
X84973000Y-71677000D01*
X84123750Y-71677000D01*
X83965000Y-71835750D01*
X83961928Y-72300000D01*
X83038072Y-72300000D01*
X83038072Y-71486730D01*
X83236003Y-71288798D01*
X83265002Y-71265000D01*
X83359975Y-71149275D01*
X83430547Y-71017246D01*
X83474004Y-70873985D01*
X83481290Y-70800000D01*
X83961928Y-70800000D01*
X83965000Y-71264250D01*
X84123750Y-71423000D01*
X84973000Y-71423000D01*
X84973000Y-70323750D01*
X84814250Y-70165000D01*
X84600000Y-70161928D01*
X84475518Y-70174188D01*
X84355820Y-70210498D01*
X84245506Y-70269463D01*
X84148815Y-70348815D01*
X84069463Y-70445506D01*
X84010498Y-70555820D01*
X83974188Y-70675518D01*
X83961928Y-70800000D01*
X83481290Y-70800000D01*
X83485001Y-70762332D01*
X83488678Y-70724999D01*
X83485001Y-70687666D01*
X83485001Y-65677321D01*
X83488677Y-65639998D01*
X83485001Y-65602675D01*
X83485001Y-65602666D01*
X83474004Y-65491013D01*
X83430547Y-65347752D01*
X83359975Y-65215723D01*
X83265002Y-65099998D01*
X83236004Y-65076200D01*
X83048806Y-64889003D01*
X83025004Y-64860000D01*
X82909279Y-64765027D01*
X82777250Y-64694455D01*
X82633989Y-64650998D01*
X82522336Y-64640001D01*
X82522325Y-64640001D01*
X82485003Y-64636325D01*
X82447681Y-64640001D01*
X71837321Y-64640001D01*
X71799998Y-64636325D01*
X71762676Y-64640001D01*
X71762666Y-64640001D01*
X71651013Y-64650998D01*
X71507752Y-64694455D01*
X71375774Y-64765000D01*
X71298061Y-64765000D01*
X71098102Y-64804774D01*
X70909744Y-64882795D01*
X70740226Y-64996063D01*
X70675001Y-65061288D01*
X70675001Y-62469800D01*
X82335000Y-50809802D01*
X82335000Y-50936260D01*
%TA.AperFunction,Conductor*%
D16*
G36*
X82335000Y-50936260D02*
G01*
X82392068Y-51223158D01*
X82504010Y-51493411D01*
X82666525Y-51736632D01*
X82873368Y-51943475D01*
X83047760Y-52060000D01*
X82873368Y-52176525D01*
X82666525Y-52383368D01*
X82504010Y-52626589D01*
X82392068Y-52896842D01*
X82335000Y-53183740D01*
X82335000Y-53476260D01*
X82392068Y-53763158D01*
X82504010Y-54033411D01*
X82666525Y-54276632D01*
X82873368Y-54483475D01*
X83047760Y-54600000D01*
X82873368Y-54716525D01*
X82666525Y-54923368D01*
X82504010Y-55166589D01*
X82392068Y-55436842D01*
X82335000Y-55723740D01*
X82335000Y-56016260D01*
X82392068Y-56303158D01*
X82504010Y-56573411D01*
X82666525Y-56816632D01*
X82873368Y-57023475D01*
X83047760Y-57140000D01*
X82873368Y-57256525D01*
X82666525Y-57463368D01*
X82504010Y-57706589D01*
X82392068Y-57976842D01*
X82335000Y-58263740D01*
X82335000Y-58556260D01*
X82392068Y-58843158D01*
X82504010Y-59113411D01*
X82666525Y-59356632D01*
X82873368Y-59563475D01*
X83047760Y-59680000D01*
X82873368Y-59796525D01*
X82666525Y-60003368D01*
X82504010Y-60246589D01*
X82392068Y-60516842D01*
X82335000Y-60803740D01*
X82335000Y-61096260D01*
X82392068Y-61383158D01*
X82504010Y-61653411D01*
X82666525Y-61896632D01*
X82873368Y-62103475D01*
X83047760Y-62220000D01*
X82873368Y-62336525D01*
X82666525Y-62543368D01*
X82504010Y-62786589D01*
X82392068Y-63056842D01*
X82335000Y-63343740D01*
X82335000Y-63636260D01*
X82392068Y-63923158D01*
X82504010Y-64193411D01*
X82666525Y-64436632D01*
X82873368Y-64643475D01*
X83116589Y-64805990D01*
X83386842Y-64917932D01*
X83673740Y-64975000D01*
X83966260Y-64975000D01*
X84253158Y-64917932D01*
X84523411Y-64805990D01*
X84766632Y-64643475D01*
X84973475Y-64436632D01*
X85135990Y-64193411D01*
X85247932Y-63923158D01*
X85305000Y-63636260D01*
X85305000Y-63343740D01*
X85247932Y-63056842D01*
X85135990Y-62786589D01*
X84973475Y-62543368D01*
X84766632Y-62336525D01*
X84592240Y-62220000D01*
X84766632Y-62103475D01*
X84973475Y-61896632D01*
X85135990Y-61653411D01*
X85247932Y-61383158D01*
X85305000Y-61096260D01*
X85305000Y-60803740D01*
X85247932Y-60516842D01*
X85135990Y-60246589D01*
X84973475Y-60003368D01*
X84766632Y-59796525D01*
X84592240Y-59680000D01*
X84766632Y-59563475D01*
X84973475Y-59356632D01*
X85135990Y-59113411D01*
X85247932Y-58843158D01*
X85305000Y-58556260D01*
X85305000Y-58263740D01*
X85247932Y-57976842D01*
X85135990Y-57706589D01*
X84973475Y-57463368D01*
X84766632Y-57256525D01*
X84592240Y-57140000D01*
X84766632Y-57023475D01*
X84973475Y-56816632D01*
X85135990Y-56573411D01*
X85247932Y-56303158D01*
X85305000Y-56016260D01*
X85305000Y-55723740D01*
X85247932Y-55436842D01*
X85135990Y-55166589D01*
X84973475Y-54923368D01*
X84766632Y-54716525D01*
X84592240Y-54600000D01*
X84766632Y-54483475D01*
X84973475Y-54276632D01*
X85135990Y-54033411D01*
X85247932Y-53763158D01*
X85305000Y-53476260D01*
X85305000Y-53183740D01*
X85261210Y-52963592D01*
X85506005Y-52718797D01*
X85535002Y-52695000D01*
X85629975Y-52579275D01*
X85675000Y-52495040D01*
X85675001Y-65269315D01*
X85600000Y-65261928D01*
X84600000Y-65261928D01*
X84475518Y-65274188D01*
X84355820Y-65310498D01*
X84245506Y-65369463D01*
X84148815Y-65448815D01*
X84069463Y-65545506D01*
X84010498Y-65655820D01*
X83974188Y-65775518D01*
X83961928Y-65900000D01*
X83961928Y-67400000D01*
X83974188Y-67524482D01*
X84010498Y-67644180D01*
X84069463Y-67754494D01*
X84148815Y-67851185D01*
X84245506Y-67930537D01*
X84355820Y-67989502D01*
X84475518Y-68025812D01*
X84600000Y-68038072D01*
X85600000Y-68038072D01*
X85675001Y-68030685D01*
X85675001Y-70169315D01*
X85600000Y-70161928D01*
X85385750Y-70165000D01*
X85227000Y-70323750D01*
X85227000Y-71423000D01*
X85247000Y-71423000D01*
X85247000Y-71677000D01*
X85227000Y-71677000D01*
X85227000Y-72776250D01*
X85385750Y-72935000D01*
X85600000Y-72938072D01*
X85675001Y-72930685D01*
X85675001Y-78055000D01*
X77699088Y-78055000D01*
X77740537Y-78004494D01*
X77799502Y-77894180D01*
X77835812Y-77774482D01*
X77848072Y-77650000D01*
X77848072Y-75950000D01*
X77835812Y-75825518D01*
X77799502Y-75705820D01*
X77740537Y-75595506D01*
X77661185Y-75498815D01*
X77564494Y-75419463D01*
X77454180Y-75360498D01*
X77334482Y-75324188D01*
X77210000Y-75311928D01*
X75510000Y-75311928D01*
X75385518Y-75324188D01*
X75265820Y-75360498D01*
X75155506Y-75419463D01*
X75058815Y-75498815D01*
X74979463Y-75595506D01*
X74920498Y-75705820D01*
X74898487Y-75778380D01*
X74766632Y-75646525D01*
X74681390Y-75589568D01*
X74734974Y-75524276D01*
X74805546Y-75392247D01*
X74849003Y-75248986D01*
X74860000Y-75137333D01*
X74860000Y-74762668D01*
X74849003Y-74651015D01*
X74805546Y-74507753D01*
X74734974Y-74375724D01*
X74640001Y-74259999D01*
X74524276Y-74165026D01*
X74392247Y-74094454D01*
X74248986Y-74050997D01*
X74100000Y-74036323D01*
X73951015Y-74050997D01*
X73807754Y-74094454D01*
X73675725Y-74165026D01*
X73559999Y-74259999D01*
X73465026Y-74375724D01*
X73394454Y-74507753D01*
X73350997Y-74651014D01*
X73340000Y-74762667D01*
X73340000Y-75137332D01*
X73350997Y-75248985D01*
X73388248Y-75371788D01*
X73386842Y-75372068D01*
X73116589Y-75484010D01*
X72873368Y-75646525D01*
X72666525Y-75853368D01*
X72550000Y-76027760D01*
X72433475Y-75853368D01*
X72226632Y-75646525D01*
X71983411Y-75484010D01*
X71713158Y-75372068D01*
X71426260Y-75315000D01*
X71133740Y-75315000D01*
X70913592Y-75358791D01*
X70675001Y-75120200D01*
X70675001Y-73398061D01*
X76265000Y-73398061D01*
X76265000Y-73601939D01*
X76304774Y-73801898D01*
X76382795Y-73990256D01*
X76496063Y-74159774D01*
X76640226Y-74303937D01*
X76809744Y-74417205D01*
X76998102Y-74495226D01*
X77198061Y-74535000D01*
X77401939Y-74535000D01*
X77601898Y-74495226D01*
X77790256Y-74417205D01*
X77959774Y-74303937D01*
X78103937Y-74159774D01*
X78217205Y-73990256D01*
X78295226Y-73801898D01*
X78335000Y-73601939D01*
X78335000Y-73398061D01*
X78295226Y-73198102D01*
X78217205Y-73009744D01*
X78103937Y-72840226D01*
X77959774Y-72696063D01*
X77790256Y-72582795D01*
X77601898Y-72504774D01*
X77401939Y-72465000D01*
X77198061Y-72465000D01*
X76998102Y-72504774D01*
X76809744Y-72582795D01*
X76640226Y-72696063D01*
X76496063Y-72840226D01*
X76382795Y-73009744D01*
X76304774Y-73198102D01*
X76265000Y-73398061D01*
X70675001Y-73398061D01*
X70675001Y-66538712D01*
X70740226Y-66603937D01*
X70909744Y-66717205D01*
X71098102Y-66795226D01*
X71298061Y-66835000D01*
X71501939Y-66835000D01*
X71701898Y-66795226D01*
X71890256Y-66717205D01*
X72059774Y-66603937D01*
X72203937Y-66459774D01*
X72317205Y-66290256D01*
X72371159Y-66160001D01*
X80761928Y-66160001D01*
X80761928Y-67400000D01*
X80774188Y-67524482D01*
X80810498Y-67644180D01*
X80869463Y-67754494D01*
X80948815Y-67851185D01*
X81045506Y-67930537D01*
X81155820Y-67989502D01*
X81275518Y-68025812D01*
X81400000Y-68038072D01*
X81965001Y-68038072D01*
X81965002Y-70161928D01*
X81400000Y-70161928D01*
X81275518Y-70174188D01*
X81155820Y-70210498D01*
X81045506Y-70269463D01*
X80948815Y-70348815D01*
X80869463Y-70445506D01*
X80810498Y-70555820D01*
X80774188Y-70675518D01*
X80761928Y-70800000D01*
X80761928Y-72300000D01*
X80774188Y-72424482D01*
X80810498Y-72544180D01*
X80869463Y-72654494D01*
X80948815Y-72751185D01*
X81045506Y-72830537D01*
X81155820Y-72889502D01*
X81275518Y-72925812D01*
X81400000Y-72938072D01*
X82400000Y-72938072D01*
X82524482Y-72925812D01*
X82644180Y-72889502D01*
X82754494Y-72830537D01*
X82851185Y-72751185D01*
X82930537Y-72654494D01*
X82989502Y-72544180D01*
X83025812Y-72424482D01*
X83038072Y-72300000D01*
X83961928Y-72300000D01*
X83974188Y-72424482D01*
X84010498Y-72544180D01*
X84069463Y-72654494D01*
X84148815Y-72751185D01*
X84245506Y-72830537D01*
X84355820Y-72889502D01*
X84475518Y-72925812D01*
X84600000Y-72938072D01*
X84814250Y-72935000D01*
X84973000Y-72776250D01*
X84973000Y-71677000D01*
X84123750Y-71677000D01*
X83965000Y-71835750D01*
X83961928Y-72300000D01*
X83038072Y-72300000D01*
X83038072Y-71486730D01*
X83236003Y-71288798D01*
X83265002Y-71265000D01*
X83359975Y-71149275D01*
X83430547Y-71017246D01*
X83474004Y-70873985D01*
X83481290Y-70800000D01*
X83961928Y-70800000D01*
X83965000Y-71264250D01*
X84123750Y-71423000D01*
X84973000Y-71423000D01*
X84973000Y-70323750D01*
X84814250Y-70165000D01*
X84600000Y-70161928D01*
X84475518Y-70174188D01*
X84355820Y-70210498D01*
X84245506Y-70269463D01*
X84148815Y-70348815D01*
X84069463Y-70445506D01*
X84010498Y-70555820D01*
X83974188Y-70675518D01*
X83961928Y-70800000D01*
X83481290Y-70800000D01*
X83485001Y-70762332D01*
X83488678Y-70724999D01*
X83485001Y-70687666D01*
X83485001Y-65677321D01*
X83488677Y-65639998D01*
X83485001Y-65602675D01*
X83485001Y-65602666D01*
X83474004Y-65491013D01*
X83430547Y-65347752D01*
X83359975Y-65215723D01*
X83265002Y-65099998D01*
X83236004Y-65076200D01*
X83048806Y-64889003D01*
X83025004Y-64860000D01*
X82909279Y-64765027D01*
X82777250Y-64694455D01*
X82633989Y-64650998D01*
X82522336Y-64640001D01*
X82522325Y-64640001D01*
X82485003Y-64636325D01*
X82447681Y-64640001D01*
X71837321Y-64640001D01*
X71799998Y-64636325D01*
X71762676Y-64640001D01*
X71762666Y-64640001D01*
X71651013Y-64650998D01*
X71507752Y-64694455D01*
X71375774Y-64765000D01*
X71298061Y-64765000D01*
X71098102Y-64804774D01*
X70909744Y-64882795D01*
X70740226Y-64996063D01*
X70675001Y-65061288D01*
X70675001Y-62469800D01*
X82335000Y-50809802D01*
X82335000Y-50936260D01*
G37*
%TD.AperFunction*%
D15*
X65740226Y-67903937D02*
X65909744Y-68017205D01*
X66098102Y-68095226D01*
X66298061Y-68135000D01*
X66501939Y-68135000D01*
X66640001Y-68107538D01*
X66640001Y-71562658D01*
X66640000Y-71562668D01*
X66640001Y-73683666D01*
X66636324Y-73720998D01*
X66650998Y-73869983D01*
X66694454Y-74013244D01*
X66765026Y-74145274D01*
X66809344Y-74199275D01*
X66860000Y-74260999D01*
X66888998Y-74284797D01*
X68073091Y-75468890D01*
X68036589Y-75484010D01*
X67793368Y-75646525D01*
X67586525Y-75853368D01*
X67470000Y-76027760D01*
X67353475Y-75853368D01*
X67146632Y-75646525D01*
X66903411Y-75484010D01*
X66633158Y-75372068D01*
X66346260Y-75315000D01*
X66053740Y-75315000D01*
X65766842Y-75372068D01*
X65496589Y-75484010D01*
X65253368Y-75646525D01*
X65046525Y-75853368D01*
X64884010Y-76096589D01*
X64772068Y-76366842D01*
X64715000Y-76653740D01*
X64715000Y-76946260D01*
X64772068Y-77233158D01*
X64884010Y-77503411D01*
X65046525Y-77746632D01*
X65253368Y-77953475D01*
X65405311Y-78055000D01*
X56565000Y-78055000D01*
X56565000Y-74738079D01*
X56601012Y-74749003D01*
X56712665Y-74760000D01*
X56712673Y-74760000D01*
X56749998Y-74763676D01*
X56787323Y-74760000D01*
X59996289Y-74760000D01*
X60040226Y-74803937D01*
X60209744Y-74917205D01*
X60398102Y-74995226D01*
X60598061Y-75035000D01*
X60801939Y-75035000D01*
X61001898Y-74995226D01*
X61190256Y-74917205D01*
X61359774Y-74803937D01*
X61503937Y-74659774D01*
X61617205Y-74490256D01*
X61695226Y-74301898D01*
X61735000Y-74101939D01*
X61735000Y-73898061D01*
X61695226Y-73698102D01*
X61617205Y-73509744D01*
X61503937Y-73340226D01*
X61359774Y-73196063D01*
X61190256Y-73082795D01*
X61001898Y-73004774D01*
X60801939Y-72965000D01*
X60598061Y-72965000D01*
X60398102Y-73004774D01*
X60209744Y-73082795D01*
X60040226Y-73196063D01*
X59996289Y-73240000D01*
X57134999Y-73240000D01*
X57134999Y-72938072D01*
X57700000Y-72938072D01*
X57824482Y-72925812D01*
X57944180Y-72889502D01*
X58054494Y-72830537D01*
X58151185Y-72751185D01*
X58230537Y-72654494D01*
X58289502Y-72544180D01*
X58325812Y-72424482D01*
X58338072Y-72300000D01*
X59261928Y-72300000D01*
X59274188Y-72424482D01*
X59310498Y-72544180D01*
X59369463Y-72654494D01*
X59448815Y-72751185D01*
X59545506Y-72830537D01*
X59655820Y-72889502D01*
X59775518Y-72925812D01*
X59900000Y-72938072D01*
X60114250Y-72935000D01*
X60273000Y-72776250D01*
X60273000Y-71677000D01*
X60527000Y-71677000D01*
X60527000Y-72776250D01*
X60685750Y-72935000D01*
X60900000Y-72938072D01*
X61024482Y-72925812D01*
X61144180Y-72889502D01*
X61254494Y-72830537D01*
X61351185Y-72751185D01*
X61430537Y-72654494D01*
X61489502Y-72544180D01*
X61525812Y-72424482D01*
X61538072Y-72300000D01*
X61535000Y-71835750D01*
X61376250Y-71677000D01*
X60527000Y-71677000D01*
X60273000Y-71677000D01*
X59423750Y-71677000D01*
X59265000Y-71835750D01*
X59261928Y-72300000D01*
X58338072Y-72300000D01*
X58338072Y-71486730D01*
X59358171Y-70466631D01*
X59310498Y-70555820D01*
X59274188Y-70675518D01*
X59261928Y-70800000D01*
X59265000Y-71264250D01*
X59423750Y-71423000D01*
X60273000Y-71423000D01*
X60273000Y-70323750D01*
X60527000Y-70323750D01*
X60527000Y-71423000D01*
X61376250Y-71423000D01*
X61535000Y-71264250D01*
X61538072Y-70800000D01*
X61525812Y-70675518D01*
X61489502Y-70555820D01*
X61430537Y-70445506D01*
X61351185Y-70348815D01*
X61254494Y-70269463D01*
X61144180Y-70210498D01*
X61024482Y-70174188D01*
X60900000Y-70161928D01*
X60685750Y-70165000D01*
X60527000Y-70323750D01*
X60273000Y-70323750D01*
X60114250Y-70165000D01*
X59900000Y-70161928D01*
X59775518Y-70174188D01*
X59655820Y-70210498D01*
X59566632Y-70258171D01*
X59986007Y-69838796D01*
X60015000Y-69815002D01*
X60038794Y-69786009D01*
X60038798Y-69786005D01*
X60109972Y-69699278D01*
X60109973Y-69699277D01*
X60180545Y-69567248D01*
X60224002Y-69423987D01*
X60234999Y-69312334D01*
X60234999Y-69312325D01*
X60238675Y-69275002D01*
X60234999Y-69237679D01*
X60234999Y-68798061D01*
X62165000Y-68798061D01*
X62165000Y-69001939D01*
X62204774Y-69201898D01*
X62282795Y-69390256D01*
X62396063Y-69559774D01*
X62440001Y-69603712D01*
X62440000Y-74596289D01*
X62396063Y-74640226D01*
X62282795Y-74809744D01*
X62204774Y-74998102D01*
X62165000Y-75198061D01*
X62165000Y-75401939D01*
X62204774Y-75601898D01*
X62282795Y-75790256D01*
X62396063Y-75959774D01*
X62540226Y-76103937D01*
X62709744Y-76217205D01*
X62898102Y-76295226D01*
X63098061Y-76335000D01*
X63301939Y-76335000D01*
X63501898Y-76295226D01*
X63690256Y-76217205D01*
X63859774Y-76103937D01*
X64003937Y-75959774D01*
X64117205Y-75790256D01*
X64195226Y-75601898D01*
X64235000Y-75401939D01*
X64235000Y-75198061D01*
X64195226Y-74998102D01*
X64117205Y-74809744D01*
X64003937Y-74640226D01*
X63960000Y-74596289D01*
X63960000Y-69603711D01*
X64003937Y-69559774D01*
X64117205Y-69390256D01*
X64195226Y-69201898D01*
X64235000Y-69001939D01*
X64235000Y-68798061D01*
X64195226Y-68598102D01*
X64117205Y-68409744D01*
X64003937Y-68240226D01*
X63859774Y-68096063D01*
X63690256Y-67982795D01*
X63501898Y-67904774D01*
X63301939Y-67865000D01*
X63098061Y-67865000D01*
X62898102Y-67904774D01*
X62709744Y-67982795D01*
X62540226Y-68096063D01*
X62396063Y-68240226D01*
X62282795Y-68409744D01*
X62204774Y-68598102D01*
X62165000Y-68798061D01*
X60234999Y-68798061D01*
X60234999Y-68038072D01*
X60900000Y-68038072D01*
X61024482Y-68025812D01*
X61144180Y-67989502D01*
X61254494Y-67930537D01*
X61340444Y-67860000D01*
X65696289Y-67860000D01*
X65740226Y-67903937D01*
%TA.AperFunction,Conductor*%
D16*
G36*
X65740226Y-67903937D02*
G01*
X65909744Y-68017205D01*
X66098102Y-68095226D01*
X66298061Y-68135000D01*
X66501939Y-68135000D01*
X66640001Y-68107538D01*
X66640001Y-71562658D01*
X66640000Y-71562668D01*
X66640001Y-73683666D01*
X66636324Y-73720998D01*
X66650998Y-73869983D01*
X66694454Y-74013244D01*
X66765026Y-74145274D01*
X66809344Y-74199275D01*
X66860000Y-74260999D01*
X66888998Y-74284797D01*
X68073091Y-75468890D01*
X68036589Y-75484010D01*
X67793368Y-75646525D01*
X67586525Y-75853368D01*
X67470000Y-76027760D01*
X67353475Y-75853368D01*
X67146632Y-75646525D01*
X66903411Y-75484010D01*
X66633158Y-75372068D01*
X66346260Y-75315000D01*
X66053740Y-75315000D01*
X65766842Y-75372068D01*
X65496589Y-75484010D01*
X65253368Y-75646525D01*
X65046525Y-75853368D01*
X64884010Y-76096589D01*
X64772068Y-76366842D01*
X64715000Y-76653740D01*
X64715000Y-76946260D01*
X64772068Y-77233158D01*
X64884010Y-77503411D01*
X65046525Y-77746632D01*
X65253368Y-77953475D01*
X65405311Y-78055000D01*
X56565000Y-78055000D01*
X56565000Y-74738079D01*
X56601012Y-74749003D01*
X56712665Y-74760000D01*
X56712673Y-74760000D01*
X56749998Y-74763676D01*
X56787323Y-74760000D01*
X59996289Y-74760000D01*
X60040226Y-74803937D01*
X60209744Y-74917205D01*
X60398102Y-74995226D01*
X60598061Y-75035000D01*
X60801939Y-75035000D01*
X61001898Y-74995226D01*
X61190256Y-74917205D01*
X61359774Y-74803937D01*
X61503937Y-74659774D01*
X61617205Y-74490256D01*
X61695226Y-74301898D01*
X61735000Y-74101939D01*
X61735000Y-73898061D01*
X61695226Y-73698102D01*
X61617205Y-73509744D01*
X61503937Y-73340226D01*
X61359774Y-73196063D01*
X61190256Y-73082795D01*
X61001898Y-73004774D01*
X60801939Y-72965000D01*
X60598061Y-72965000D01*
X60398102Y-73004774D01*
X60209744Y-73082795D01*
X60040226Y-73196063D01*
X59996289Y-73240000D01*
X57134999Y-73240000D01*
X57134999Y-72938072D01*
X57700000Y-72938072D01*
X57824482Y-72925812D01*
X57944180Y-72889502D01*
X58054494Y-72830537D01*
X58151185Y-72751185D01*
X58230537Y-72654494D01*
X58289502Y-72544180D01*
X58325812Y-72424482D01*
X58338072Y-72300000D01*
X59261928Y-72300000D01*
X59274188Y-72424482D01*
X59310498Y-72544180D01*
X59369463Y-72654494D01*
X59448815Y-72751185D01*
X59545506Y-72830537D01*
X59655820Y-72889502D01*
X59775518Y-72925812D01*
X59900000Y-72938072D01*
X60114250Y-72935000D01*
X60273000Y-72776250D01*
X60273000Y-71677000D01*
X60527000Y-71677000D01*
X60527000Y-72776250D01*
X60685750Y-72935000D01*
X60900000Y-72938072D01*
X61024482Y-72925812D01*
X61144180Y-72889502D01*
X61254494Y-72830537D01*
X61351185Y-72751185D01*
X61430537Y-72654494D01*
X61489502Y-72544180D01*
X61525812Y-72424482D01*
X61538072Y-72300000D01*
X61535000Y-71835750D01*
X61376250Y-71677000D01*
X60527000Y-71677000D01*
X60273000Y-71677000D01*
X59423750Y-71677000D01*
X59265000Y-71835750D01*
X59261928Y-72300000D01*
X58338072Y-72300000D01*
X58338072Y-71486730D01*
X59358171Y-70466631D01*
X59310498Y-70555820D01*
X59274188Y-70675518D01*
X59261928Y-70800000D01*
X59265000Y-71264250D01*
X59423750Y-71423000D01*
X60273000Y-71423000D01*
X60273000Y-70323750D01*
X60527000Y-70323750D01*
X60527000Y-71423000D01*
X61376250Y-71423000D01*
X61535000Y-71264250D01*
X61538072Y-70800000D01*
X61525812Y-70675518D01*
X61489502Y-70555820D01*
X61430537Y-70445506D01*
X61351185Y-70348815D01*
X61254494Y-70269463D01*
X61144180Y-70210498D01*
X61024482Y-70174188D01*
X60900000Y-70161928D01*
X60685750Y-70165000D01*
X60527000Y-70323750D01*
X60273000Y-70323750D01*
X60114250Y-70165000D01*
X59900000Y-70161928D01*
X59775518Y-70174188D01*
X59655820Y-70210498D01*
X59566632Y-70258171D01*
X59986007Y-69838796D01*
X60015000Y-69815002D01*
X60038794Y-69786009D01*
X60038798Y-69786005D01*
X60109972Y-69699278D01*
X60109973Y-69699277D01*
X60180545Y-69567248D01*
X60224002Y-69423987D01*
X60234999Y-69312334D01*
X60234999Y-69312325D01*
X60238675Y-69275002D01*
X60234999Y-69237679D01*
X60234999Y-68798061D01*
X62165000Y-68798061D01*
X62165000Y-69001939D01*
X62204774Y-69201898D01*
X62282795Y-69390256D01*
X62396063Y-69559774D01*
X62440001Y-69603712D01*
X62440000Y-74596289D01*
X62396063Y-74640226D01*
X62282795Y-74809744D01*
X62204774Y-74998102D01*
X62165000Y-75198061D01*
X62165000Y-75401939D01*
X62204774Y-75601898D01*
X62282795Y-75790256D01*
X62396063Y-75959774D01*
X62540226Y-76103937D01*
X62709744Y-76217205D01*
X62898102Y-76295226D01*
X63098061Y-76335000D01*
X63301939Y-76335000D01*
X63501898Y-76295226D01*
X63690256Y-76217205D01*
X63859774Y-76103937D01*
X64003937Y-75959774D01*
X64117205Y-75790256D01*
X64195226Y-75601898D01*
X64235000Y-75401939D01*
X64235000Y-75198061D01*
X64195226Y-74998102D01*
X64117205Y-74809744D01*
X64003937Y-74640226D01*
X63960000Y-74596289D01*
X63960000Y-69603711D01*
X64003937Y-69559774D01*
X64117205Y-69390256D01*
X64195226Y-69201898D01*
X64235000Y-69001939D01*
X64235000Y-68798061D01*
X64195226Y-68598102D01*
X64117205Y-68409744D01*
X64003937Y-68240226D01*
X63859774Y-68096063D01*
X63690256Y-67982795D01*
X63501898Y-67904774D01*
X63301939Y-67865000D01*
X63098061Y-67865000D01*
X62898102Y-67904774D01*
X62709744Y-67982795D01*
X62540226Y-68096063D01*
X62396063Y-68240226D01*
X62282795Y-68409744D01*
X62204774Y-68598102D01*
X62165000Y-68798061D01*
X60234999Y-68798061D01*
X60234999Y-68038072D01*
X60900000Y-68038072D01*
X61024482Y-68025812D01*
X61144180Y-67989502D01*
X61254494Y-67930537D01*
X61340444Y-67860000D01*
X65696289Y-67860000D01*
X65740226Y-67903937D01*
G37*
%TD.AperFunction*%
D15*
X85675000Y-44259958D02*
X85629975Y-44175723D01*
X85535002Y-44059998D01*
X85505998Y-44036195D01*
X85493805Y-44024002D01*
X85470002Y-43994998D01*
X85354277Y-43900025D01*
X85222248Y-43829453D01*
X85078987Y-43785996D01*
X84967334Y-43774999D01*
X84967323Y-43774999D01*
X84930001Y-43771323D01*
X84892679Y-43774999D01*
X71502323Y-43774999D01*
X71465000Y-43771323D01*
X71427677Y-43774999D01*
X71427668Y-43774999D01*
X71316015Y-43785996D01*
X71172754Y-43829453D01*
X71040725Y-43900025D01*
X70925000Y-43994998D01*
X70901202Y-44023996D01*
X69106408Y-45818791D01*
X68886260Y-45775000D01*
X68593740Y-45775000D01*
X68306842Y-45832068D01*
X68036589Y-45944010D01*
X67793368Y-46106525D01*
X67586525Y-46313368D01*
X67424010Y-46556589D01*
X67312068Y-46826842D01*
X67255000Y-47113740D01*
X67255000Y-47406260D01*
X67312068Y-47693158D01*
X67424010Y-47963411D01*
X67586525Y-48206632D01*
X67594892Y-48214999D01*
X66089321Y-48214999D01*
X66051998Y-48211323D01*
X66014675Y-48214999D01*
X66014666Y-48214999D01*
X65903013Y-48225996D01*
X65759752Y-48269453D01*
X65627723Y-48340025D01*
X65511998Y-48434998D01*
X65488200Y-48463996D01*
X61088998Y-52863199D01*
X61060000Y-52886997D01*
X61036202Y-52915995D01*
X61036201Y-52915996D01*
X60965026Y-53002722D01*
X60894454Y-53134752D01*
X60850998Y-53278013D01*
X60836324Y-53426998D01*
X60840001Y-53464330D01*
X60840000Y-57996289D01*
X60796063Y-58040226D01*
X60682795Y-58209744D01*
X60604774Y-58398102D01*
X60565000Y-58598061D01*
X60565000Y-58801939D01*
X60604774Y-59001898D01*
X60682795Y-59190256D01*
X60796063Y-59359774D01*
X60876289Y-59440000D01*
X60524802Y-59440000D01*
X59861210Y-58776408D01*
X59905000Y-58556260D01*
X59905000Y-58263740D01*
X59847932Y-57976842D01*
X59735990Y-57706589D01*
X59573475Y-57463368D01*
X59366632Y-57256525D01*
X59192240Y-57140000D01*
X59366632Y-57023475D01*
X59573475Y-56816632D01*
X59735990Y-56573411D01*
X59847932Y-56303158D01*
X59905000Y-56016260D01*
X59905000Y-55723740D01*
X59847932Y-55436842D01*
X59735990Y-55166589D01*
X59573475Y-54923368D01*
X59366632Y-54716525D01*
X59192240Y-54600000D01*
X59366632Y-54483475D01*
X59573475Y-54276632D01*
X59735990Y-54033411D01*
X59847932Y-53763158D01*
X59905000Y-53476260D01*
X59905000Y-53183740D01*
X59847932Y-52896842D01*
X59735990Y-52626589D01*
X59573475Y-52383368D01*
X59366632Y-52176525D01*
X59192240Y-52060000D01*
X59366632Y-51943475D01*
X59573475Y-51736632D01*
X59735990Y-51493411D01*
X59847932Y-51223158D01*
X59905000Y-50936260D01*
X59905000Y-50643740D01*
X59847932Y-50356842D01*
X59735990Y-50086589D01*
X59573475Y-49843368D01*
X59366632Y-49636525D01*
X59184466Y-49514805D01*
X59301355Y-49445178D01*
X59517588Y-49250269D01*
X59691641Y-49016920D01*
X59816825Y-48754099D01*
X59861476Y-48606890D01*
X59740155Y-48377000D01*
X58547000Y-48377000D01*
X58547000Y-48397000D01*
X58293000Y-48397000D01*
X58293000Y-48377000D01*
X57099845Y-48377000D01*
X56978524Y-48606890D01*
X57023175Y-48754099D01*
X57148359Y-49016920D01*
X57322412Y-49250269D01*
X57538645Y-49445178D01*
X57655534Y-49514805D01*
X57473368Y-49636525D01*
X57266525Y-49843368D01*
X57104010Y-50086589D01*
X56992068Y-50356842D01*
X56935000Y-50643740D01*
X56935000Y-50936260D01*
X56992068Y-51223158D01*
X57104010Y-51493411D01*
X57266525Y-51736632D01*
X57473368Y-51943475D01*
X57647760Y-52060000D01*
X57473368Y-52176525D01*
X57266525Y-52383368D01*
X57104010Y-52626589D01*
X56992068Y-52896842D01*
X56935000Y-53183740D01*
X56935000Y-53476260D01*
X56992068Y-53763158D01*
X57104010Y-54033411D01*
X57266525Y-54276632D01*
X57473368Y-54483475D01*
X57647760Y-54600000D01*
X57473368Y-54716525D01*
X57266525Y-54923368D01*
X57104010Y-55166589D01*
X56992068Y-55436842D01*
X56935000Y-55723740D01*
X56935000Y-56016260D01*
X56992068Y-56303158D01*
X57104010Y-56573411D01*
X57266525Y-56816632D01*
X57473368Y-57023475D01*
X57647760Y-57140000D01*
X57473368Y-57256525D01*
X57266525Y-57463368D01*
X57104010Y-57706589D01*
X56992068Y-57976842D01*
X56935000Y-58263740D01*
X56935000Y-58556260D01*
X56992068Y-58843158D01*
X57104010Y-59113411D01*
X57266525Y-59356632D01*
X57473368Y-59563475D01*
X57647760Y-59680000D01*
X57473368Y-59796525D01*
X57266525Y-60003368D01*
X57104010Y-60246589D01*
X56992068Y-60516842D01*
X56935000Y-60803740D01*
X56935000Y-61096260D01*
X56992068Y-61383158D01*
X57104010Y-61653411D01*
X57266525Y-61896632D01*
X57473368Y-62103475D01*
X57647760Y-62220000D01*
X57473368Y-62336525D01*
X57266525Y-62543368D01*
X57104010Y-62786589D01*
X56992068Y-63056842D01*
X56935000Y-63343740D01*
X56935000Y-63636260D01*
X56992068Y-63923158D01*
X57104010Y-64193411D01*
X57266525Y-64436632D01*
X57473368Y-64643475D01*
X57716589Y-64805990D01*
X57986842Y-64917932D01*
X58273740Y-64975000D01*
X58566260Y-64975000D01*
X58853158Y-64917932D01*
X59123411Y-64805990D01*
X59366632Y-64643475D01*
X59573475Y-64436632D01*
X59735990Y-64193411D01*
X59847932Y-63923158D01*
X59905000Y-63636260D01*
X59905000Y-63343740D01*
X59847932Y-63056842D01*
X59735990Y-62786589D01*
X59573475Y-62543368D01*
X59366632Y-62336525D01*
X59192240Y-62220000D01*
X59366632Y-62103475D01*
X59573475Y-61896632D01*
X59735990Y-61653411D01*
X59847932Y-61383158D01*
X59905000Y-61096260D01*
X59905000Y-60898729D01*
X59917753Y-60905546D01*
X60061014Y-60949003D01*
X60172667Y-60960000D01*
X60172676Y-60960000D01*
X60209999Y-60963676D01*
X60247322Y-60960000D01*
X63080196Y-60960000D01*
X58964002Y-65076195D01*
X58934998Y-65099998D01*
X58901984Y-65140226D01*
X58840025Y-65215723D01*
X58769454Y-65347752D01*
X58769453Y-65347753D01*
X58725996Y-65491014D01*
X58714999Y-65602667D01*
X58714999Y-65602677D01*
X58711323Y-65639999D01*
X58714999Y-65677322D01*
X58715000Y-68960197D01*
X57513270Y-70161928D01*
X57134999Y-70161928D01*
X57134999Y-68038072D01*
X57700000Y-68038072D01*
X57824482Y-68025812D01*
X57944180Y-67989502D01*
X58054494Y-67930537D01*
X58151185Y-67851185D01*
X58230537Y-67754494D01*
X58289502Y-67644180D01*
X58325812Y-67524482D01*
X58338072Y-67400000D01*
X58338072Y-65900000D01*
X58325812Y-65775518D01*
X58289502Y-65655820D01*
X58230537Y-65545506D01*
X58151185Y-65448815D01*
X58054494Y-65369463D01*
X57944180Y-65310498D01*
X57824482Y-65274188D01*
X57700000Y-65261928D01*
X56700000Y-65261928D01*
X56575518Y-65274188D01*
X56565000Y-65277379D01*
X56565000Y-44860000D01*
X56931928Y-44860000D01*
X56931928Y-46560000D01*
X56944188Y-46684482D01*
X56980498Y-46804180D01*
X57039463Y-46914494D01*
X57118815Y-47011185D01*
X57215506Y-47090537D01*
X57325820Y-47149502D01*
X57406466Y-47173966D01*
X57322412Y-47249731D01*
X57148359Y-47483080D01*
X57023175Y-47745901D01*
X56978524Y-47893110D01*
X57099845Y-48123000D01*
X58293000Y-48123000D01*
X58293000Y-48103000D01*
X58547000Y-48103000D01*
X58547000Y-48123000D01*
X59740155Y-48123000D01*
X59861476Y-47893110D01*
X59816825Y-47745901D01*
X59691641Y-47483080D01*
X59517588Y-47249731D01*
X59433534Y-47173966D01*
X59514180Y-47149502D01*
X59624494Y-47090537D01*
X59721185Y-47011185D01*
X59800537Y-46914494D01*
X59859502Y-46804180D01*
X59895812Y-46684482D01*
X59908072Y-46560000D01*
X59908072Y-44860000D01*
X59895812Y-44735518D01*
X59859502Y-44615820D01*
X59800537Y-44505506D01*
X59721185Y-44408815D01*
X59624494Y-44329463D01*
X59514180Y-44270498D01*
X59394482Y-44234188D01*
X59270000Y-44221928D01*
X57570000Y-44221928D01*
X57445518Y-44234188D01*
X57325820Y-44270498D01*
X57215506Y-44329463D01*
X57118815Y-44408815D01*
X57039463Y-44505506D01*
X56980498Y-44615820D01*
X56944188Y-44735518D01*
X56931928Y-44860000D01*
X56565000Y-44860000D01*
X56565000Y-42085000D01*
X85675000Y-42085000D01*
X85675000Y-44259958D01*
%TA.AperFunction,Conductor*%
D16*
G36*
X85675000Y-44259958D02*
G01*
X85629975Y-44175723D01*
X85535002Y-44059998D01*
X85505998Y-44036195D01*
X85493805Y-44024002D01*
X85470002Y-43994998D01*
X85354277Y-43900025D01*
X85222248Y-43829453D01*
X85078987Y-43785996D01*
X84967334Y-43774999D01*
X84967323Y-43774999D01*
X84930001Y-43771323D01*
X84892679Y-43774999D01*
X71502323Y-43774999D01*
X71465000Y-43771323D01*
X71427677Y-43774999D01*
X71427668Y-43774999D01*
X71316015Y-43785996D01*
X71172754Y-43829453D01*
X71040725Y-43900025D01*
X70925000Y-43994998D01*
X70901202Y-44023996D01*
X69106408Y-45818791D01*
X68886260Y-45775000D01*
X68593740Y-45775000D01*
X68306842Y-45832068D01*
X68036589Y-45944010D01*
X67793368Y-46106525D01*
X67586525Y-46313368D01*
X67424010Y-46556589D01*
X67312068Y-46826842D01*
X67255000Y-47113740D01*
X67255000Y-47406260D01*
X67312068Y-47693158D01*
X67424010Y-47963411D01*
X67586525Y-48206632D01*
X67594892Y-48214999D01*
X66089321Y-48214999D01*
X66051998Y-48211323D01*
X66014675Y-48214999D01*
X66014666Y-48214999D01*
X65903013Y-48225996D01*
X65759752Y-48269453D01*
X65627723Y-48340025D01*
X65511998Y-48434998D01*
X65488200Y-48463996D01*
X61088998Y-52863199D01*
X61060000Y-52886997D01*
X61036202Y-52915995D01*
X61036201Y-52915996D01*
X60965026Y-53002722D01*
X60894454Y-53134752D01*
X60850998Y-53278013D01*
X60836324Y-53426998D01*
X60840001Y-53464330D01*
X60840000Y-57996289D01*
X60796063Y-58040226D01*
X60682795Y-58209744D01*
X60604774Y-58398102D01*
X60565000Y-58598061D01*
X60565000Y-58801939D01*
X60604774Y-59001898D01*
X60682795Y-59190256D01*
X60796063Y-59359774D01*
X60876289Y-59440000D01*
X60524802Y-59440000D01*
X59861210Y-58776408D01*
X59905000Y-58556260D01*
X59905000Y-58263740D01*
X59847932Y-57976842D01*
X59735990Y-57706589D01*
X59573475Y-57463368D01*
X59366632Y-57256525D01*
X59192240Y-57140000D01*
X59366632Y-57023475D01*
X59573475Y-56816632D01*
X59735990Y-56573411D01*
X59847932Y-56303158D01*
X59905000Y-56016260D01*
X59905000Y-55723740D01*
X59847932Y-55436842D01*
X59735990Y-55166589D01*
X59573475Y-54923368D01*
X59366632Y-54716525D01*
X59192240Y-54600000D01*
X59366632Y-54483475D01*
X59573475Y-54276632D01*
X59735990Y-54033411D01*
X59847932Y-53763158D01*
X59905000Y-53476260D01*
X59905000Y-53183740D01*
X59847932Y-52896842D01*
X59735990Y-52626589D01*
X59573475Y-52383368D01*
X59366632Y-52176525D01*
X59192240Y-52060000D01*
X59366632Y-51943475D01*
X59573475Y-51736632D01*
X59735990Y-51493411D01*
X59847932Y-51223158D01*
X59905000Y-50936260D01*
X59905000Y-50643740D01*
X59847932Y-50356842D01*
X59735990Y-50086589D01*
X59573475Y-49843368D01*
X59366632Y-49636525D01*
X59184466Y-49514805D01*
X59301355Y-49445178D01*
X59517588Y-49250269D01*
X59691641Y-49016920D01*
X59816825Y-48754099D01*
X59861476Y-48606890D01*
X59740155Y-48377000D01*
X58547000Y-48377000D01*
X58547000Y-48397000D01*
X58293000Y-48397000D01*
X58293000Y-48377000D01*
X57099845Y-48377000D01*
X56978524Y-48606890D01*
X57023175Y-48754099D01*
X57148359Y-49016920D01*
X57322412Y-49250269D01*
X57538645Y-49445178D01*
X57655534Y-49514805D01*
X57473368Y-49636525D01*
X57266525Y-49843368D01*
X57104010Y-50086589D01*
X56992068Y-50356842D01*
X56935000Y-50643740D01*
X56935000Y-50936260D01*
X56992068Y-51223158D01*
X57104010Y-51493411D01*
X57266525Y-51736632D01*
X57473368Y-51943475D01*
X57647760Y-52060000D01*
X57473368Y-52176525D01*
X57266525Y-52383368D01*
X57104010Y-52626589D01*
X56992068Y-52896842D01*
X56935000Y-53183740D01*
X56935000Y-53476260D01*
X56992068Y-53763158D01*
X57104010Y-54033411D01*
X57266525Y-54276632D01*
X57473368Y-54483475D01*
X57647760Y-54600000D01*
X57473368Y-54716525D01*
X57266525Y-54923368D01*
X57104010Y-55166589D01*
X56992068Y-55436842D01*
X56935000Y-55723740D01*
X56935000Y-56016260D01*
X56992068Y-56303158D01*
X57104010Y-56573411D01*
X57266525Y-56816632D01*
X57473368Y-57023475D01*
X57647760Y-57140000D01*
X57473368Y-57256525D01*
X57266525Y-57463368D01*
X57104010Y-57706589D01*
X56992068Y-57976842D01*
X56935000Y-58263740D01*
X56935000Y-58556260D01*
X56992068Y-58843158D01*
X57104010Y-59113411D01*
X57266525Y-59356632D01*
X57473368Y-59563475D01*
X57647760Y-59680000D01*
X57473368Y-59796525D01*
X57266525Y-60003368D01*
X57104010Y-60246589D01*
X56992068Y-60516842D01*
X56935000Y-60803740D01*
X56935000Y-61096260D01*
X56992068Y-61383158D01*
X57104010Y-61653411D01*
X57266525Y-61896632D01*
X57473368Y-62103475D01*
X57647760Y-62220000D01*
X57473368Y-62336525D01*
X57266525Y-62543368D01*
X57104010Y-62786589D01*
X56992068Y-63056842D01*
X56935000Y-63343740D01*
X56935000Y-63636260D01*
X56992068Y-63923158D01*
X57104010Y-64193411D01*
X57266525Y-64436632D01*
X57473368Y-64643475D01*
X57716589Y-64805990D01*
X57986842Y-64917932D01*
X58273740Y-64975000D01*
X58566260Y-64975000D01*
X58853158Y-64917932D01*
X59123411Y-64805990D01*
X59366632Y-64643475D01*
X59573475Y-64436632D01*
X59735990Y-64193411D01*
X59847932Y-63923158D01*
X59905000Y-63636260D01*
X59905000Y-63343740D01*
X59847932Y-63056842D01*
X59735990Y-62786589D01*
X59573475Y-62543368D01*
X59366632Y-62336525D01*
X59192240Y-62220000D01*
X59366632Y-62103475D01*
X59573475Y-61896632D01*
X59735990Y-61653411D01*
X59847932Y-61383158D01*
X59905000Y-61096260D01*
X59905000Y-60898729D01*
X59917753Y-60905546D01*
X60061014Y-60949003D01*
X60172667Y-60960000D01*
X60172676Y-60960000D01*
X60209999Y-60963676D01*
X60247322Y-60960000D01*
X63080196Y-60960000D01*
X58964002Y-65076195D01*
X58934998Y-65099998D01*
X58901984Y-65140226D01*
X58840025Y-65215723D01*
X58769454Y-65347752D01*
X58769453Y-65347753D01*
X58725996Y-65491014D01*
X58714999Y-65602667D01*
X58714999Y-65602677D01*
X58711323Y-65639999D01*
X58714999Y-65677322D01*
X58715000Y-68960197D01*
X57513270Y-70161928D01*
X57134999Y-70161928D01*
X57134999Y-68038072D01*
X57700000Y-68038072D01*
X57824482Y-68025812D01*
X57944180Y-67989502D01*
X58054494Y-67930537D01*
X58151185Y-67851185D01*
X58230537Y-67754494D01*
X58289502Y-67644180D01*
X58325812Y-67524482D01*
X58338072Y-67400000D01*
X58338072Y-65900000D01*
X58325812Y-65775518D01*
X58289502Y-65655820D01*
X58230537Y-65545506D01*
X58151185Y-65448815D01*
X58054494Y-65369463D01*
X57944180Y-65310498D01*
X57824482Y-65274188D01*
X57700000Y-65261928D01*
X56700000Y-65261928D01*
X56575518Y-65274188D01*
X56565000Y-65277379D01*
X56565000Y-44860000D01*
X56931928Y-44860000D01*
X56931928Y-46560000D01*
X56944188Y-46684482D01*
X56980498Y-46804180D01*
X57039463Y-46914494D01*
X57118815Y-47011185D01*
X57215506Y-47090537D01*
X57325820Y-47149502D01*
X57406466Y-47173966D01*
X57322412Y-47249731D01*
X57148359Y-47483080D01*
X57023175Y-47745901D01*
X56978524Y-47893110D01*
X57099845Y-48123000D01*
X58293000Y-48123000D01*
X58293000Y-48103000D01*
X58547000Y-48103000D01*
X58547000Y-48123000D01*
X59740155Y-48123000D01*
X59861476Y-47893110D01*
X59816825Y-47745901D01*
X59691641Y-47483080D01*
X59517588Y-47249731D01*
X59433534Y-47173966D01*
X59514180Y-47149502D01*
X59624494Y-47090537D01*
X59721185Y-47011185D01*
X59800537Y-46914494D01*
X59859502Y-46804180D01*
X59895812Y-46684482D01*
X59908072Y-46560000D01*
X59908072Y-44860000D01*
X59895812Y-44735518D01*
X59859502Y-44615820D01*
X59800537Y-44505506D01*
X59721185Y-44408815D01*
X59624494Y-44329463D01*
X59514180Y-44270498D01*
X59394482Y-44234188D01*
X59270000Y-44221928D01*
X57570000Y-44221928D01*
X57445518Y-44234188D01*
X57325820Y-44270498D01*
X57215506Y-44329463D01*
X57118815Y-44408815D01*
X57039463Y-44505506D01*
X56980498Y-44615820D01*
X56944188Y-44735518D01*
X56931928Y-44860000D01*
X56565000Y-44860000D01*
X56565000Y-42085000D01*
X85675000Y-42085000D01*
X85675000Y-44259958D01*
G37*
%TD.AperFunction*%
D15*
X82331928Y-46560000D02*
X82344188Y-46684482D01*
X82380498Y-46804180D01*
X82405410Y-46850786D01*
X66889003Y-62367194D01*
X66859999Y-62390997D01*
X66823887Y-62435000D01*
X66765026Y-62506722D01*
X66735348Y-62562246D01*
X66694454Y-62638752D01*
X66650997Y-62782013D01*
X66640000Y-62893666D01*
X66640000Y-62893676D01*
X66636324Y-62930998D01*
X66640000Y-62968320D01*
X66640000Y-66092462D01*
X66501939Y-66065000D01*
X66298061Y-66065000D01*
X66098102Y-66104774D01*
X65909744Y-66182795D01*
X65740226Y-66296063D01*
X65696289Y-66340000D01*
X61538072Y-66340000D01*
X61538072Y-65900000D01*
X61525812Y-65775518D01*
X61489502Y-65655820D01*
X61430537Y-65545506D01*
X61351185Y-65448815D01*
X61254494Y-65369463D01*
X61144180Y-65310498D01*
X61024482Y-65274188D01*
X60925372Y-65264427D01*
X64504799Y-61685001D01*
X67010679Y-61685001D01*
X67048001Y-61688677D01*
X67085323Y-61685001D01*
X67085334Y-61685001D01*
X67196987Y-61674004D01*
X67340248Y-61630547D01*
X67472277Y-61559975D01*
X67588002Y-61465002D01*
X67611805Y-61435998D01*
X67935999Y-61111804D01*
X67965002Y-61088002D01*
X68059975Y-60972277D01*
X68130547Y-60840248D01*
X68174004Y-60696987D01*
X68185001Y-60585334D01*
X68185001Y-60585333D01*
X68188678Y-60548001D01*
X68185001Y-60510668D01*
X68185001Y-50762323D01*
X68188677Y-50725000D01*
X68185001Y-50687677D01*
X68185001Y-50687668D01*
X68174004Y-50576015D01*
X68130547Y-50432754D01*
X68059975Y-50300725D01*
X67965002Y-50185000D01*
X67936004Y-50161202D01*
X67509801Y-49734999D01*
X77471288Y-49734999D01*
X77515225Y-49778936D01*
X77684743Y-49892204D01*
X77873101Y-49970225D01*
X78073060Y-50009999D01*
X78276938Y-50009999D01*
X78476897Y-49970225D01*
X78665255Y-49892204D01*
X78834773Y-49778936D01*
X78978936Y-49634773D01*
X79092204Y-49465255D01*
X79170225Y-49276897D01*
X79209999Y-49076938D01*
X79209999Y-48873060D01*
X79170225Y-48673101D01*
X79092204Y-48484743D01*
X78978936Y-48315225D01*
X78834773Y-48171062D01*
X78665255Y-48057794D01*
X78476897Y-47979773D01*
X78276938Y-47939999D01*
X78073060Y-47939999D01*
X77873101Y-47979773D01*
X77848072Y-47990140D01*
X77848072Y-46410000D01*
X77835812Y-46285518D01*
X77799502Y-46165820D01*
X77740537Y-46055506D01*
X77661185Y-45958815D01*
X77564494Y-45879463D01*
X77454180Y-45820498D01*
X77334482Y-45784188D01*
X77210000Y-45771928D01*
X75510000Y-45771928D01*
X75385518Y-45784188D01*
X75265820Y-45820498D01*
X75155506Y-45879463D01*
X75058815Y-45958815D01*
X74979463Y-46055506D01*
X74920498Y-46165820D01*
X74896034Y-46246466D01*
X74820269Y-46162412D01*
X74586920Y-45988359D01*
X74324099Y-45863175D01*
X74176890Y-45818524D01*
X73947000Y-45939845D01*
X73947000Y-47133000D01*
X73967000Y-47133000D01*
X73967000Y-47387000D01*
X73947000Y-47387000D01*
X73947000Y-47407000D01*
X73693000Y-47407000D01*
X73693000Y-47387000D01*
X73673000Y-47387000D01*
X73673000Y-47133000D01*
X73693000Y-47133000D01*
X73693000Y-45939845D01*
X73463110Y-45818524D01*
X73315901Y-45863175D01*
X73053080Y-45988359D01*
X72819731Y-46162412D01*
X72624822Y-46378645D01*
X72555195Y-46495534D01*
X72433475Y-46313368D01*
X72226632Y-46106525D01*
X71983411Y-45944010D01*
X71713158Y-45832068D01*
X71426260Y-45775000D01*
X71299802Y-45775000D01*
X71779803Y-45294999D01*
X82331928Y-45294999D01*
X82331928Y-46560000D01*
%TA.AperFunction,Conductor*%
D16*
G36*
X82331928Y-46560000D02*
G01*
X82344188Y-46684482D01*
X82380498Y-46804180D01*
X82405410Y-46850786D01*
X66889003Y-62367194D01*
X66859999Y-62390997D01*
X66823887Y-62435000D01*
X66765026Y-62506722D01*
X66735348Y-62562246D01*
X66694454Y-62638752D01*
X66650997Y-62782013D01*
X66640000Y-62893666D01*
X66640000Y-62893676D01*
X66636324Y-62930998D01*
X66640000Y-62968320D01*
X66640000Y-66092462D01*
X66501939Y-66065000D01*
X66298061Y-66065000D01*
X66098102Y-66104774D01*
X65909744Y-66182795D01*
X65740226Y-66296063D01*
X65696289Y-66340000D01*
X61538072Y-66340000D01*
X61538072Y-65900000D01*
X61525812Y-65775518D01*
X61489502Y-65655820D01*
X61430537Y-65545506D01*
X61351185Y-65448815D01*
X61254494Y-65369463D01*
X61144180Y-65310498D01*
X61024482Y-65274188D01*
X60925372Y-65264427D01*
X64504799Y-61685001D01*
X67010679Y-61685001D01*
X67048001Y-61688677D01*
X67085323Y-61685001D01*
X67085334Y-61685001D01*
X67196987Y-61674004D01*
X67340248Y-61630547D01*
X67472277Y-61559975D01*
X67588002Y-61465002D01*
X67611805Y-61435998D01*
X67935999Y-61111804D01*
X67965002Y-61088002D01*
X68059975Y-60972277D01*
X68130547Y-60840248D01*
X68174004Y-60696987D01*
X68185001Y-60585334D01*
X68185001Y-60585333D01*
X68188678Y-60548001D01*
X68185001Y-60510668D01*
X68185001Y-50762323D01*
X68188677Y-50725000D01*
X68185001Y-50687677D01*
X68185001Y-50687668D01*
X68174004Y-50576015D01*
X68130547Y-50432754D01*
X68059975Y-50300725D01*
X67965002Y-50185000D01*
X67936004Y-50161202D01*
X67509801Y-49734999D01*
X77471288Y-49734999D01*
X77515225Y-49778936D01*
X77684743Y-49892204D01*
X77873101Y-49970225D01*
X78073060Y-50009999D01*
X78276938Y-50009999D01*
X78476897Y-49970225D01*
X78665255Y-49892204D01*
X78834773Y-49778936D01*
X78978936Y-49634773D01*
X79092204Y-49465255D01*
X79170225Y-49276897D01*
X79209999Y-49076938D01*
X79209999Y-48873060D01*
X79170225Y-48673101D01*
X79092204Y-48484743D01*
X78978936Y-48315225D01*
X78834773Y-48171062D01*
X78665255Y-48057794D01*
X78476897Y-47979773D01*
X78276938Y-47939999D01*
X78073060Y-47939999D01*
X77873101Y-47979773D01*
X77848072Y-47990140D01*
X77848072Y-46410000D01*
X77835812Y-46285518D01*
X77799502Y-46165820D01*
X77740537Y-46055506D01*
X77661185Y-45958815D01*
X77564494Y-45879463D01*
X77454180Y-45820498D01*
X77334482Y-45784188D01*
X77210000Y-45771928D01*
X75510000Y-45771928D01*
X75385518Y-45784188D01*
X75265820Y-45820498D01*
X75155506Y-45879463D01*
X75058815Y-45958815D01*
X74979463Y-46055506D01*
X74920498Y-46165820D01*
X74896034Y-46246466D01*
X74820269Y-46162412D01*
X74586920Y-45988359D01*
X74324099Y-45863175D01*
X74176890Y-45818524D01*
X73947000Y-45939845D01*
X73947000Y-47133000D01*
X73967000Y-47133000D01*
X73967000Y-47387000D01*
X73947000Y-47387000D01*
X73947000Y-47407000D01*
X73693000Y-47407000D01*
X73693000Y-47387000D01*
X73673000Y-47387000D01*
X73673000Y-47133000D01*
X73693000Y-47133000D01*
X73693000Y-45939845D01*
X73463110Y-45818524D01*
X73315901Y-45863175D01*
X73053080Y-45988359D01*
X72819731Y-46162412D01*
X72624822Y-46378645D01*
X72555195Y-46495534D01*
X72433475Y-46313368D01*
X72226632Y-46106525D01*
X71983411Y-45944010D01*
X71713158Y-45832068D01*
X71426260Y-45775000D01*
X71299802Y-45775000D01*
X71779803Y-45294999D01*
X82331928Y-45294999D01*
X82331928Y-46560000D01*
G37*
%TD.AperFunction*%
%TD*%
M02*
