%TF.GenerationSoftware,KiCad,Pcbnew,(5.1.8)-1*%
%TF.CreationDate,2021-02-07T13:37:50+01:00*%
%TF.ProjectId,CO2-PlatineMZ-H19,434f322d-506c-4617-9469-6e654d5a2d48,rev?*%
%TF.SameCoordinates,Original*%
%TF.FileFunction,Legend,Top*%
%TF.FilePolarity,Positive*%
%FSLAX46Y46*%
G04 Gerber Fmt 4.6, Leading zero omitted, Abs format (unit mm)*
G04 Created by KiCad (PCBNEW (5.1.8)-1) date 2021-02-07 13:37:50*
%MOMM*%
%LPD*%
G01*
G04 APERTURE LIST*
%ADD10C,0.100000*%
%ADD11C,0.150000*%
%ADD12C,0.060000*%
%ADD13C,0.010000*%
%ADD14C,0.120000*%
%ADD15C,0.200000*%
%ADD16C,0.127000*%
%ADD17C,0.300000*%
G04 APERTURE END LIST*
D10*
X66250000Y-46789285D02*
X66250000Y-47325000D01*
X66214285Y-47432142D01*
X66142857Y-47503571D01*
X66035714Y-47539285D01*
X65964285Y-47539285D01*
X66928571Y-47039285D02*
X66928571Y-47539285D01*
X66750000Y-46753571D02*
X66571428Y-47289285D01*
X67035714Y-47289285D01*
X63450000Y-77289285D02*
X63450000Y-77825000D01*
X63414285Y-77932142D01*
X63342857Y-78003571D01*
X63235714Y-78039285D01*
X63164285Y-78039285D01*
X63735714Y-77289285D02*
X64200000Y-77289285D01*
X63950000Y-77575000D01*
X64057142Y-77575000D01*
X64128571Y-77610714D01*
X64164285Y-77646428D01*
X64200000Y-77717857D01*
X64200000Y-77896428D01*
X64164285Y-77967857D01*
X64128571Y-78003571D01*
X64057142Y-78039285D01*
X63842857Y-78039285D01*
X63771428Y-78003571D01*
X63735714Y-77967857D01*
D11*
X58252380Y-67033333D02*
X58966666Y-67033333D01*
X59109523Y-67080952D01*
X59204761Y-67176190D01*
X59252380Y-67319047D01*
X59252380Y-67414285D01*
X59252380Y-66033333D02*
X59252380Y-66604761D01*
X59252380Y-66319047D02*
X58252380Y-66319047D01*
X58395238Y-66414285D01*
X58490476Y-66509523D01*
X58538095Y-66604761D01*
D10*
X60500000Y-45753571D02*
X61071428Y-45753571D01*
X60785714Y-46039285D02*
X60785714Y-45467857D01*
X61357142Y-45289285D02*
X61821428Y-45289285D01*
X61571428Y-45575000D01*
X61678571Y-45575000D01*
X61750000Y-45610714D01*
X61785714Y-45646428D01*
X61821428Y-45717857D01*
X61821428Y-45896428D01*
X61785714Y-45967857D01*
X61750000Y-46003571D01*
X61678571Y-46039285D01*
X61464285Y-46039285D01*
X61392857Y-46003571D01*
X61357142Y-45967857D01*
X62142857Y-45967857D02*
X62178571Y-46003571D01*
X62142857Y-46039285D01*
X62107142Y-46003571D01*
X62142857Y-45967857D01*
X62142857Y-46039285D01*
X62428571Y-45289285D02*
X62892857Y-45289285D01*
X62642857Y-45575000D01*
X62750000Y-45575000D01*
X62821428Y-45610714D01*
X62857142Y-45646428D01*
X62892857Y-45717857D01*
X62892857Y-45896428D01*
X62857142Y-45967857D01*
X62821428Y-46003571D01*
X62750000Y-46039285D01*
X62535714Y-46039285D01*
X62464285Y-46003571D01*
X62428571Y-45967857D01*
X63107142Y-45289285D02*
X63357142Y-46039285D01*
X63607142Y-45289285D01*
D12*
X81135714Y-72542857D02*
X81135714Y-72161904D01*
X81326190Y-72352380D02*
X80945238Y-72352380D01*
X80826190Y-71685714D02*
X80826190Y-71923809D01*
X81064285Y-71947619D01*
X81040476Y-71923809D01*
X81016666Y-71876190D01*
X81016666Y-71757142D01*
X81040476Y-71709523D01*
X81064285Y-71685714D01*
X81111904Y-71661904D01*
X81230952Y-71661904D01*
X81278571Y-71685714D01*
X81302380Y-71709523D01*
X81326190Y-71757142D01*
X81326190Y-71876190D01*
X81302380Y-71923809D01*
X81278571Y-71947619D01*
X80826190Y-71519047D02*
X81326190Y-71352380D01*
X80826190Y-71185714D01*
X84326190Y-72492857D02*
X83826190Y-72492857D01*
X84064285Y-72492857D02*
X84064285Y-72207142D01*
X84326190Y-72207142D02*
X83826190Y-72207142D01*
X84326190Y-71969047D02*
X83826190Y-71969047D01*
X83826190Y-71850000D01*
X83850000Y-71778571D01*
X83897619Y-71730952D01*
X83945238Y-71707142D01*
X84040476Y-71683333D01*
X84111904Y-71683333D01*
X84207142Y-71707142D01*
X84254761Y-71730952D01*
X84302380Y-71778571D01*
X84326190Y-71850000D01*
X84326190Y-71969047D01*
X83183333Y-72447619D02*
X83183333Y-72209523D01*
X83326190Y-72495238D02*
X82826190Y-72328571D01*
X83326190Y-72161904D01*
X83326190Y-71780952D02*
X82826190Y-71780952D01*
X83302380Y-71780952D02*
X83326190Y-71828571D01*
X83326190Y-71923809D01*
X83302380Y-71971428D01*
X83278571Y-71995238D01*
X83230952Y-72019047D01*
X83088095Y-72019047D01*
X83040476Y-71995238D01*
X83016666Y-71971428D01*
X82992857Y-71923809D01*
X82992857Y-71828571D01*
X83016666Y-71780952D01*
X83326190Y-71542857D02*
X82826190Y-71542857D01*
X83064285Y-71542857D02*
X83064285Y-71257142D01*
X83326190Y-71257142D02*
X82826190Y-71257142D01*
X83326190Y-70947619D02*
X83302380Y-70995238D01*
X83278571Y-71019047D01*
X83230952Y-71042857D01*
X83088095Y-71042857D01*
X83040476Y-71019047D01*
X83016666Y-70995238D01*
X82992857Y-70947619D01*
X82992857Y-70876190D01*
X83016666Y-70828571D01*
X83040476Y-70804761D01*
X83088095Y-70780952D01*
X83230952Y-70780952D01*
X83278571Y-70804761D01*
X83302380Y-70828571D01*
X83326190Y-70876190D01*
X83326190Y-70947619D01*
X83302380Y-70352380D02*
X83326190Y-70400000D01*
X83326190Y-70495238D01*
X83302380Y-70542857D01*
X83278571Y-70566666D01*
X83230952Y-70590476D01*
X83088095Y-70590476D01*
X83040476Y-70566666D01*
X83016666Y-70542857D01*
X82992857Y-70495238D01*
X82992857Y-70400000D01*
X83016666Y-70352380D01*
X81850000Y-72280952D02*
X81826190Y-72328571D01*
X81826190Y-72400000D01*
X81850000Y-72471428D01*
X81897619Y-72519047D01*
X81945238Y-72542857D01*
X82040476Y-72566666D01*
X82111904Y-72566666D01*
X82207142Y-72542857D01*
X82254761Y-72519047D01*
X82302380Y-72471428D01*
X82326190Y-72400000D01*
X82326190Y-72352380D01*
X82302380Y-72280952D01*
X82278571Y-72257142D01*
X82111904Y-72257142D01*
X82111904Y-72352380D01*
X82326190Y-72042857D02*
X81826190Y-72042857D01*
X82326190Y-71757142D01*
X81826190Y-71757142D01*
X82326190Y-71519047D02*
X81826190Y-71519047D01*
X81826190Y-71400000D01*
X81850000Y-71328571D01*
X81897619Y-71280952D01*
X81945238Y-71257142D01*
X82040476Y-71233333D01*
X82111904Y-71233333D01*
X82207142Y-71257142D01*
X82254761Y-71280952D01*
X82302380Y-71328571D01*
X82326190Y-71400000D01*
X82326190Y-71519047D01*
D11*
X82952380Y-66533333D02*
X83666666Y-66533333D01*
X83809523Y-66580952D01*
X83904761Y-66676190D01*
X83952380Y-66819047D01*
X83952380Y-66914285D01*
X83047619Y-66104761D02*
X83000000Y-66057142D01*
X82952380Y-65961904D01*
X82952380Y-65723809D01*
X83000000Y-65628571D01*
X83047619Y-65580952D01*
X83142857Y-65533333D01*
X83238095Y-65533333D01*
X83380952Y-65580952D01*
X83952380Y-66152380D01*
X83952380Y-65533333D01*
D10*
X75535714Y-49153571D02*
X76107142Y-49153571D01*
X75821428Y-49439285D02*
X75821428Y-48867857D01*
X76821428Y-48689285D02*
X76464285Y-48689285D01*
X76428571Y-49046428D01*
X76464285Y-49010714D01*
X76535714Y-48975000D01*
X76714285Y-48975000D01*
X76785714Y-49010714D01*
X76821428Y-49046428D01*
X76857142Y-49117857D01*
X76857142Y-49296428D01*
X76821428Y-49367857D01*
X76785714Y-49403571D01*
X76714285Y-49439285D01*
X76535714Y-49439285D01*
X76464285Y-49403571D01*
X76428571Y-49367857D01*
X77071428Y-48689285D02*
X77321428Y-49439285D01*
X77571428Y-48689285D01*
X73228571Y-48725000D02*
X73157142Y-48689285D01*
X73050000Y-48689285D01*
X72942857Y-48725000D01*
X72871428Y-48796428D01*
X72835714Y-48867857D01*
X72800000Y-49010714D01*
X72800000Y-49117857D01*
X72835714Y-49260714D01*
X72871428Y-49332142D01*
X72942857Y-49403571D01*
X73050000Y-49439285D01*
X73121428Y-49439285D01*
X73228571Y-49403571D01*
X73264285Y-49367857D01*
X73264285Y-49117857D01*
X73121428Y-49117857D01*
X73585714Y-49439285D02*
X73585714Y-48689285D01*
X74014285Y-49439285D01*
X74014285Y-48689285D01*
X74371428Y-49439285D02*
X74371428Y-48689285D01*
X74550000Y-48689285D01*
X74657142Y-48725000D01*
X74728571Y-48796428D01*
X74764285Y-48867857D01*
X74800000Y-49010714D01*
X74800000Y-49117857D01*
X74764285Y-49260714D01*
X74728571Y-49332142D01*
X74657142Y-49403571D01*
X74550000Y-49439285D01*
X74371428Y-49439285D01*
X70442857Y-49225000D02*
X70800000Y-49225000D01*
X70371428Y-49439285D02*
X70621428Y-48689285D01*
X70871428Y-49439285D01*
X71264285Y-48689285D02*
X71407142Y-48689285D01*
X71478571Y-48725000D01*
X71550000Y-48796428D01*
X71585714Y-48939285D01*
X71585714Y-49189285D01*
X71550000Y-49332142D01*
X71478571Y-49403571D01*
X71407142Y-49439285D01*
X71264285Y-49439285D01*
X71192857Y-49403571D01*
X71121428Y-49332142D01*
X71085714Y-49189285D01*
X71085714Y-48939285D01*
X71121428Y-48796428D01*
X71192857Y-48725000D01*
X71264285Y-48689285D01*
X71800000Y-48689285D02*
X72228571Y-48689285D01*
X72014285Y-49439285D02*
X72014285Y-48689285D01*
X67646428Y-49439285D02*
X67646428Y-48689285D01*
X67932142Y-48689285D01*
X68003571Y-48725000D01*
X68039285Y-48760714D01*
X68075000Y-48832142D01*
X68075000Y-48939285D01*
X68039285Y-49010714D01*
X68003571Y-49046428D01*
X67932142Y-49082142D01*
X67646428Y-49082142D01*
X68325000Y-48689285D02*
X68503571Y-49439285D01*
X68646428Y-48903571D01*
X68789285Y-49439285D01*
X68967857Y-48689285D01*
X69253571Y-49439285D02*
X69253571Y-48689285D01*
X69503571Y-49225000D01*
X69753571Y-48689285D01*
X69753571Y-49439285D01*
X65610714Y-75339285D02*
X65610714Y-74589285D01*
X65610714Y-74946428D02*
X66039285Y-74946428D01*
X66039285Y-75339285D02*
X66039285Y-74589285D01*
X66396428Y-75339285D02*
X66396428Y-74589285D01*
X66575000Y-74589285D01*
X66682142Y-74625000D01*
X66753571Y-74696428D01*
X66789285Y-74767857D01*
X66825000Y-74910714D01*
X66825000Y-75017857D01*
X66789285Y-75160714D01*
X66753571Y-75232142D01*
X66682142Y-75303571D01*
X66575000Y-75339285D01*
X66396428Y-75339285D01*
X68110714Y-75303571D02*
X68217857Y-75339285D01*
X68396428Y-75339285D01*
X68467857Y-75303571D01*
X68503571Y-75267857D01*
X68539285Y-75196428D01*
X68539285Y-75125000D01*
X68503571Y-75053571D01*
X68467857Y-75017857D01*
X68396428Y-74982142D01*
X68253571Y-74946428D01*
X68182142Y-74910714D01*
X68146428Y-74875000D01*
X68110714Y-74803571D01*
X68110714Y-74732142D01*
X68146428Y-74660714D01*
X68182142Y-74625000D01*
X68253571Y-74589285D01*
X68432142Y-74589285D01*
X68539285Y-74625000D01*
X69289285Y-75339285D02*
X69039285Y-74982142D01*
X68860714Y-75339285D02*
X68860714Y-74589285D01*
X69146428Y-74589285D01*
X69217857Y-74625000D01*
X69253571Y-74660714D01*
X69289285Y-74732142D01*
X69289285Y-74839285D01*
X69253571Y-74910714D01*
X69217857Y-74946428D01*
X69146428Y-74982142D01*
X68860714Y-74982142D01*
X70728571Y-74589285D02*
X71157142Y-74589285D01*
X70942857Y-75339285D02*
X70942857Y-74589285D01*
X71335714Y-74589285D02*
X71835714Y-75339285D01*
X71835714Y-74589285D02*
X71335714Y-75339285D01*
X73675000Y-75339285D02*
X73425000Y-74982142D01*
X73246428Y-75339285D02*
X73246428Y-74589285D01*
X73532142Y-74589285D01*
X73603571Y-74625000D01*
X73639285Y-74660714D01*
X73675000Y-74732142D01*
X73675000Y-74839285D01*
X73639285Y-74910714D01*
X73603571Y-74946428D01*
X73532142Y-74982142D01*
X73246428Y-74982142D01*
X73925000Y-74589285D02*
X74425000Y-75339285D01*
X74425000Y-74589285D02*
X73925000Y-75339285D01*
X75257142Y-74589285D02*
X75507142Y-75339285D01*
X75757142Y-74589285D01*
X76114285Y-75339285D02*
X76042857Y-75303571D01*
X76007142Y-75267857D01*
X75971428Y-75196428D01*
X75971428Y-74982142D01*
X76007142Y-74910714D01*
X76042857Y-74875000D01*
X76114285Y-74839285D01*
X76221428Y-74839285D01*
X76292857Y-74875000D01*
X76328571Y-74910714D01*
X76364285Y-74982142D01*
X76364285Y-75196428D01*
X76328571Y-75267857D01*
X76292857Y-75303571D01*
X76221428Y-75339285D01*
X76114285Y-75339285D01*
X77007142Y-74839285D02*
X77007142Y-75339285D01*
X76685714Y-74839285D02*
X76685714Y-75232142D01*
X76721428Y-75303571D01*
X76792857Y-75339285D01*
X76900000Y-75339285D01*
X76971428Y-75303571D01*
X77007142Y-75267857D01*
X77257142Y-74839285D02*
X77542857Y-74839285D01*
X77364285Y-74589285D02*
X77364285Y-75232142D01*
X77400000Y-75303571D01*
X77471428Y-75339285D01*
X77542857Y-75339285D01*
X78935714Y-63803571D02*
X79042857Y-63839285D01*
X79221428Y-63839285D01*
X79292857Y-63803571D01*
X79328571Y-63767857D01*
X79364285Y-63696428D01*
X79364285Y-63625000D01*
X79328571Y-63553571D01*
X79292857Y-63517857D01*
X79221428Y-63482142D01*
X79078571Y-63446428D01*
X79007142Y-63410714D01*
X78971428Y-63375000D01*
X78935714Y-63303571D01*
X78935714Y-63232142D01*
X78971428Y-63160714D01*
X79007142Y-63125000D01*
X79078571Y-63089285D01*
X79257142Y-63089285D01*
X79364285Y-63125000D01*
X80114285Y-63767857D02*
X80078571Y-63803571D01*
X79971428Y-63839285D01*
X79900000Y-63839285D01*
X79792857Y-63803571D01*
X79721428Y-63732142D01*
X79685714Y-63660714D01*
X79650000Y-63517857D01*
X79650000Y-63410714D01*
X79685714Y-63267857D01*
X79721428Y-63196428D01*
X79792857Y-63125000D01*
X79900000Y-63089285D01*
X79971428Y-63089285D01*
X80078571Y-63125000D01*
X80114285Y-63160714D01*
X80435714Y-63839285D02*
X80435714Y-63089285D01*
X80864285Y-63839285D02*
X80542857Y-63410714D01*
X80864285Y-63089285D02*
X80435714Y-63517857D01*
X78821428Y-61239285D02*
X78821428Y-60489285D01*
X79071428Y-61025000D01*
X79321428Y-60489285D01*
X79321428Y-61239285D01*
X79821428Y-60489285D02*
X79964285Y-60489285D01*
X80035714Y-60525000D01*
X80107142Y-60596428D01*
X80142857Y-60739285D01*
X80142857Y-60989285D01*
X80107142Y-61132142D01*
X80035714Y-61203571D01*
X79964285Y-61239285D01*
X79821428Y-61239285D01*
X79750000Y-61203571D01*
X79678571Y-61132142D01*
X79642857Y-60989285D01*
X79642857Y-60739285D01*
X79678571Y-60596428D01*
X79750000Y-60525000D01*
X79821428Y-60489285D01*
X80428571Y-61203571D02*
X80535714Y-61239285D01*
X80714285Y-61239285D01*
X80785714Y-61203571D01*
X80821428Y-61167857D01*
X80857142Y-61096428D01*
X80857142Y-61025000D01*
X80821428Y-60953571D01*
X80785714Y-60917857D01*
X80714285Y-60882142D01*
X80571428Y-60846428D01*
X80500000Y-60810714D01*
X80464285Y-60775000D01*
X80428571Y-60703571D01*
X80428571Y-60632142D01*
X80464285Y-60560714D01*
X80500000Y-60525000D01*
X80571428Y-60489285D01*
X80750000Y-60489285D01*
X80857142Y-60525000D01*
X81178571Y-61239285D02*
X81178571Y-60489285D01*
X78821428Y-58839285D02*
X78821428Y-58089285D01*
X79071428Y-58625000D01*
X79321428Y-58089285D01*
X79321428Y-58839285D01*
X79678571Y-58839285D02*
X79678571Y-58089285D01*
X80000000Y-58803571D02*
X80107142Y-58839285D01*
X80285714Y-58839285D01*
X80357142Y-58803571D01*
X80392857Y-58767857D01*
X80428571Y-58696428D01*
X80428571Y-58625000D01*
X80392857Y-58553571D01*
X80357142Y-58517857D01*
X80285714Y-58482142D01*
X80142857Y-58446428D01*
X80071428Y-58410714D01*
X80035714Y-58375000D01*
X80000000Y-58303571D01*
X80000000Y-58232142D01*
X80035714Y-58160714D01*
X80071428Y-58125000D01*
X80142857Y-58089285D01*
X80321428Y-58089285D01*
X80428571Y-58125000D01*
X80892857Y-58089285D02*
X81035714Y-58089285D01*
X81107142Y-58125000D01*
X81178571Y-58196428D01*
X81214285Y-58339285D01*
X81214285Y-58589285D01*
X81178571Y-58732142D01*
X81107142Y-58803571D01*
X81035714Y-58839285D01*
X80892857Y-58839285D01*
X80821428Y-58803571D01*
X80750000Y-58732142D01*
X80714285Y-58589285D01*
X80714285Y-58339285D01*
X80750000Y-58196428D01*
X80821428Y-58125000D01*
X80892857Y-58089285D01*
X79125000Y-56139285D02*
X79125000Y-55389285D01*
X79410714Y-55389285D01*
X79482142Y-55425000D01*
X79517857Y-55460714D01*
X79553571Y-55532142D01*
X79553571Y-55639285D01*
X79517857Y-55710714D01*
X79482142Y-55746428D01*
X79410714Y-55782142D01*
X79125000Y-55782142D01*
X79839285Y-55925000D02*
X80196428Y-55925000D01*
X79767857Y-56139285D02*
X80017857Y-55389285D01*
X80267857Y-56139285D01*
X80446428Y-55389285D02*
X80946428Y-55389285D01*
X80625000Y-56139285D01*
X79071428Y-53639285D02*
X79071428Y-52889285D01*
X79357142Y-52889285D01*
X79428571Y-52925000D01*
X79464285Y-52960714D01*
X79500000Y-53032142D01*
X79500000Y-53139285D01*
X79464285Y-53210714D01*
X79428571Y-53246428D01*
X79357142Y-53282142D01*
X79071428Y-53282142D01*
X80071428Y-53246428D02*
X80178571Y-53282142D01*
X80214285Y-53317857D01*
X80250000Y-53389285D01*
X80250000Y-53496428D01*
X80214285Y-53567857D01*
X80178571Y-53603571D01*
X80107142Y-53639285D01*
X79821428Y-53639285D01*
X79821428Y-52889285D01*
X80071428Y-52889285D01*
X80142857Y-52925000D01*
X80178571Y-52960714D01*
X80214285Y-53032142D01*
X80214285Y-53103571D01*
X80178571Y-53175000D01*
X80142857Y-53210714D01*
X80071428Y-53246428D01*
X79821428Y-53246428D01*
X80928571Y-52889285D02*
X80571428Y-52889285D01*
X80535714Y-53246428D01*
X80571428Y-53210714D01*
X80642857Y-53175000D01*
X80821428Y-53175000D01*
X80892857Y-53210714D01*
X80928571Y-53246428D01*
X80964285Y-53317857D01*
X80964285Y-53496428D01*
X80928571Y-53567857D01*
X80892857Y-53603571D01*
X80821428Y-53639285D01*
X80642857Y-53639285D01*
X80571428Y-53603571D01*
X80535714Y-53567857D01*
X78942857Y-50571428D02*
X78942857Y-49971428D01*
X79171428Y-49971428D01*
X79228571Y-50000000D01*
X79257142Y-50028571D01*
X79285714Y-50085714D01*
X79285714Y-50171428D01*
X79257142Y-50228571D01*
X79228571Y-50257142D01*
X79171428Y-50285714D01*
X78942857Y-50285714D01*
X79742857Y-50257142D02*
X79828571Y-50285714D01*
X79857142Y-50314285D01*
X79885714Y-50371428D01*
X79885714Y-50457142D01*
X79857142Y-50514285D01*
X79828571Y-50542857D01*
X79771428Y-50571428D01*
X79542857Y-50571428D01*
X79542857Y-49971428D01*
X79742857Y-49971428D01*
X79800000Y-50000000D01*
X79828571Y-50028571D01*
X79857142Y-50085714D01*
X79857142Y-50142857D01*
X79828571Y-50200000D01*
X79800000Y-50228571D01*
X79742857Y-50257142D01*
X79542857Y-50257142D01*
X80400000Y-50171428D02*
X80400000Y-50571428D01*
X80257142Y-49942857D02*
X80114285Y-50371428D01*
X80485714Y-50371428D01*
X81142857Y-49942857D02*
X80628571Y-50714285D01*
X78842857Y-51400000D02*
X79128571Y-51400000D01*
X78785714Y-51571428D02*
X78985714Y-50971428D01*
X79185714Y-51571428D01*
X79471428Y-51571428D02*
X79414285Y-51542857D01*
X79385714Y-51485714D01*
X79385714Y-50971428D01*
X79957142Y-51571428D02*
X79957142Y-51257142D01*
X79928571Y-51200000D01*
X79871428Y-51171428D01*
X79757142Y-51171428D01*
X79700000Y-51200000D01*
X79957142Y-51542857D02*
X79900000Y-51571428D01*
X79757142Y-51571428D01*
X79700000Y-51542857D01*
X79671428Y-51485714D01*
X79671428Y-51428571D01*
X79700000Y-51371428D01*
X79757142Y-51342857D01*
X79900000Y-51342857D01*
X79957142Y-51314285D01*
X80242857Y-51571428D02*
X80242857Y-51171428D01*
X80242857Y-51285714D02*
X80271428Y-51228571D01*
X80300000Y-51200000D01*
X80357142Y-51171428D01*
X80414285Y-51171428D01*
X80614285Y-51571428D02*
X80614285Y-51171428D01*
X80614285Y-51228571D02*
X80642857Y-51200000D01*
X80700000Y-51171428D01*
X80785714Y-51171428D01*
X80842857Y-51200000D01*
X80871428Y-51257142D01*
X80871428Y-51571428D01*
X80871428Y-51257142D02*
X80900000Y-51200000D01*
X80957142Y-51171428D01*
X81042857Y-51171428D01*
X81100000Y-51200000D01*
X81128571Y-51257142D01*
X81128571Y-51571428D01*
X79875000Y-48539285D02*
X79625000Y-48182142D01*
X79446428Y-48539285D02*
X79446428Y-47789285D01*
X79732142Y-47789285D01*
X79803571Y-47825000D01*
X79839285Y-47860714D01*
X79875000Y-47932142D01*
X79875000Y-48039285D01*
X79839285Y-48110714D01*
X79803571Y-48146428D01*
X79732142Y-48182142D01*
X79446428Y-48182142D01*
X80125000Y-47789285D02*
X80625000Y-48539285D01*
X80625000Y-47789285D02*
X80125000Y-48539285D01*
X79428571Y-45289285D02*
X79857142Y-45289285D01*
X79642857Y-46039285D02*
X79642857Y-45289285D01*
X80035714Y-45289285D02*
X80535714Y-46039285D01*
X80535714Y-45289285D02*
X80035714Y-46039285D01*
X61071428Y-63639285D02*
X61071428Y-62889285D01*
X61357142Y-62889285D01*
X61428571Y-62925000D01*
X61464285Y-62960714D01*
X61500000Y-63032142D01*
X61500000Y-63139285D01*
X61464285Y-63210714D01*
X61428571Y-63246428D01*
X61357142Y-63282142D01*
X61071428Y-63282142D01*
X62250000Y-63567857D02*
X62214285Y-63603571D01*
X62107142Y-63639285D01*
X62035714Y-63639285D01*
X61928571Y-63603571D01*
X61857142Y-63532142D01*
X61821428Y-63460714D01*
X61785714Y-63317857D01*
X61785714Y-63210714D01*
X61821428Y-63067857D01*
X61857142Y-62996428D01*
X61928571Y-62925000D01*
X62035714Y-62889285D01*
X62107142Y-62889285D01*
X62214285Y-62925000D01*
X62250000Y-62960714D01*
X62500000Y-62889285D02*
X62964285Y-62889285D01*
X62714285Y-63175000D01*
X62821428Y-63175000D01*
X62892857Y-63210714D01*
X62928571Y-63246428D01*
X62964285Y-63317857D01*
X62964285Y-63496428D01*
X62928571Y-63567857D01*
X62892857Y-63603571D01*
X62821428Y-63639285D01*
X62607142Y-63639285D01*
X62535714Y-63603571D01*
X62500000Y-63567857D01*
X61071428Y-61239285D02*
X61071428Y-60489285D01*
X61357142Y-60489285D01*
X61428571Y-60525000D01*
X61464285Y-60560714D01*
X61500000Y-60632142D01*
X61500000Y-60739285D01*
X61464285Y-60810714D01*
X61428571Y-60846428D01*
X61357142Y-60882142D01*
X61071428Y-60882142D01*
X62250000Y-61167857D02*
X62214285Y-61203571D01*
X62107142Y-61239285D01*
X62035714Y-61239285D01*
X61928571Y-61203571D01*
X61857142Y-61132142D01*
X61821428Y-61060714D01*
X61785714Y-60917857D01*
X61785714Y-60810714D01*
X61821428Y-60667857D01*
X61857142Y-60596428D01*
X61928571Y-60525000D01*
X62035714Y-60489285D01*
X62107142Y-60489285D01*
X62214285Y-60525000D01*
X62250000Y-60560714D01*
X62535714Y-60560714D02*
X62571428Y-60525000D01*
X62642857Y-60489285D01*
X62821428Y-60489285D01*
X62892857Y-60525000D01*
X62928571Y-60560714D01*
X62964285Y-60632142D01*
X62964285Y-60703571D01*
X62928571Y-60810714D01*
X62500000Y-61239285D01*
X62964285Y-61239285D01*
X60971428Y-58639285D02*
X60971428Y-57889285D01*
X61257142Y-57889285D01*
X61328571Y-57925000D01*
X61364285Y-57960714D01*
X61400000Y-58032142D01*
X61400000Y-58139285D01*
X61364285Y-58210714D01*
X61328571Y-58246428D01*
X61257142Y-58282142D01*
X60971428Y-58282142D01*
X62150000Y-58567857D02*
X62114285Y-58603571D01*
X62007142Y-58639285D01*
X61935714Y-58639285D01*
X61828571Y-58603571D01*
X61757142Y-58532142D01*
X61721428Y-58460714D01*
X61685714Y-58317857D01*
X61685714Y-58210714D01*
X61721428Y-58067857D01*
X61757142Y-57996428D01*
X61828571Y-57925000D01*
X61935714Y-57889285D01*
X62007142Y-57889285D01*
X62114285Y-57925000D01*
X62150000Y-57960714D01*
X62864285Y-58639285D02*
X62435714Y-58639285D01*
X62650000Y-58639285D02*
X62650000Y-57889285D01*
X62578571Y-57996428D01*
X62507142Y-58067857D01*
X62435714Y-58103571D01*
X60971428Y-56239285D02*
X60971428Y-55489285D01*
X61257142Y-55489285D01*
X61328571Y-55525000D01*
X61364285Y-55560714D01*
X61400000Y-55632142D01*
X61400000Y-55739285D01*
X61364285Y-55810714D01*
X61328571Y-55846428D01*
X61257142Y-55882142D01*
X60971428Y-55882142D01*
X62150000Y-56167857D02*
X62114285Y-56203571D01*
X62007142Y-56239285D01*
X61935714Y-56239285D01*
X61828571Y-56203571D01*
X61757142Y-56132142D01*
X61721428Y-56060714D01*
X61685714Y-55917857D01*
X61685714Y-55810714D01*
X61721428Y-55667857D01*
X61757142Y-55596428D01*
X61828571Y-55525000D01*
X61935714Y-55489285D01*
X62007142Y-55489285D01*
X62114285Y-55525000D01*
X62150000Y-55560714D01*
X62614285Y-55489285D02*
X62685714Y-55489285D01*
X62757142Y-55525000D01*
X62792857Y-55560714D01*
X62828571Y-55632142D01*
X62864285Y-55775000D01*
X62864285Y-55953571D01*
X62828571Y-56096428D01*
X62792857Y-56167857D01*
X62757142Y-56203571D01*
X62685714Y-56239285D01*
X62614285Y-56239285D01*
X62542857Y-56203571D01*
X62507142Y-56167857D01*
X62471428Y-56096428D01*
X62435714Y-55953571D01*
X62435714Y-55775000D01*
X62471428Y-55632142D01*
X62507142Y-55560714D01*
X62542857Y-55525000D01*
X62614285Y-55489285D01*
X61007142Y-53503571D02*
X61114285Y-53539285D01*
X61292857Y-53539285D01*
X61364285Y-53503571D01*
X61400000Y-53467857D01*
X61435714Y-53396428D01*
X61435714Y-53325000D01*
X61400000Y-53253571D01*
X61364285Y-53217857D01*
X61292857Y-53182142D01*
X61150000Y-53146428D01*
X61078571Y-53110714D01*
X61042857Y-53075000D01*
X61007142Y-53003571D01*
X61007142Y-52932142D01*
X61042857Y-52860714D01*
X61078571Y-52825000D01*
X61150000Y-52789285D01*
X61328571Y-52789285D01*
X61435714Y-52825000D01*
X62185714Y-53467857D02*
X62150000Y-53503571D01*
X62042857Y-53539285D01*
X61971428Y-53539285D01*
X61864285Y-53503571D01*
X61792857Y-53432142D01*
X61757142Y-53360714D01*
X61721428Y-53217857D01*
X61721428Y-53110714D01*
X61757142Y-52967857D01*
X61792857Y-52896428D01*
X61864285Y-52825000D01*
X61971428Y-52789285D01*
X62042857Y-52789285D01*
X62150000Y-52825000D01*
X62185714Y-52860714D01*
X62864285Y-53539285D02*
X62507142Y-53539285D01*
X62507142Y-52789285D01*
X60989285Y-51003571D02*
X61096428Y-51039285D01*
X61275000Y-51039285D01*
X61346428Y-51003571D01*
X61382142Y-50967857D01*
X61417857Y-50896428D01*
X61417857Y-50825000D01*
X61382142Y-50753571D01*
X61346428Y-50717857D01*
X61275000Y-50682142D01*
X61132142Y-50646428D01*
X61060714Y-50610714D01*
X61025000Y-50575000D01*
X60989285Y-50503571D01*
X60989285Y-50432142D01*
X61025000Y-50360714D01*
X61060714Y-50325000D01*
X61132142Y-50289285D01*
X61310714Y-50289285D01*
X61417857Y-50325000D01*
X61739285Y-51039285D02*
X61739285Y-50289285D01*
X61917857Y-50289285D01*
X62025000Y-50325000D01*
X62096428Y-50396428D01*
X62132142Y-50467857D01*
X62167857Y-50610714D01*
X62167857Y-50717857D01*
X62132142Y-50860714D01*
X62096428Y-50932142D01*
X62025000Y-51003571D01*
X61917857Y-51039285D01*
X61739285Y-51039285D01*
X62453571Y-50825000D02*
X62810714Y-50825000D01*
X62382142Y-51039285D02*
X62632142Y-50289285D01*
X62882142Y-51039285D01*
X61328571Y-47925000D02*
X61257142Y-47889285D01*
X61150000Y-47889285D01*
X61042857Y-47925000D01*
X60971428Y-47996428D01*
X60935714Y-48067857D01*
X60900000Y-48210714D01*
X60900000Y-48317857D01*
X60935714Y-48460714D01*
X60971428Y-48532142D01*
X61042857Y-48603571D01*
X61150000Y-48639285D01*
X61221428Y-48639285D01*
X61328571Y-48603571D01*
X61364285Y-48567857D01*
X61364285Y-48317857D01*
X61221428Y-48317857D01*
X61685714Y-48639285D02*
X61685714Y-47889285D01*
X62114285Y-48639285D01*
X62114285Y-47889285D01*
X62471428Y-48639285D02*
X62471428Y-47889285D01*
X62650000Y-47889285D01*
X62757142Y-47925000D01*
X62828571Y-47996428D01*
X62864285Y-48067857D01*
X62900000Y-48210714D01*
X62900000Y-48317857D01*
X62864285Y-48460714D01*
X62828571Y-48532142D01*
X62757142Y-48603571D01*
X62650000Y-48639285D01*
X62471428Y-48639285D01*
X68425000Y-73389285D02*
X68889285Y-73389285D01*
X68639285Y-73675000D01*
X68746428Y-73675000D01*
X68817857Y-73710714D01*
X68853571Y-73746428D01*
X68889285Y-73817857D01*
X68889285Y-73996428D01*
X68853571Y-74067857D01*
X68817857Y-74103571D01*
X68746428Y-74139285D01*
X68532142Y-74139285D01*
X68460714Y-74103571D01*
X68425000Y-74067857D01*
X69139285Y-73389285D02*
X69603571Y-73389285D01*
X69353571Y-73675000D01*
X69460714Y-73675000D01*
X69532142Y-73710714D01*
X69567857Y-73746428D01*
X69603571Y-73817857D01*
X69603571Y-73996428D01*
X69567857Y-74067857D01*
X69532142Y-74103571D01*
X69460714Y-74139285D01*
X69246428Y-74139285D01*
X69175000Y-74103571D01*
X69139285Y-74067857D01*
X70067857Y-73389285D02*
X70139285Y-73389285D01*
X70210714Y-73425000D01*
X70246428Y-73460714D01*
X70282142Y-73532142D01*
X70317857Y-73675000D01*
X70317857Y-73853571D01*
X70282142Y-73996428D01*
X70246428Y-74067857D01*
X70210714Y-74103571D01*
X70139285Y-74139285D01*
X70067857Y-74139285D01*
X69996428Y-74103571D01*
X69960714Y-74067857D01*
X69925000Y-73996428D01*
X69889285Y-73853571D01*
X69889285Y-73675000D01*
X69925000Y-73532142D01*
X69960714Y-73460714D01*
X69996428Y-73425000D01*
X70067857Y-73389285D01*
X70603571Y-73460714D02*
X70639285Y-73425000D01*
X70710714Y-73389285D01*
X70889285Y-73389285D01*
X70960714Y-73425000D01*
X70996428Y-73460714D01*
X71032142Y-73532142D01*
X71032142Y-73603571D01*
X70996428Y-73710714D01*
X70567857Y-74139285D01*
X71032142Y-74139285D01*
X71353571Y-73746428D02*
X71603571Y-73746428D01*
X71710714Y-74139285D02*
X71353571Y-74139285D01*
X71353571Y-73389285D01*
X71710714Y-73389285D01*
X72032142Y-73853571D02*
X72603571Y-73853571D01*
X73389285Y-74067857D02*
X73353571Y-74103571D01*
X73246428Y-74139285D01*
X73175000Y-74139285D01*
X73067857Y-74103571D01*
X72996428Y-74032142D01*
X72960714Y-73960714D01*
X72925000Y-73817857D01*
X72925000Y-73710714D01*
X72960714Y-73567857D01*
X72996428Y-73496428D01*
X73067857Y-73425000D01*
X73175000Y-73389285D01*
X73246428Y-73389285D01*
X73353571Y-73425000D01*
X73389285Y-73460714D01*
X73960714Y-73746428D02*
X74067857Y-73782142D01*
X74103571Y-73817857D01*
X74139285Y-73889285D01*
X74139285Y-73996428D01*
X74103571Y-74067857D01*
X74067857Y-74103571D01*
X73996428Y-74139285D01*
X73710714Y-74139285D01*
X73710714Y-73389285D01*
X73960714Y-73389285D01*
X74032142Y-73425000D01*
X74067857Y-73460714D01*
X74103571Y-73532142D01*
X74103571Y-73603571D01*
X74067857Y-73675000D01*
X74032142Y-73710714D01*
X73960714Y-73746428D01*
X73710714Y-73746428D01*
X60464285Y-42796428D02*
X60421428Y-42839285D01*
X60292857Y-42882142D01*
X60207142Y-42882142D01*
X60078571Y-42839285D01*
X59992857Y-42753571D01*
X59950000Y-42667857D01*
X59907142Y-42496428D01*
X59907142Y-42367857D01*
X59950000Y-42196428D01*
X59992857Y-42110714D01*
X60078571Y-42025000D01*
X60207142Y-41982142D01*
X60292857Y-41982142D01*
X60421428Y-42025000D01*
X60464285Y-42067857D01*
X61021428Y-41982142D02*
X61192857Y-41982142D01*
X61278571Y-42025000D01*
X61364285Y-42110714D01*
X61407142Y-42282142D01*
X61407142Y-42582142D01*
X61364285Y-42753571D01*
X61278571Y-42839285D01*
X61192857Y-42882142D01*
X61021428Y-42882142D01*
X60935714Y-42839285D01*
X60850000Y-42753571D01*
X60807142Y-42582142D01*
X60807142Y-42282142D01*
X60850000Y-42110714D01*
X60935714Y-42025000D01*
X61021428Y-41982142D01*
X61750000Y-42067857D02*
X61792857Y-42025000D01*
X61878571Y-41982142D01*
X62092857Y-41982142D01*
X62178571Y-42025000D01*
X62221428Y-42067857D01*
X62264285Y-42153571D01*
X62264285Y-42239285D01*
X62221428Y-42367857D01*
X61707142Y-42882142D01*
X62264285Y-42882142D01*
X62650000Y-42539285D02*
X63335714Y-42539285D01*
X63721428Y-42839285D02*
X63850000Y-42882142D01*
X64064285Y-42882142D01*
X64150000Y-42839285D01*
X64192857Y-42796428D01*
X64235714Y-42710714D01*
X64235714Y-42625000D01*
X64192857Y-42539285D01*
X64150000Y-42496428D01*
X64064285Y-42453571D01*
X63892857Y-42410714D01*
X63807142Y-42367857D01*
X63764285Y-42325000D01*
X63721428Y-42239285D01*
X63721428Y-42153571D01*
X63764285Y-42067857D01*
X63807142Y-42025000D01*
X63892857Y-41982142D01*
X64107142Y-41982142D01*
X64235714Y-42025000D01*
X64964285Y-42839285D02*
X64878571Y-42882142D01*
X64707142Y-42882142D01*
X64621428Y-42839285D01*
X64578571Y-42753571D01*
X64578571Y-42410714D01*
X64621428Y-42325000D01*
X64707142Y-42282142D01*
X64878571Y-42282142D01*
X64964285Y-42325000D01*
X65007142Y-42410714D01*
X65007142Y-42496428D01*
X64578571Y-42582142D01*
X65392857Y-42282142D02*
X65392857Y-42882142D01*
X65392857Y-42367857D02*
X65435714Y-42325000D01*
X65521428Y-42282142D01*
X65650000Y-42282142D01*
X65735714Y-42325000D01*
X65778571Y-42410714D01*
X65778571Y-42882142D01*
X66164285Y-42839285D02*
X66250000Y-42882142D01*
X66421428Y-42882142D01*
X66507142Y-42839285D01*
X66550000Y-42753571D01*
X66550000Y-42710714D01*
X66507142Y-42625000D01*
X66421428Y-42582142D01*
X66292857Y-42582142D01*
X66207142Y-42539285D01*
X66164285Y-42453571D01*
X66164285Y-42410714D01*
X66207142Y-42325000D01*
X66292857Y-42282142D01*
X66421428Y-42282142D01*
X66507142Y-42325000D01*
X67064285Y-42882142D02*
X66978571Y-42839285D01*
X66935714Y-42796428D01*
X66892857Y-42710714D01*
X66892857Y-42453571D01*
X66935714Y-42367857D01*
X66978571Y-42325000D01*
X67064285Y-42282142D01*
X67192857Y-42282142D01*
X67278571Y-42325000D01*
X67321428Y-42367857D01*
X67364285Y-42453571D01*
X67364285Y-42710714D01*
X67321428Y-42796428D01*
X67278571Y-42839285D01*
X67192857Y-42882142D01*
X67064285Y-42882142D01*
X67750000Y-42882142D02*
X67750000Y-42282142D01*
X67750000Y-42453571D02*
X67792857Y-42367857D01*
X67835714Y-42325000D01*
X67921428Y-42282142D01*
X68007142Y-42282142D01*
X68992857Y-42882142D02*
X68992857Y-41982142D01*
X69292857Y-42625000D01*
X69592857Y-41982142D01*
X69592857Y-42882142D01*
X70021428Y-42882142D02*
X70021428Y-41982142D01*
X70021428Y-42410714D02*
X70535714Y-42410714D01*
X70535714Y-42882142D02*
X70535714Y-41982142D01*
X70964285Y-42539285D02*
X71650000Y-42539285D01*
X71992857Y-41982142D02*
X72592857Y-41982142D01*
X71992857Y-42882142D01*
X72592857Y-42882142D01*
X73407142Y-42882142D02*
X72892857Y-42882142D01*
X73150000Y-42882142D02*
X73150000Y-41982142D01*
X73064285Y-42110714D01*
X72978571Y-42196428D01*
X72892857Y-42239285D01*
X73835714Y-42882142D02*
X74007142Y-42882142D01*
X74092857Y-42839285D01*
X74135714Y-42796428D01*
X74221428Y-42667857D01*
X74264285Y-42496428D01*
X74264285Y-42153571D01*
X74221428Y-42067857D01*
X74178571Y-42025000D01*
X74092857Y-41982142D01*
X73921428Y-41982142D01*
X73835714Y-42025000D01*
X73792857Y-42067857D01*
X73750000Y-42153571D01*
X73750000Y-42367857D01*
X73792857Y-42453571D01*
X73835714Y-42496428D01*
X73921428Y-42539285D01*
X74092857Y-42539285D01*
X74178571Y-42496428D01*
X74221428Y-42453571D01*
X74264285Y-42367857D01*
X75292857Y-42625000D02*
X75721428Y-42625000D01*
X75207142Y-42882142D02*
X75507142Y-41982142D01*
X75807142Y-42882142D01*
X76492857Y-42882142D02*
X76492857Y-41982142D01*
X76492857Y-42839285D02*
X76407142Y-42882142D01*
X76235714Y-42882142D01*
X76150000Y-42839285D01*
X76107142Y-42796428D01*
X76064285Y-42710714D01*
X76064285Y-42453571D01*
X76107142Y-42367857D01*
X76150000Y-42325000D01*
X76235714Y-42282142D01*
X76407142Y-42282142D01*
X76492857Y-42325000D01*
X77307142Y-42882142D02*
X77307142Y-41982142D01*
X77307142Y-42839285D02*
X77221428Y-42882142D01*
X77050000Y-42882142D01*
X76964285Y-42839285D01*
X76921428Y-42796428D01*
X76878571Y-42710714D01*
X76878571Y-42453571D01*
X76921428Y-42367857D01*
X76964285Y-42325000D01*
X77050000Y-42282142D01*
X77221428Y-42282142D01*
X77307142Y-42325000D01*
X77864285Y-42882142D02*
X77778571Y-42839285D01*
X77735714Y-42796428D01*
X77692857Y-42710714D01*
X77692857Y-42453571D01*
X77735714Y-42367857D01*
X77778571Y-42325000D01*
X77864285Y-42282142D01*
X77992857Y-42282142D01*
X78078571Y-42325000D01*
X78121428Y-42367857D01*
X78164285Y-42453571D01*
X78164285Y-42710714D01*
X78121428Y-42796428D01*
X78078571Y-42839285D01*
X77992857Y-42882142D01*
X77864285Y-42882142D01*
X78550000Y-42282142D02*
X78550000Y-42882142D01*
X78550000Y-42367857D02*
X78592857Y-42325000D01*
X78678571Y-42282142D01*
X78807142Y-42282142D01*
X78892857Y-42325000D01*
X78935714Y-42410714D01*
X78935714Y-42882142D01*
X79964285Y-42282142D02*
X80178571Y-42882142D01*
X80392857Y-42282142D01*
X80907142Y-41982142D02*
X80992857Y-41982142D01*
X81078571Y-42025000D01*
X81121428Y-42067857D01*
X81164285Y-42153571D01*
X81207142Y-42325000D01*
X81207142Y-42539285D01*
X81164285Y-42710714D01*
X81121428Y-42796428D01*
X81078571Y-42839285D01*
X80992857Y-42882142D01*
X80907142Y-42882142D01*
X80821428Y-42839285D01*
X80778571Y-42796428D01*
X80735714Y-42710714D01*
X80692857Y-42539285D01*
X80692857Y-42325000D01*
X80735714Y-42153571D01*
X80778571Y-42067857D01*
X80821428Y-42025000D01*
X80907142Y-41982142D01*
X81592857Y-42796428D02*
X81635714Y-42839285D01*
X81592857Y-42882142D01*
X81550000Y-42839285D01*
X81592857Y-42796428D01*
X81592857Y-42882142D01*
X82492857Y-42882142D02*
X81978571Y-42882142D01*
X82235714Y-42882142D02*
X82235714Y-41982142D01*
X82150000Y-42110714D01*
X82064285Y-42196428D01*
X81978571Y-42239285D01*
X67942857Y-44332142D02*
X67942857Y-43860714D01*
X67900000Y-43775000D01*
X67814285Y-43732142D01*
X67642857Y-43732142D01*
X67557142Y-43775000D01*
X67942857Y-44289285D02*
X67857142Y-44332142D01*
X67642857Y-44332142D01*
X67557142Y-44289285D01*
X67514285Y-44203571D01*
X67514285Y-44117857D01*
X67557142Y-44032142D01*
X67642857Y-43989285D01*
X67857142Y-43989285D01*
X67942857Y-43946428D01*
X68242857Y-43732142D02*
X68585714Y-43732142D01*
X68371428Y-43432142D02*
X68371428Y-44203571D01*
X68414285Y-44289285D01*
X68500000Y-44332142D01*
X68585714Y-44332142D01*
X68757142Y-43732142D02*
X69100000Y-43732142D01*
X68885714Y-43432142D02*
X68885714Y-44203571D01*
X68928571Y-44289285D01*
X69014285Y-44332142D01*
X69100000Y-44332142D01*
X69400000Y-43732142D02*
X69400000Y-44332142D01*
X69400000Y-43817857D02*
X69442857Y-43775000D01*
X69528571Y-43732142D01*
X69657142Y-43732142D01*
X69742857Y-43775000D01*
X69785714Y-43860714D01*
X69785714Y-44332142D01*
X70342857Y-44332142D02*
X70257142Y-44289285D01*
X70214285Y-44246428D01*
X70171428Y-44160714D01*
X70171428Y-43903571D01*
X70214285Y-43817857D01*
X70257142Y-43775000D01*
X70342857Y-43732142D01*
X70471428Y-43732142D01*
X70557142Y-43775000D01*
X70600000Y-43817857D01*
X70642857Y-43903571D01*
X70642857Y-44160714D01*
X70600000Y-44246428D01*
X70557142Y-44289285D01*
X70471428Y-44332142D01*
X70342857Y-44332142D01*
X71028571Y-44246428D02*
X71071428Y-44289285D01*
X71028571Y-44332142D01*
X70985714Y-44289285D01*
X71028571Y-44246428D01*
X71028571Y-44332142D01*
X71842857Y-44332142D02*
X71842857Y-43432142D01*
X71842857Y-44289285D02*
X71757142Y-44332142D01*
X71585714Y-44332142D01*
X71500000Y-44289285D01*
X71457142Y-44246428D01*
X71414285Y-44160714D01*
X71414285Y-43903571D01*
X71457142Y-43817857D01*
X71500000Y-43775000D01*
X71585714Y-43732142D01*
X71757142Y-43732142D01*
X71842857Y-43775000D01*
X72614285Y-44289285D02*
X72528571Y-44332142D01*
X72357142Y-44332142D01*
X72271428Y-44289285D01*
X72228571Y-44203571D01*
X72228571Y-43860714D01*
X72271428Y-43775000D01*
X72357142Y-43732142D01*
X72528571Y-43732142D01*
X72614285Y-43775000D01*
X72657142Y-43860714D01*
X72657142Y-43946428D01*
X72228571Y-44032142D01*
X73642857Y-43732142D02*
X73857142Y-44332142D01*
X74071428Y-43732142D01*
X74328571Y-43432142D02*
X74885714Y-43432142D01*
X74585714Y-43775000D01*
X74714285Y-43775000D01*
X74800000Y-43817857D01*
X74842857Y-43860714D01*
X74885714Y-43946428D01*
X74885714Y-44160714D01*
X74842857Y-44246428D01*
X74800000Y-44289285D01*
X74714285Y-44332142D01*
X74457142Y-44332142D01*
X74371428Y-44289285D01*
X74328571Y-44246428D01*
D13*
%TO.C,G\u002A\u002A\u002A*%
G36*
X73538947Y-62237895D02*
G01*
X73405263Y-62371579D01*
X73271578Y-62237895D01*
X73405263Y-62104210D01*
X73538947Y-62237895D01*
G37*
X73538947Y-62237895D02*
X73405263Y-62371579D01*
X73271578Y-62237895D01*
X73405263Y-62104210D01*
X73538947Y-62237895D01*
G36*
X75489816Y-55904021D02*
G01*
X75834735Y-56397200D01*
X75849882Y-56887121D01*
X75488167Y-57219100D01*
X74950260Y-57262596D01*
X74509036Y-57016950D01*
X74437740Y-56890526D01*
X74405379Y-56489474D01*
X74742105Y-56489474D01*
X74802717Y-56718368D01*
X74993694Y-56756842D01*
X75359511Y-56617249D01*
X75410526Y-56489474D01*
X75218628Y-56229758D01*
X75158937Y-56222105D01*
X74796830Y-56416455D01*
X74742105Y-56489474D01*
X74405379Y-56489474D01*
X74388838Y-56284483D01*
X74640900Y-55816745D01*
X74968344Y-55687368D01*
X75489816Y-55904021D01*
G37*
X75489816Y-55904021D02*
X75834735Y-56397200D01*
X75849882Y-56887121D01*
X75488167Y-57219100D01*
X74950260Y-57262596D01*
X74509036Y-57016950D01*
X74437740Y-56890526D01*
X74405379Y-56489474D01*
X74742105Y-56489474D01*
X74802717Y-56718368D01*
X74993694Y-56756842D01*
X75359511Y-56617249D01*
X75410526Y-56489474D01*
X75218628Y-56229758D01*
X75158937Y-56222105D01*
X74796830Y-56416455D01*
X74742105Y-56489474D01*
X74405379Y-56489474D01*
X74388838Y-56284483D01*
X74640900Y-55816745D01*
X74968344Y-55687368D01*
X75489816Y-55904021D01*
G36*
X72897215Y-55835379D02*
G01*
X72921708Y-55850192D01*
X73358071Y-56326279D01*
X73361382Y-56827285D01*
X72958773Y-57179991D01*
X72704155Y-57239200D01*
X72087950Y-57165554D01*
X71853572Y-56930978D01*
X71876776Y-56489474D01*
X72202105Y-56489474D01*
X72418662Y-56726677D01*
X72603157Y-56756842D01*
X72958963Y-56612471D01*
X73004210Y-56489474D01*
X72787653Y-56252270D01*
X72603157Y-56222105D01*
X72247352Y-56366476D01*
X72202105Y-56489474D01*
X71876776Y-56489474D01*
X71880169Y-56424917D01*
X72071125Y-56047567D01*
X72453407Y-55714962D01*
X72897215Y-55835379D01*
G37*
X72897215Y-55835379D02*
X72921708Y-55850192D01*
X73358071Y-56326279D01*
X73361382Y-56827285D01*
X72958773Y-57179991D01*
X72704155Y-57239200D01*
X72087950Y-57165554D01*
X71853572Y-56930978D01*
X71876776Y-56489474D01*
X72202105Y-56489474D01*
X72418662Y-56726677D01*
X72603157Y-56756842D01*
X72958963Y-56612471D01*
X73004210Y-56489474D01*
X72787653Y-56252270D01*
X72603157Y-56222105D01*
X72247352Y-56366476D01*
X72202105Y-56489474D01*
X71876776Y-56489474D01*
X71880169Y-56424917D01*
X72071125Y-56047567D01*
X72453407Y-55714962D01*
X72897215Y-55835379D01*
G36*
X70701063Y-55912601D02*
G01*
X70995118Y-56423693D01*
X70974954Y-56856638D01*
X70604136Y-57204017D01*
X70041508Y-57269198D01*
X69549473Y-57052180D01*
X69418729Y-56856638D01*
X69431962Y-56489474D01*
X69795789Y-56489474D01*
X70012346Y-56726677D01*
X70196842Y-56756842D01*
X70552647Y-56612471D01*
X70597894Y-56489474D01*
X70381337Y-56252270D01*
X70196842Y-56222105D01*
X69841036Y-56366476D01*
X69795789Y-56489474D01*
X69431962Y-56489474D01*
X69439019Y-56293687D01*
X69795981Y-55826495D01*
X70196842Y-55687368D01*
X70701063Y-55912601D01*
G37*
X70701063Y-55912601D02*
X70995118Y-56423693D01*
X70974954Y-56856638D01*
X70604136Y-57204017D01*
X70041508Y-57269198D01*
X69549473Y-57052180D01*
X69418729Y-56856638D01*
X69431962Y-56489474D01*
X69795789Y-56489474D01*
X70012346Y-56726677D01*
X70196842Y-56756842D01*
X70552647Y-56612471D01*
X70597894Y-56489474D01*
X70381337Y-56252270D01*
X70196842Y-56222105D01*
X69841036Y-56366476D01*
X69795789Y-56489474D01*
X69431962Y-56489474D01*
X69439019Y-56293687D01*
X69795981Y-55826495D01*
X70196842Y-55687368D01*
X70701063Y-55912601D01*
G36*
X68203029Y-55883077D02*
G01*
X68420074Y-56359605D01*
X68410857Y-56555120D01*
X68147711Y-57037592D01*
X67668734Y-57260802D01*
X67185723Y-57176385D01*
X66950664Y-56888546D01*
X66976818Y-56489474D01*
X67389473Y-56489474D01*
X67606030Y-56726677D01*
X67790526Y-56756842D01*
X68146331Y-56612471D01*
X68191578Y-56489474D01*
X67975021Y-56252270D01*
X67790526Y-56222105D01*
X67434720Y-56366476D01*
X67389473Y-56489474D01*
X66976818Y-56489474D01*
X66985435Y-56357998D01*
X67198496Y-56031128D01*
X67737336Y-55748300D01*
X68203029Y-55883077D01*
G37*
X68203029Y-55883077D02*
X68420074Y-56359605D01*
X68410857Y-56555120D01*
X68147711Y-57037592D01*
X67668734Y-57260802D01*
X67185723Y-57176385D01*
X66950664Y-56888546D01*
X66976818Y-56489474D01*
X67389473Y-56489474D01*
X67606030Y-56726677D01*
X67790526Y-56756842D01*
X68146331Y-56612471D01*
X68191578Y-56489474D01*
X67975021Y-56252270D01*
X67790526Y-56222105D01*
X67434720Y-56366476D01*
X67389473Y-56489474D01*
X66976818Y-56489474D01*
X66985435Y-56357998D01*
X67198496Y-56031128D01*
X67737336Y-55748300D01*
X68203029Y-55883077D01*
G36*
X76212631Y-63173684D02*
G01*
X66854736Y-63173684D01*
X66854736Y-62356710D01*
X69554860Y-62356710D01*
X69759023Y-62586836D01*
X70330526Y-62638947D01*
X70950807Y-62532284D01*
X71163086Y-62178869D01*
X71163646Y-62171053D01*
X71200992Y-61841536D01*
X71279914Y-62031401D01*
X71316935Y-62171053D01*
X71537174Y-62567551D01*
X71686972Y-62638947D01*
X71912231Y-62416940D01*
X71965751Y-62171053D01*
X72003097Y-61841536D01*
X72082019Y-62031401D01*
X72119040Y-62171053D01*
X72423883Y-62442669D01*
X73061629Y-62615200D01*
X73868428Y-62686887D01*
X74680431Y-62655969D01*
X75333785Y-62520685D01*
X75664641Y-62279275D01*
X75677894Y-62209289D01*
X75513499Y-61905706D01*
X75276842Y-61933530D01*
X74932945Y-61931665D01*
X74875789Y-61812671D01*
X74710910Y-61662077D01*
X74604059Y-61705853D01*
X74440408Y-62011510D01*
X74471649Y-62099214D01*
X74383308Y-62245726D01*
X74141799Y-62234880D01*
X73744973Y-62133411D01*
X73672631Y-62090545D01*
X73417938Y-61992766D01*
X72698922Y-61853099D01*
X71583184Y-61684476D01*
X71464366Y-61668150D01*
X70761864Y-61595906D01*
X70465191Y-61664674D01*
X70454782Y-61915944D01*
X70481922Y-62009049D01*
X70578183Y-62351758D01*
X70473073Y-62242986D01*
X70319476Y-62005290D01*
X70034113Y-61680679D01*
X69804853Y-61817081D01*
X69768646Y-61871606D01*
X69554860Y-62356710D01*
X66854736Y-62356710D01*
X66854736Y-57826316D01*
X76212631Y-57826316D01*
X76212631Y-63173684D01*
G37*
X76212631Y-63173684D02*
X66854736Y-63173684D01*
X66854736Y-62356710D01*
X69554860Y-62356710D01*
X69759023Y-62586836D01*
X70330526Y-62638947D01*
X70950807Y-62532284D01*
X71163086Y-62178869D01*
X71163646Y-62171053D01*
X71200992Y-61841536D01*
X71279914Y-62031401D01*
X71316935Y-62171053D01*
X71537174Y-62567551D01*
X71686972Y-62638947D01*
X71912231Y-62416940D01*
X71965751Y-62171053D01*
X72003097Y-61841536D01*
X72082019Y-62031401D01*
X72119040Y-62171053D01*
X72423883Y-62442669D01*
X73061629Y-62615200D01*
X73868428Y-62686887D01*
X74680431Y-62655969D01*
X75333785Y-62520685D01*
X75664641Y-62279275D01*
X75677894Y-62209289D01*
X75513499Y-61905706D01*
X75276842Y-61933530D01*
X74932945Y-61931665D01*
X74875789Y-61812671D01*
X74710910Y-61662077D01*
X74604059Y-61705853D01*
X74440408Y-62011510D01*
X74471649Y-62099214D01*
X74383308Y-62245726D01*
X74141799Y-62234880D01*
X73744973Y-62133411D01*
X73672631Y-62090545D01*
X73417938Y-61992766D01*
X72698922Y-61853099D01*
X71583184Y-61684476D01*
X71464366Y-61668150D01*
X70761864Y-61595906D01*
X70465191Y-61664674D01*
X70454782Y-61915944D01*
X70481922Y-62009049D01*
X70578183Y-62351758D01*
X70473073Y-62242986D01*
X70319476Y-62005290D01*
X70034113Y-61680679D01*
X69804853Y-61817081D01*
X69768646Y-61871606D01*
X69554860Y-62356710D01*
X66854736Y-62356710D01*
X66854736Y-57826316D01*
X76212631Y-57826316D01*
X76212631Y-63173684D01*
G36*
X75689104Y-63908880D02*
G01*
X75885854Y-64383973D01*
X75675068Y-64914984D01*
X75160298Y-65270967D01*
X74672011Y-65212338D01*
X74437740Y-64911579D01*
X74405955Y-64423658D01*
X74721753Y-64423658D01*
X74935729Y-64714069D01*
X75158937Y-64777895D01*
X75405698Y-64598505D01*
X75410526Y-64555088D01*
X75236112Y-64167614D01*
X74874060Y-64113807D01*
X74834135Y-64135217D01*
X74721753Y-64423658D01*
X74405955Y-64423658D01*
X74395131Y-64257507D01*
X74740792Y-63809889D01*
X75143157Y-63708421D01*
X75689104Y-63908880D01*
G37*
X75689104Y-63908880D02*
X75885854Y-64383973D01*
X75675068Y-64914984D01*
X75160298Y-65270967D01*
X74672011Y-65212338D01*
X74437740Y-64911579D01*
X74405955Y-64423658D01*
X74721753Y-64423658D01*
X74935729Y-64714069D01*
X75158937Y-64777895D01*
X75405698Y-64598505D01*
X75410526Y-64555088D01*
X75236112Y-64167614D01*
X74874060Y-64113807D01*
X74834135Y-64135217D01*
X74721753Y-64423658D01*
X74405955Y-64423658D01*
X74395131Y-64257507D01*
X74740792Y-63809889D01*
X75143157Y-63708421D01*
X75689104Y-63908880D01*
G36*
X73230489Y-63920844D02*
G01*
X73423085Y-64406185D01*
X73250749Y-64936547D01*
X73243454Y-64945467D01*
X72708609Y-65288602D01*
X72189363Y-65123462D01*
X71956657Y-64818854D01*
X71912481Y-64490474D01*
X72253350Y-64490474D01*
X72382414Y-64734271D01*
X72603157Y-64777895D01*
X72935916Y-64642232D01*
X72952964Y-64490474D01*
X72676938Y-64214239D01*
X72603157Y-64203053D01*
X72289659Y-64411204D01*
X72253350Y-64490474D01*
X71912481Y-64490474D01*
X71879001Y-64241610D01*
X72234794Y-63828056D01*
X72761710Y-63708421D01*
X73230489Y-63920844D01*
G37*
X73230489Y-63920844D02*
X73423085Y-64406185D01*
X73250749Y-64936547D01*
X73243454Y-64945467D01*
X72708609Y-65288602D01*
X72189363Y-65123462D01*
X71956657Y-64818854D01*
X71912481Y-64490474D01*
X72253350Y-64490474D01*
X72382414Y-64734271D01*
X72603157Y-64777895D01*
X72935916Y-64642232D01*
X72952964Y-64490474D01*
X72676938Y-64214239D01*
X72603157Y-64203053D01*
X72289659Y-64411204D01*
X72253350Y-64490474D01*
X71912481Y-64490474D01*
X71879001Y-64241610D01*
X72234794Y-63828056D01*
X72761710Y-63708421D01*
X73230489Y-63920844D01*
G36*
X70745282Y-63877959D02*
G01*
X70974954Y-64143362D01*
X70954664Y-64706313D01*
X70597702Y-65173505D01*
X70196842Y-65312632D01*
X69749755Y-65125796D01*
X69556545Y-64945467D01*
X69400177Y-64490474D01*
X69847035Y-64490474D01*
X69976099Y-64734271D01*
X70196842Y-64777895D01*
X70529601Y-64642232D01*
X70546649Y-64490474D01*
X70270622Y-64214239D01*
X70196842Y-64203053D01*
X69883343Y-64411204D01*
X69847035Y-64490474D01*
X69400177Y-64490474D01*
X69368113Y-64397179D01*
X69604145Y-63922080D01*
X70166988Y-63708837D01*
X70196842Y-63708421D01*
X70745282Y-63877959D01*
G37*
X70745282Y-63877959D02*
X70974954Y-64143362D01*
X70954664Y-64706313D01*
X70597702Y-65173505D01*
X70196842Y-65312632D01*
X69749755Y-65125796D01*
X69556545Y-64945467D01*
X69400177Y-64490474D01*
X69847035Y-64490474D01*
X69976099Y-64734271D01*
X70196842Y-64777895D01*
X70529601Y-64642232D01*
X70546649Y-64490474D01*
X70270622Y-64214239D01*
X70196842Y-64203053D01*
X69883343Y-64411204D01*
X69847035Y-64490474D01*
X69400177Y-64490474D01*
X69368113Y-64397179D01*
X69604145Y-63922080D01*
X70166988Y-63708837D01*
X70196842Y-63708421D01*
X70745282Y-63877959D01*
G36*
X68224972Y-63774671D02*
G01*
X68434374Y-64087178D01*
X68458947Y-64510526D01*
X68392696Y-65078657D01*
X68080189Y-65288059D01*
X67656842Y-65312632D01*
X67088711Y-65246381D01*
X66879309Y-64933874D01*
X66854736Y-64510526D01*
X66857074Y-64490474D01*
X67440719Y-64490474D01*
X67569783Y-64734271D01*
X67790526Y-64777895D01*
X68123285Y-64642232D01*
X68140333Y-64490474D01*
X67864307Y-64214239D01*
X67790526Y-64203053D01*
X67477027Y-64411204D01*
X67440719Y-64490474D01*
X66857074Y-64490474D01*
X66920987Y-63942395D01*
X67233494Y-63732994D01*
X67656842Y-63708421D01*
X68224972Y-63774671D01*
G37*
X68224972Y-63774671D02*
X68434374Y-64087178D01*
X68458947Y-64510526D01*
X68392696Y-65078657D01*
X68080189Y-65288059D01*
X67656842Y-65312632D01*
X67088711Y-65246381D01*
X66879309Y-64933874D01*
X66854736Y-64510526D01*
X66857074Y-64490474D01*
X67440719Y-64490474D01*
X67569783Y-64734271D01*
X67790526Y-64777895D01*
X68123285Y-64642232D01*
X68140333Y-64490474D01*
X67864307Y-64214239D01*
X67790526Y-64203053D01*
X67477027Y-64411204D01*
X67440719Y-64490474D01*
X66857074Y-64490474D01*
X66920987Y-63942395D01*
X67233494Y-63732994D01*
X67656842Y-63708421D01*
X68224972Y-63774671D01*
D14*
%TO.C,C1*%
X76190000Y-71111252D02*
X76190000Y-69688748D01*
X78010000Y-71111252D02*
X78010000Y-69688748D01*
%TO.C,C2*%
X64490000Y-69588748D02*
X64490000Y-71011252D01*
X66310000Y-69588748D02*
X66310000Y-71011252D01*
%TO.C,D1*%
X65265000Y-51000000D02*
X65265000Y-55060000D01*
X65265000Y-55060000D02*
X67535000Y-55060000D01*
X67535000Y-55060000D02*
X67535000Y-51000000D01*
%TO.C,J1*%
X57090000Y-64820000D02*
X59750000Y-64820000D01*
X57090000Y-46980000D02*
X57090000Y-64820000D01*
X59750000Y-46980000D02*
X59750000Y-64820000D01*
X57090000Y-46980000D02*
X59750000Y-46980000D01*
X57090000Y-45710000D02*
X57090000Y-44380000D01*
X57090000Y-44380000D02*
X58420000Y-44380000D01*
%TO.C,J2*%
X82490000Y-44380000D02*
X83820000Y-44380000D01*
X82490000Y-45710000D02*
X82490000Y-44380000D01*
X82490000Y-46980000D02*
X85150000Y-46980000D01*
X85150000Y-46980000D02*
X85150000Y-64820000D01*
X82490000Y-46980000D02*
X82490000Y-64820000D01*
X82490000Y-64820000D02*
X85150000Y-64820000D01*
%TO.C,R1*%
X73627064Y-52210000D02*
X72172936Y-52210000D01*
X73627064Y-50390000D02*
X72172936Y-50390000D01*
D15*
%TO.C,U2*%
X72700000Y-67500000D02*
G75*
G03*
X72700000Y-67500000I-100000J0D01*
G01*
D16*
X72970000Y-70750000D02*
X72970000Y-69250000D01*
X69830000Y-70750000D02*
X70780000Y-70750000D01*
X69830000Y-69250000D02*
X69830000Y-70750000D01*
X72020000Y-70750000D02*
X72970000Y-70750000D01*
%TO.C,J5*%
X80800000Y-78275000D02*
X84400000Y-78275000D01*
X85600000Y-74025000D02*
X85600000Y-76300000D01*
X84800000Y-74025000D02*
X85600000Y-74025000D01*
X79600000Y-74025000D02*
X79600000Y-76300000D01*
X80400000Y-74025000D02*
X79600000Y-74025000D01*
D17*
X80250000Y-73315000D02*
G75*
G03*
X80250000Y-73315000I-100000J0D01*
G01*
%TO.C,J3*%
D10*
X59821428Y-76739285D02*
X59821428Y-75989285D01*
X60071428Y-76525000D01*
X60321428Y-75989285D01*
X60321428Y-76739285D01*
X60607142Y-75989285D02*
X61107142Y-75989285D01*
X60607142Y-76739285D01*
X61107142Y-76739285D01*
X61392857Y-76453571D02*
X61964285Y-76453571D01*
X62321428Y-76739285D02*
X62321428Y-75989285D01*
X62321428Y-76346428D02*
X62750000Y-76346428D01*
X62750000Y-76739285D02*
X62750000Y-75989285D01*
X63500000Y-76739285D02*
X63071428Y-76739285D01*
X63285714Y-76739285D02*
X63285714Y-75989285D01*
X63214285Y-76096428D01*
X63142857Y-76167857D01*
X63071428Y-76203571D01*
X63857142Y-76739285D02*
X64000000Y-76739285D01*
X64071428Y-76703571D01*
X64107142Y-76667857D01*
X64178571Y-76560714D01*
X64214285Y-76417857D01*
X64214285Y-76132142D01*
X64178571Y-76060714D01*
X64142857Y-76025000D01*
X64071428Y-75989285D01*
X63928571Y-75989285D01*
X63857142Y-76025000D01*
X63821428Y-76060714D01*
X63785714Y-76132142D01*
X63785714Y-76310714D01*
X63821428Y-76382142D01*
X63857142Y-76417857D01*
X63928571Y-76453571D01*
X64071428Y-76453571D01*
X64142857Y-76417857D01*
X64178571Y-76382142D01*
X64214285Y-76310714D01*
%TO.C,C1*%
X76975000Y-67467857D02*
X76939285Y-67503571D01*
X76832142Y-67539285D01*
X76760714Y-67539285D01*
X76653571Y-67503571D01*
X76582142Y-67432142D01*
X76546428Y-67360714D01*
X76510714Y-67217857D01*
X76510714Y-67110714D01*
X76546428Y-66967857D01*
X76582142Y-66896428D01*
X76653571Y-66825000D01*
X76760714Y-66789285D01*
X76832142Y-66789285D01*
X76939285Y-66825000D01*
X76975000Y-66860714D01*
X77689285Y-67539285D02*
X77260714Y-67539285D01*
X77475000Y-67539285D02*
X77475000Y-66789285D01*
X77403571Y-66896428D01*
X77332142Y-66967857D01*
X77260714Y-67003571D01*
X76653571Y-73839285D02*
X76225000Y-73839285D01*
X76439285Y-73839285D02*
X76439285Y-73089285D01*
X76367857Y-73196428D01*
X76296428Y-73267857D01*
X76225000Y-73303571D01*
X77296428Y-73339285D02*
X77296428Y-73839285D01*
X76975000Y-73339285D02*
X76975000Y-73732142D01*
X77010714Y-73803571D01*
X77082142Y-73839285D01*
X77189285Y-73839285D01*
X77260714Y-73803571D01*
X77296428Y-73767857D01*
X77903571Y-73446428D02*
X77653571Y-73446428D01*
X77653571Y-73839285D02*
X77653571Y-73089285D01*
X78010714Y-73089285D01*
%TO.C,C2*%
X65275000Y-67367857D02*
X65239285Y-67403571D01*
X65132142Y-67439285D01*
X65060714Y-67439285D01*
X64953571Y-67403571D01*
X64882142Y-67332142D01*
X64846428Y-67260714D01*
X64810714Y-67117857D01*
X64810714Y-67010714D01*
X64846428Y-66867857D01*
X64882142Y-66796428D01*
X64953571Y-66725000D01*
X65060714Y-66689285D01*
X65132142Y-66689285D01*
X65239285Y-66725000D01*
X65275000Y-66760714D01*
X65560714Y-66760714D02*
X65596428Y-66725000D01*
X65667857Y-66689285D01*
X65846428Y-66689285D01*
X65917857Y-66725000D01*
X65953571Y-66760714D01*
X65989285Y-66832142D01*
X65989285Y-66903571D01*
X65953571Y-67010714D01*
X65525000Y-67439285D01*
X65989285Y-67439285D01*
X64953571Y-73839285D02*
X64525000Y-73839285D01*
X64739285Y-73839285D02*
X64739285Y-73089285D01*
X64667857Y-73196428D01*
X64596428Y-73267857D01*
X64525000Y-73303571D01*
X65596428Y-73339285D02*
X65596428Y-73839285D01*
X65275000Y-73339285D02*
X65275000Y-73732142D01*
X65310714Y-73803571D01*
X65382142Y-73839285D01*
X65489285Y-73839285D01*
X65560714Y-73803571D01*
X65596428Y-73767857D01*
X66203571Y-73446428D02*
X65953571Y-73446428D01*
X65953571Y-73839285D02*
X65953571Y-73089285D01*
X66310714Y-73089285D01*
%TO.C,D1*%
X64919285Y-53153571D02*
X64169285Y-53153571D01*
X64169285Y-52975000D01*
X64205000Y-52867857D01*
X64276428Y-52796428D01*
X64347857Y-52760714D01*
X64490714Y-52725000D01*
X64597857Y-52725000D01*
X64740714Y-52760714D01*
X64812142Y-52796428D01*
X64883571Y-52867857D01*
X64919285Y-52975000D01*
X64919285Y-53153571D01*
X64919285Y-52010714D02*
X64919285Y-52439285D01*
X64919285Y-52225000D02*
X64169285Y-52225000D01*
X64276428Y-52296428D01*
X64347857Y-52367857D01*
X64383571Y-52439285D01*
X68559285Y-54207142D02*
X68559285Y-54635714D01*
X68559285Y-54421428D02*
X67809285Y-54421428D01*
X67916428Y-54492857D01*
X67987857Y-54564285D01*
X68023571Y-54635714D01*
X68559285Y-53885714D02*
X67809285Y-53885714D01*
X68559285Y-53457142D01*
X67809285Y-53457142D01*
X68059285Y-52778571D02*
X68559285Y-52778571D01*
X67773571Y-52957142D02*
X68309285Y-53135714D01*
X68309285Y-52671428D01*
X68559285Y-51992857D02*
X68559285Y-52421428D01*
X68559285Y-52207142D02*
X67809285Y-52207142D01*
X67916428Y-52278571D01*
X67987857Y-52350000D01*
X68023571Y-52421428D01*
X68059285Y-51350000D02*
X68559285Y-51350000D01*
X67773571Y-51528571D02*
X68309285Y-51707142D01*
X68309285Y-51242857D01*
X68130714Y-50850000D02*
X68095000Y-50921428D01*
X68059285Y-50957142D01*
X67987857Y-50992857D01*
X67952142Y-50992857D01*
X67880714Y-50957142D01*
X67845000Y-50921428D01*
X67809285Y-50850000D01*
X67809285Y-50707142D01*
X67845000Y-50635714D01*
X67880714Y-50600000D01*
X67952142Y-50564285D01*
X67987857Y-50564285D01*
X68059285Y-50600000D01*
X68095000Y-50635714D01*
X68130714Y-50707142D01*
X68130714Y-50850000D01*
X68166428Y-50921428D01*
X68202142Y-50957142D01*
X68273571Y-50992857D01*
X68416428Y-50992857D01*
X68487857Y-50957142D01*
X68523571Y-50921428D01*
X68559285Y-50850000D01*
X68559285Y-50707142D01*
X68523571Y-50635714D01*
X68487857Y-50600000D01*
X68416428Y-50564285D01*
X68273571Y-50564285D01*
X68202142Y-50600000D01*
X68166428Y-50635714D01*
X68130714Y-50707142D01*
%TO.C,J1*%
D11*
X57352380Y-70742857D02*
X56828571Y-70742857D01*
X56733333Y-70790476D01*
X56685714Y-70885714D01*
X56685714Y-71076190D01*
X56733333Y-71171428D01*
X57304761Y-70742857D02*
X57352380Y-70838095D01*
X57352380Y-71076190D01*
X57304761Y-71171428D01*
X57209523Y-71219047D01*
X57114285Y-71219047D01*
X57019047Y-71171428D01*
X56971428Y-71076190D01*
X56971428Y-70838095D01*
X56923809Y-70742857D01*
X56685714Y-70409523D02*
X56685714Y-70028571D01*
X56352380Y-70266666D02*
X57209523Y-70266666D01*
X57304761Y-70219047D01*
X57352380Y-70123809D01*
X57352380Y-70028571D01*
X56685714Y-69838095D02*
X56685714Y-69457142D01*
X56352380Y-69695238D02*
X57209523Y-69695238D01*
X57304761Y-69647619D01*
X57352380Y-69552380D01*
X57352380Y-69457142D01*
X56685714Y-69123809D02*
X57352380Y-69123809D01*
X56780952Y-69123809D02*
X56733333Y-69076190D01*
X56685714Y-68980952D01*
X56685714Y-68838095D01*
X56733333Y-68742857D01*
X56828571Y-68695238D01*
X57352380Y-68695238D01*
X57352380Y-68076190D02*
X57304761Y-68171428D01*
X57257142Y-68219047D01*
X57161904Y-68266666D01*
X56876190Y-68266666D01*
X56780952Y-68219047D01*
X56733333Y-68171428D01*
X56685714Y-68076190D01*
X56685714Y-67933333D01*
X56733333Y-67838095D01*
X56780952Y-67790476D01*
X56876190Y-67742857D01*
X57161904Y-67742857D01*
X57257142Y-67790476D01*
X57304761Y-67838095D01*
X57352380Y-67933333D01*
X57352380Y-68076190D01*
X57352380Y-66885714D02*
X56352380Y-66885714D01*
X57304761Y-66885714D02*
X57352380Y-66980952D01*
X57352380Y-67171428D01*
X57304761Y-67266666D01*
X57257142Y-67314285D01*
X57161904Y-67361904D01*
X56876190Y-67361904D01*
X56780952Y-67314285D01*
X56733333Y-67266666D01*
X56685714Y-67171428D01*
X56685714Y-66980952D01*
X56733333Y-66885714D01*
X57304761Y-66028571D02*
X57352380Y-66123809D01*
X57352380Y-66314285D01*
X57304761Y-66409523D01*
X57209523Y-66457142D01*
X56828571Y-66457142D01*
X56733333Y-66409523D01*
X56685714Y-66314285D01*
X56685714Y-66123809D01*
X56733333Y-66028571D01*
X56828571Y-65980952D01*
X56923809Y-65980952D01*
X57019047Y-66457142D01*
%TO.C,J2*%
X85252380Y-70242857D02*
X84728571Y-70242857D01*
X84633333Y-70290476D01*
X84585714Y-70385714D01*
X84585714Y-70576190D01*
X84633333Y-70671428D01*
X85204761Y-70242857D02*
X85252380Y-70338095D01*
X85252380Y-70576190D01*
X85204761Y-70671428D01*
X85109523Y-70719047D01*
X85014285Y-70719047D01*
X84919047Y-70671428D01*
X84871428Y-70576190D01*
X84871428Y-70338095D01*
X84823809Y-70242857D01*
X84585714Y-69909523D02*
X84585714Y-69528571D01*
X84252380Y-69766666D02*
X85109523Y-69766666D01*
X85204761Y-69719047D01*
X85252380Y-69623809D01*
X85252380Y-69528571D01*
X84585714Y-69338095D02*
X84585714Y-68957142D01*
X84252380Y-69195238D02*
X85109523Y-69195238D01*
X85204761Y-69147619D01*
X85252380Y-69052380D01*
X85252380Y-68957142D01*
X84585714Y-68623809D02*
X85252380Y-68623809D01*
X84680952Y-68623809D02*
X84633333Y-68576190D01*
X84585714Y-68480952D01*
X84585714Y-68338095D01*
X84633333Y-68242857D01*
X84728571Y-68195238D01*
X85252380Y-68195238D01*
X85252380Y-67576190D02*
X85204761Y-67671428D01*
X85157142Y-67719047D01*
X85061904Y-67766666D01*
X84776190Y-67766666D01*
X84680952Y-67719047D01*
X84633333Y-67671428D01*
X84585714Y-67576190D01*
X84585714Y-67433333D01*
X84633333Y-67338095D01*
X84680952Y-67290476D01*
X84776190Y-67242857D01*
X85061904Y-67242857D01*
X85157142Y-67290476D01*
X85204761Y-67338095D01*
X85252380Y-67433333D01*
X85252380Y-67576190D01*
X85252380Y-66385714D02*
X84252380Y-66385714D01*
X85204761Y-66385714D02*
X85252380Y-66480952D01*
X85252380Y-66671428D01*
X85204761Y-66766666D01*
X85157142Y-66814285D01*
X85061904Y-66861904D01*
X84776190Y-66861904D01*
X84680952Y-66814285D01*
X84633333Y-66766666D01*
X84585714Y-66671428D01*
X84585714Y-66480952D01*
X84633333Y-66385714D01*
X85204761Y-65528571D02*
X85252380Y-65623809D01*
X85252380Y-65814285D01*
X85204761Y-65909523D01*
X85109523Y-65957142D01*
X84728571Y-65957142D01*
X84633333Y-65909523D01*
X84585714Y-65814285D01*
X84585714Y-65623809D01*
X84633333Y-65528571D01*
X84728571Y-65480952D01*
X84823809Y-65480952D01*
X84919047Y-65957142D01*
%TO.C,R1*%
D10*
X71375000Y-53639285D02*
X71125000Y-53282142D01*
X70946428Y-53639285D02*
X70946428Y-52889285D01*
X71232142Y-52889285D01*
X71303571Y-52925000D01*
X71339285Y-52960714D01*
X71375000Y-53032142D01*
X71375000Y-53139285D01*
X71339285Y-53210714D01*
X71303571Y-53246428D01*
X71232142Y-53282142D01*
X70946428Y-53282142D01*
X72089285Y-53639285D02*
X71660714Y-53639285D01*
X71875000Y-53639285D02*
X71875000Y-52889285D01*
X71803571Y-52996428D01*
X71732142Y-53067857D01*
X71660714Y-53103571D01*
X73882142Y-53139285D02*
X73882142Y-53639285D01*
X73703571Y-52853571D02*
X73525000Y-53389285D01*
X73989285Y-53389285D01*
X74275000Y-53639285D02*
X74275000Y-52889285D01*
X74346428Y-53353571D02*
X74560714Y-53639285D01*
X74560714Y-53139285D02*
X74275000Y-53425000D01*
X74810714Y-52889285D02*
X75310714Y-52889285D01*
X74989285Y-53639285D01*
%TO.C,J4*%
X70421428Y-45839285D02*
X70421428Y-45089285D01*
X70671428Y-45625000D01*
X70921428Y-45089285D01*
X70921428Y-45839285D01*
X71207142Y-45089285D02*
X71707142Y-45089285D01*
X71207142Y-45839285D01*
X71707142Y-45839285D01*
X71992857Y-45553571D02*
X72564285Y-45553571D01*
X72921428Y-45839285D02*
X72921428Y-45089285D01*
X72921428Y-45446428D02*
X73350000Y-45446428D01*
X73350000Y-45839285D02*
X73350000Y-45089285D01*
X74100000Y-45839285D02*
X73671428Y-45839285D01*
X73885714Y-45839285D02*
X73885714Y-45089285D01*
X73814285Y-45196428D01*
X73742857Y-45267857D01*
X73671428Y-45303571D01*
X74457142Y-45839285D02*
X74600000Y-45839285D01*
X74671428Y-45803571D01*
X74707142Y-45767857D01*
X74778571Y-45660714D01*
X74814285Y-45517857D01*
X74814285Y-45232142D01*
X74778571Y-45160714D01*
X74742857Y-45125000D01*
X74671428Y-45089285D01*
X74528571Y-45089285D01*
X74457142Y-45125000D01*
X74421428Y-45160714D01*
X74385714Y-45232142D01*
X74385714Y-45410714D01*
X74421428Y-45482142D01*
X74457142Y-45517857D01*
X74528571Y-45553571D01*
X74671428Y-45553571D01*
X74742857Y-45517857D01*
X74778571Y-45482142D01*
X74814285Y-45410714D01*
%TO.C,U2*%
X70828571Y-66689285D02*
X70828571Y-67296428D01*
X70864285Y-67367857D01*
X70900000Y-67403571D01*
X70971428Y-67439285D01*
X71114285Y-67439285D01*
X71185714Y-67403571D01*
X71221428Y-67367857D01*
X71257142Y-67296428D01*
X71257142Y-66689285D01*
X71578571Y-66760714D02*
X71614285Y-66725000D01*
X71685714Y-66689285D01*
X71864285Y-66689285D01*
X71935714Y-66725000D01*
X71971428Y-66760714D01*
X72007142Y-66832142D01*
X72007142Y-66903571D01*
X71971428Y-67010714D01*
X71542857Y-67439285D01*
X72007142Y-67439285D01*
X68685714Y-73039285D02*
X68685714Y-72289285D01*
X68935714Y-72825000D01*
X69185714Y-72289285D01*
X69185714Y-73039285D01*
X69971428Y-72967857D02*
X69935714Y-73003571D01*
X69828571Y-73039285D01*
X69757142Y-73039285D01*
X69650000Y-73003571D01*
X69578571Y-72932142D01*
X69542857Y-72860714D01*
X69507142Y-72717857D01*
X69507142Y-72610714D01*
X69542857Y-72467857D01*
X69578571Y-72396428D01*
X69650000Y-72325000D01*
X69757142Y-72289285D01*
X69828571Y-72289285D01*
X69935714Y-72325000D01*
X69971428Y-72360714D01*
X70292857Y-73039285D02*
X70292857Y-72289285D01*
X70578571Y-72289285D01*
X70650000Y-72325000D01*
X70685714Y-72360714D01*
X70721428Y-72432142D01*
X70721428Y-72539285D01*
X70685714Y-72610714D01*
X70650000Y-72646428D01*
X70578571Y-72682142D01*
X70292857Y-72682142D01*
X71435714Y-73039285D02*
X71007142Y-73039285D01*
X71221428Y-73039285D02*
X71221428Y-72289285D01*
X71150000Y-72396428D01*
X71078571Y-72467857D01*
X71007142Y-72503571D01*
X71685714Y-72289285D02*
X72185714Y-72289285D01*
X71864285Y-73039285D01*
X72614285Y-72289285D02*
X72685714Y-72289285D01*
X72757142Y-72325000D01*
X72792857Y-72360714D01*
X72828571Y-72432142D01*
X72864285Y-72575000D01*
X72864285Y-72753571D01*
X72828571Y-72896428D01*
X72792857Y-72967857D01*
X72757142Y-73003571D01*
X72685714Y-73039285D01*
X72614285Y-73039285D01*
X72542857Y-73003571D01*
X72507142Y-72967857D01*
X72471428Y-72896428D01*
X72435714Y-72753571D01*
X72435714Y-72575000D01*
X72471428Y-72432142D01*
X72507142Y-72360714D01*
X72542857Y-72325000D01*
X72614285Y-72289285D01*
X73114285Y-72289285D02*
X73578571Y-72289285D01*
X73328571Y-72575000D01*
X73435714Y-72575000D01*
X73507142Y-72610714D01*
X73542857Y-72646428D01*
X73578571Y-72717857D01*
X73578571Y-72896428D01*
X73542857Y-72967857D01*
X73507142Y-73003571D01*
X73435714Y-73039285D01*
X73221428Y-73039285D01*
X73150000Y-73003571D01*
X73114285Y-72967857D01*
X73792857Y-72289285D02*
X74221428Y-72289285D01*
X74007142Y-73039285D02*
X74007142Y-72289285D01*
%TO.C,J5*%
X78766666Y-72852380D02*
X78766666Y-73566666D01*
X78719047Y-73709523D01*
X78623809Y-73804761D01*
X78480952Y-73852380D01*
X78385714Y-73852380D01*
X79719047Y-72852380D02*
X79242857Y-72852380D01*
X79195238Y-73328571D01*
X79242857Y-73280952D01*
X79338095Y-73233333D01*
X79576190Y-73233333D01*
X79671428Y-73280952D01*
X79719047Y-73328571D01*
X79766666Y-73423809D01*
X79766666Y-73661904D01*
X79719047Y-73757142D01*
X79671428Y-73804761D01*
X79576190Y-73852380D01*
X79338095Y-73852380D01*
X79242857Y-73804761D01*
X79195238Y-73757142D01*
%TD*%
M02*
