%TF.GenerationSoftware,KiCad,Pcbnew,(5.1.8)-1*%
%TF.CreationDate,2021-02-07T13:37:49+01:00*%
%TF.ProjectId,CO2-PlatineMZ-H19,434f322d-506c-4617-9469-6e654d5a2d48,rev?*%
%TF.SameCoordinates,Original*%
%TF.FileFunction,Paste,Top*%
%TF.FilePolarity,Positive*%
%FSLAX46Y46*%
G04 Gerber Fmt 4.6, Leading zero omitted, Abs format (unit mm)*
G04 Created by KiCad (PCBNEW (5.1.8)-1) date 2021-02-07 13:37:49*
%MOMM*%
%LPD*%
G01*
G04 APERTURE LIST*
%ADD10R,0.600000X1.380000*%
%ADD11R,1.200000X1.800000*%
%ADD12R,0.600000X1.550000*%
G04 APERTURE END LIST*
%TO.C,C1*%
G36*
G01*
X77750003Y-72625000D02*
X76449997Y-72625000D01*
G75*
G02*
X76200000Y-72375003I0J249997D01*
G01*
X76200000Y-71549997D01*
G75*
G02*
X76449997Y-71300000I249997J0D01*
G01*
X77750003Y-71300000D01*
G75*
G02*
X78000000Y-71549997I0J-249997D01*
G01*
X78000000Y-72375003D01*
G75*
G02*
X77750003Y-72625000I-249997J0D01*
G01*
G37*
G36*
G01*
X77750003Y-69500000D02*
X76449997Y-69500000D01*
G75*
G02*
X76200000Y-69250003I0J249997D01*
G01*
X76200000Y-68424997D01*
G75*
G02*
X76449997Y-68175000I249997J0D01*
G01*
X77750003Y-68175000D01*
G75*
G02*
X78000000Y-68424997I0J-249997D01*
G01*
X78000000Y-69250003D01*
G75*
G02*
X77750003Y-69500000I-249997J0D01*
G01*
G37*
%TD*%
%TO.C,C2*%
G36*
G01*
X64749997Y-71200000D02*
X66050003Y-71200000D01*
G75*
G02*
X66300000Y-71449997I0J-249997D01*
G01*
X66300000Y-72275003D01*
G75*
G02*
X66050003Y-72525000I-249997J0D01*
G01*
X64749997Y-72525000D01*
G75*
G02*
X64500000Y-72275003I0J249997D01*
G01*
X64500000Y-71449997D01*
G75*
G02*
X64749997Y-71200000I249997J0D01*
G01*
G37*
G36*
G01*
X64749997Y-68075000D02*
X66050003Y-68075000D01*
G75*
G02*
X66300000Y-68324997I0J-249997D01*
G01*
X66300000Y-69150003D01*
G75*
G02*
X66050003Y-69400000I-249997J0D01*
G01*
X64749997Y-69400000D01*
G75*
G02*
X64500000Y-69150003I0J249997D01*
G01*
X64500000Y-68324997D01*
G75*
G02*
X64749997Y-68075000I249997J0D01*
G01*
G37*
%TD*%
%TO.C,D1*%
G36*
G01*
X67025000Y-54800000D02*
X65775000Y-54800000D01*
G75*
G02*
X65525000Y-54550000I0J250000D01*
G01*
X65525000Y-53625000D01*
G75*
G02*
X65775000Y-53375000I250000J0D01*
G01*
X67025000Y-53375000D01*
G75*
G02*
X67275000Y-53625000I0J-250000D01*
G01*
X67275000Y-54550000D01*
G75*
G02*
X67025000Y-54800000I-250000J0D01*
G01*
G37*
G36*
G01*
X67025000Y-51825000D02*
X65775000Y-51825000D01*
G75*
G02*
X65525000Y-51575000I0J250000D01*
G01*
X65525000Y-50650000D01*
G75*
G02*
X65775000Y-50400000I250000J0D01*
G01*
X67025000Y-50400000D01*
G75*
G02*
X67275000Y-50650000I0J-250000D01*
G01*
X67275000Y-51575000D01*
G75*
G02*
X67025000Y-51825000I-250000J0D01*
G01*
G37*
%TD*%
%TO.C,R1*%
G36*
G01*
X75100000Y-50674999D02*
X75100000Y-51925001D01*
G75*
G02*
X74850001Y-52175000I-249999J0D01*
G01*
X74049999Y-52175000D01*
G75*
G02*
X73800000Y-51925001I0J249999D01*
G01*
X73800000Y-50674999D01*
G75*
G02*
X74049999Y-50425000I249999J0D01*
G01*
X74850001Y-50425000D01*
G75*
G02*
X75100000Y-50674999I0J-249999D01*
G01*
G37*
G36*
G01*
X72000000Y-50674999D02*
X72000000Y-51925001D01*
G75*
G02*
X71750001Y-52175000I-249999J0D01*
G01*
X70949999Y-52175000D01*
G75*
G02*
X70700000Y-51925001I0J249999D01*
G01*
X70700000Y-50674999D01*
G75*
G02*
X70949999Y-50425000I249999J0D01*
G01*
X71750001Y-50425000D01*
G75*
G02*
X72000000Y-50674999I0J-249999D01*
G01*
G37*
%TD*%
D10*
%TO.C,U2*%
X72350000Y-68835000D03*
X70450000Y-68835000D03*
X71400000Y-71165000D03*
%TD*%
D11*
%TO.C,J5*%
X85400000Y-77575000D03*
X79800000Y-77575000D03*
D12*
X81100000Y-73700000D03*
X82100000Y-73700000D03*
X83100000Y-73700000D03*
X84100000Y-73700000D03*
%TD*%
M02*
