M48
; DRILL file {KiCad (5.1.8)-1} date 02/07/21 13:37:55
; FORMAT={-:-/ absolute / inch / decimal}
; #@! TF.CreationDate,2021-02-07T13:37:55+01:00
; #@! TF.GenerationSoftware,Kicad,Pcbnew,(5.1.8)-1
FMAT,2
INCH
T1C0.0157
T2C0.0394
%
G90
G05
T1
X2.378Y-2.8031
X2.3898Y-2.9134
X2.4252Y-2.311
X2.4882Y-2.7126
X2.4882Y-2.9646
X2.6142Y-1.9567
X2.6142Y-2.6417
X2.626Y-2.3701
X2.8071Y-2.6457
X2.811Y-2.5906
X3.0354Y-2.6457
X3.0433Y-2.8937
X3.0778Y-1.9281
X3.2244Y-2.6378
T2
X2.6063Y-3.0236
X2.7063Y-3.0236
X2.8063Y-3.0236
X2.9063Y-3.0236
X3.0063Y-3.0236
X2.3Y-1.7996
X2.3Y-1.8996
X2.3Y-1.9996
X2.3Y-2.0996
X2.3Y-2.1996
X2.3Y-2.2996
X2.3Y-2.3996
X2.3Y-2.4996
X3.3Y-1.7996
X3.3Y-1.8996
X3.3Y-1.9996
X3.3Y-2.0996
X3.3Y-2.1996
X3.3Y-2.2996
X3.3Y-2.3996
X3.3Y-2.4996
X2.7063Y-1.8606
X2.8063Y-1.8606
X2.9063Y-1.8606
X3.0063Y-1.8606
T0
M30
