%TF.GenerationSoftware,KiCad,Pcbnew,(5.1.8)-1*%
%TF.CreationDate,2021-03-07T11:54:50+01:00*%
%TF.ProjectId,addon_MH-Z19,6164646f-6e5f-44d4-982d-5a31392e6b69,rev?*%
%TF.SameCoordinates,Original*%
%TF.FileFunction,Legend,Bot*%
%TF.FilePolarity,Positive*%
%FSLAX46Y46*%
G04 Gerber Fmt 4.6, Leading zero omitted, Abs format (unit mm)*
G04 Created by KiCad (PCBNEW (5.1.8)-1) date 2021-03-07 11:54:50*
%MOMM*%
%LPD*%
G01*
G04 APERTURE LIST*
%ADD10C,0.100000*%
%ADD11C,0.250000*%
%ADD12C,0.150000*%
%ADD13C,0.010000*%
%ADD14C,0.120000*%
%ADD15C,0.080000*%
G04 APERTURE END LIST*
D10*
X64071428Y-48135714D02*
X64114285Y-48092857D01*
X64157142Y-47964285D01*
X64157142Y-47878571D01*
X64114285Y-47750000D01*
X64028571Y-47664285D01*
X63942857Y-47621428D01*
X63771428Y-47578571D01*
X63642857Y-47578571D01*
X63471428Y-47621428D01*
X63385714Y-47664285D01*
X63300000Y-47750000D01*
X63257142Y-47878571D01*
X63257142Y-47964285D01*
X63300000Y-48092857D01*
X63342857Y-48135714D01*
X63257142Y-48692857D02*
X63257142Y-48864285D01*
X63300000Y-48950000D01*
X63385714Y-49035714D01*
X63557142Y-49078571D01*
X63857142Y-49078571D01*
X64028571Y-49035714D01*
X64114285Y-48950000D01*
X64157142Y-48864285D01*
X64157142Y-48692857D01*
X64114285Y-48607142D01*
X64028571Y-48521428D01*
X63857142Y-48478571D01*
X63557142Y-48478571D01*
X63385714Y-48521428D01*
X63300000Y-48607142D01*
X63257142Y-48692857D01*
X63342857Y-49421428D02*
X63300000Y-49464285D01*
X63257142Y-49550000D01*
X63257142Y-49764285D01*
X63300000Y-49850000D01*
X63342857Y-49892857D01*
X63428571Y-49935714D01*
X63514285Y-49935714D01*
X63642857Y-49892857D01*
X64157142Y-49378571D01*
X64157142Y-49935714D01*
X63814285Y-50321428D02*
X63814285Y-51007142D01*
X64114285Y-51392857D02*
X64157142Y-51521428D01*
X64157142Y-51735714D01*
X64114285Y-51821428D01*
X64071428Y-51864285D01*
X63985714Y-51907142D01*
X63900000Y-51907142D01*
X63814285Y-51864285D01*
X63771428Y-51821428D01*
X63728571Y-51735714D01*
X63685714Y-51564285D01*
X63642857Y-51478571D01*
X63600000Y-51435714D01*
X63514285Y-51392857D01*
X63428571Y-51392857D01*
X63342857Y-51435714D01*
X63300000Y-51478571D01*
X63257142Y-51564285D01*
X63257142Y-51778571D01*
X63300000Y-51907142D01*
X64114285Y-52635714D02*
X64157142Y-52550000D01*
X64157142Y-52378571D01*
X64114285Y-52292857D01*
X64028571Y-52250000D01*
X63685714Y-52250000D01*
X63600000Y-52292857D01*
X63557142Y-52378571D01*
X63557142Y-52550000D01*
X63600000Y-52635714D01*
X63685714Y-52678571D01*
X63771428Y-52678571D01*
X63857142Y-52250000D01*
X63557142Y-53064285D02*
X64157142Y-53064285D01*
X63642857Y-53064285D02*
X63600000Y-53107142D01*
X63557142Y-53192857D01*
X63557142Y-53321428D01*
X63600000Y-53407142D01*
X63685714Y-53450000D01*
X64157142Y-53450000D01*
X64114285Y-53835714D02*
X64157142Y-53921428D01*
X64157142Y-54092857D01*
X64114285Y-54178571D01*
X64028571Y-54221428D01*
X63985714Y-54221428D01*
X63900000Y-54178571D01*
X63857142Y-54092857D01*
X63857142Y-53964285D01*
X63814285Y-53878571D01*
X63728571Y-53835714D01*
X63685714Y-53835714D01*
X63600000Y-53878571D01*
X63557142Y-53964285D01*
X63557142Y-54092857D01*
X63600000Y-54178571D01*
X64157142Y-54735714D02*
X64114285Y-54650000D01*
X64071428Y-54607142D01*
X63985714Y-54564285D01*
X63728571Y-54564285D01*
X63642857Y-54607142D01*
X63600000Y-54650000D01*
X63557142Y-54735714D01*
X63557142Y-54864285D01*
X63600000Y-54950000D01*
X63642857Y-54992857D01*
X63728571Y-55035714D01*
X63985714Y-55035714D01*
X64071428Y-54992857D01*
X64114285Y-54950000D01*
X64157142Y-54864285D01*
X64157142Y-54735714D01*
X64157142Y-55421428D02*
X63557142Y-55421428D01*
X63728571Y-55421428D02*
X63642857Y-55464285D01*
X63600000Y-55507142D01*
X63557142Y-55592857D01*
X63557142Y-55678571D01*
X64157142Y-56664285D02*
X63257142Y-56664285D01*
X63900000Y-56964285D01*
X63257142Y-57264285D01*
X64157142Y-57264285D01*
X64157142Y-57692857D02*
X63257142Y-57692857D01*
X63685714Y-57692857D02*
X63685714Y-58207142D01*
X64157142Y-58207142D02*
X63257142Y-58207142D01*
X63814285Y-58635714D02*
X63814285Y-59321428D01*
X63257142Y-59664285D02*
X63257142Y-60264285D01*
X64157142Y-59664285D01*
X64157142Y-60264285D01*
X64157142Y-61078571D02*
X64157142Y-60564285D01*
X64157142Y-60821428D02*
X63257142Y-60821428D01*
X63385714Y-60735714D01*
X63471428Y-60650000D01*
X63514285Y-60564285D01*
X64157142Y-61507142D02*
X64157142Y-61678571D01*
X64114285Y-61764285D01*
X64071428Y-61807142D01*
X63942857Y-61892857D01*
X63771428Y-61935714D01*
X63428571Y-61935714D01*
X63342857Y-61892857D01*
X63300000Y-61850000D01*
X63257142Y-61764285D01*
X63257142Y-61592857D01*
X63300000Y-61507142D01*
X63342857Y-61464285D01*
X63428571Y-61421428D01*
X63642857Y-61421428D01*
X63728571Y-61464285D01*
X63771428Y-61507142D01*
X63814285Y-61592857D01*
X63814285Y-61764285D01*
X63771428Y-61850000D01*
X63728571Y-61892857D01*
X63642857Y-61935714D01*
X65350000Y-51500000D02*
X65350000Y-51928571D01*
X65607142Y-51414285D02*
X64707142Y-51714285D01*
X65607142Y-52014285D01*
X65607142Y-52700000D02*
X64707142Y-52700000D01*
X65564285Y-52700000D02*
X65607142Y-52614285D01*
X65607142Y-52442857D01*
X65564285Y-52357142D01*
X65521428Y-52314285D01*
X65435714Y-52271428D01*
X65178571Y-52271428D01*
X65092857Y-52314285D01*
X65050000Y-52357142D01*
X65007142Y-52442857D01*
X65007142Y-52614285D01*
X65050000Y-52700000D01*
X65607142Y-53514285D02*
X64707142Y-53514285D01*
X65564285Y-53514285D02*
X65607142Y-53428571D01*
X65607142Y-53257142D01*
X65564285Y-53171428D01*
X65521428Y-53128571D01*
X65435714Y-53085714D01*
X65178571Y-53085714D01*
X65092857Y-53128571D01*
X65050000Y-53171428D01*
X65007142Y-53257142D01*
X65007142Y-53428571D01*
X65050000Y-53514285D01*
X65607142Y-54071428D02*
X65564285Y-53985714D01*
X65521428Y-53942857D01*
X65435714Y-53900000D01*
X65178571Y-53900000D01*
X65092857Y-53942857D01*
X65050000Y-53985714D01*
X65007142Y-54071428D01*
X65007142Y-54200000D01*
X65050000Y-54285714D01*
X65092857Y-54328571D01*
X65178571Y-54371428D01*
X65435714Y-54371428D01*
X65521428Y-54328571D01*
X65564285Y-54285714D01*
X65607142Y-54200000D01*
X65607142Y-54071428D01*
X65007142Y-54757142D02*
X65607142Y-54757142D01*
X65092857Y-54757142D02*
X65050000Y-54800000D01*
X65007142Y-54885714D01*
X65007142Y-55014285D01*
X65050000Y-55100000D01*
X65135714Y-55142857D01*
X65607142Y-55142857D01*
X65007142Y-56171428D02*
X65607142Y-56385714D01*
X65007142Y-56600000D01*
X64707142Y-57114285D02*
X64707142Y-57200000D01*
X64750000Y-57285714D01*
X64792857Y-57328571D01*
X64878571Y-57371428D01*
X65050000Y-57414285D01*
X65264285Y-57414285D01*
X65435714Y-57371428D01*
X65521428Y-57328571D01*
X65564285Y-57285714D01*
X65607142Y-57200000D01*
X65607142Y-57114285D01*
X65564285Y-57028571D01*
X65521428Y-56985714D01*
X65435714Y-56942857D01*
X65264285Y-56900000D01*
X65050000Y-56900000D01*
X64878571Y-56942857D01*
X64792857Y-56985714D01*
X64750000Y-57028571D01*
X64707142Y-57114285D01*
X65521428Y-57800000D02*
X65564285Y-57842857D01*
X65607142Y-57800000D01*
X65564285Y-57757142D01*
X65521428Y-57800000D01*
X65607142Y-57800000D01*
X65607142Y-58700000D02*
X65607142Y-58185714D01*
X65607142Y-58442857D02*
X64707142Y-58442857D01*
X64835714Y-58357142D01*
X64921428Y-58271428D01*
X64964285Y-58185714D01*
X67057142Y-51842857D02*
X66585714Y-51842857D01*
X66500000Y-51800000D01*
X66457142Y-51714285D01*
X66457142Y-51542857D01*
X66500000Y-51457142D01*
X67014285Y-51842857D02*
X67057142Y-51757142D01*
X67057142Y-51542857D01*
X67014285Y-51457142D01*
X66928571Y-51414285D01*
X66842857Y-51414285D01*
X66757142Y-51457142D01*
X66714285Y-51542857D01*
X66714285Y-51757142D01*
X66671428Y-51842857D01*
X66457142Y-52142857D02*
X66457142Y-52485714D01*
X66157142Y-52271428D02*
X66928571Y-52271428D01*
X67014285Y-52314285D01*
X67057142Y-52400000D01*
X67057142Y-52485714D01*
X66457142Y-52657142D02*
X66457142Y-53000000D01*
X66157142Y-52785714D02*
X66928571Y-52785714D01*
X67014285Y-52828571D01*
X67057142Y-52914285D01*
X67057142Y-53000000D01*
X66457142Y-53300000D02*
X67057142Y-53300000D01*
X66542857Y-53300000D02*
X66500000Y-53342857D01*
X66457142Y-53428571D01*
X66457142Y-53557142D01*
X66500000Y-53642857D01*
X66585714Y-53685714D01*
X67057142Y-53685714D01*
X67057142Y-54242857D02*
X67014285Y-54157142D01*
X66971428Y-54114285D01*
X66885714Y-54071428D01*
X66628571Y-54071428D01*
X66542857Y-54114285D01*
X66500000Y-54157142D01*
X66457142Y-54242857D01*
X66457142Y-54371428D01*
X66500000Y-54457142D01*
X66542857Y-54500000D01*
X66628571Y-54542857D01*
X66885714Y-54542857D01*
X66971428Y-54500000D01*
X67014285Y-54457142D01*
X67057142Y-54371428D01*
X67057142Y-54242857D01*
X66971428Y-54928571D02*
X67014285Y-54971428D01*
X67057142Y-54928571D01*
X67014285Y-54885714D01*
X66971428Y-54928571D01*
X67057142Y-54928571D01*
X67057142Y-55742857D02*
X66157142Y-55742857D01*
X67014285Y-55742857D02*
X67057142Y-55657142D01*
X67057142Y-55485714D01*
X67014285Y-55400000D01*
X66971428Y-55357142D01*
X66885714Y-55314285D01*
X66628571Y-55314285D01*
X66542857Y-55357142D01*
X66500000Y-55400000D01*
X66457142Y-55485714D01*
X66457142Y-55657142D01*
X66500000Y-55742857D01*
X67014285Y-56514285D02*
X67057142Y-56428571D01*
X67057142Y-56257142D01*
X67014285Y-56171428D01*
X66928571Y-56128571D01*
X66585714Y-56128571D01*
X66500000Y-56171428D01*
X66457142Y-56257142D01*
X66457142Y-56428571D01*
X66500000Y-56514285D01*
X66585714Y-56557142D01*
X66671428Y-56557142D01*
X66757142Y-56128571D01*
X66457142Y-57542857D02*
X67057142Y-57757142D01*
X66457142Y-57971428D01*
X66157142Y-58228571D02*
X66157142Y-58785714D01*
X66500000Y-58485714D01*
X66500000Y-58614285D01*
X66542857Y-58700000D01*
X66585714Y-58742857D01*
X66671428Y-58785714D01*
X66885714Y-58785714D01*
X66971428Y-58742857D01*
X67014285Y-58700000D01*
X67057142Y-58614285D01*
X67057142Y-58357142D01*
X67014285Y-58271428D01*
X66971428Y-58228571D01*
X69039285Y-49160714D02*
X69039285Y-49303571D01*
X69003571Y-49375000D01*
X68967857Y-49410714D01*
X68860714Y-49482142D01*
X68717857Y-49517857D01*
X68432142Y-49517857D01*
X68360714Y-49482142D01*
X68325000Y-49446428D01*
X68289285Y-49375000D01*
X68289285Y-49232142D01*
X68325000Y-49160714D01*
X68360714Y-49125000D01*
X68432142Y-49089285D01*
X68610714Y-49089285D01*
X68682142Y-49125000D01*
X68717857Y-49160714D01*
X68753571Y-49232142D01*
X68753571Y-49375000D01*
X68717857Y-49446428D01*
X68682142Y-49482142D01*
X68610714Y-49517857D01*
X68753571Y-49839285D02*
X68753571Y-50410714D01*
X69039285Y-50767857D02*
X68289285Y-50767857D01*
X68289285Y-51053571D01*
X68325000Y-51125000D01*
X68360714Y-51160714D01*
X68432142Y-51196428D01*
X68539285Y-51196428D01*
X68610714Y-51160714D01*
X68646428Y-51125000D01*
X68682142Y-51053571D01*
X68682142Y-50767857D01*
X68289285Y-51446428D02*
X69039285Y-51625000D01*
X68503571Y-51767857D01*
X69039285Y-51910714D01*
X68289285Y-52089285D01*
X69039285Y-52375000D02*
X68289285Y-52375000D01*
X68825000Y-52625000D01*
X68289285Y-52875000D01*
X69039285Y-52875000D01*
X71210714Y-49264285D02*
X71175000Y-49192857D01*
X71139285Y-49157142D01*
X71067857Y-49121428D01*
X71032142Y-49121428D01*
X70960714Y-49157142D01*
X70925000Y-49192857D01*
X70889285Y-49264285D01*
X70889285Y-49407142D01*
X70925000Y-49478571D01*
X70960714Y-49514285D01*
X71032142Y-49550000D01*
X71067857Y-49550000D01*
X71139285Y-49514285D01*
X71175000Y-49478571D01*
X71210714Y-49407142D01*
X71210714Y-49264285D01*
X71246428Y-49192857D01*
X71282142Y-49157142D01*
X71353571Y-49121428D01*
X71496428Y-49121428D01*
X71567857Y-49157142D01*
X71603571Y-49192857D01*
X71639285Y-49264285D01*
X71639285Y-49407142D01*
X71603571Y-49478571D01*
X71567857Y-49514285D01*
X71496428Y-49550000D01*
X71353571Y-49550000D01*
X71282142Y-49514285D01*
X71246428Y-49478571D01*
X71210714Y-49407142D01*
X71353571Y-49871428D02*
X71353571Y-50442857D01*
X71425000Y-50764285D02*
X71425000Y-51121428D01*
X71639285Y-50692857D02*
X70889285Y-50942857D01*
X71639285Y-51192857D01*
X70889285Y-51585714D02*
X70889285Y-51728571D01*
X70925000Y-51800000D01*
X70996428Y-51871428D01*
X71139285Y-51907142D01*
X71389285Y-51907142D01*
X71532142Y-51871428D01*
X71603571Y-51800000D01*
X71639285Y-51728571D01*
X71639285Y-51585714D01*
X71603571Y-51514285D01*
X71532142Y-51442857D01*
X71389285Y-51407142D01*
X71139285Y-51407142D01*
X70996428Y-51442857D01*
X70925000Y-51514285D01*
X70889285Y-51585714D01*
X70889285Y-52121428D02*
X70889285Y-52550000D01*
X71639285Y-52335714D02*
X70889285Y-52335714D01*
X73389285Y-49042857D02*
X73389285Y-49542857D01*
X74139285Y-49221428D01*
X73853571Y-49828571D02*
X73853571Y-50400000D01*
X73425000Y-51150000D02*
X73389285Y-51078571D01*
X73389285Y-50971428D01*
X73425000Y-50864285D01*
X73496428Y-50792857D01*
X73567857Y-50757142D01*
X73710714Y-50721428D01*
X73817857Y-50721428D01*
X73960714Y-50757142D01*
X74032142Y-50792857D01*
X74103571Y-50864285D01*
X74139285Y-50971428D01*
X74139285Y-51042857D01*
X74103571Y-51150000D01*
X74067857Y-51185714D01*
X73817857Y-51185714D01*
X73817857Y-51042857D01*
X74139285Y-51507142D02*
X73389285Y-51507142D01*
X74139285Y-51935714D01*
X73389285Y-51935714D01*
X74139285Y-52292857D02*
X73389285Y-52292857D01*
X73389285Y-52471428D01*
X73425000Y-52578571D01*
X73496428Y-52650000D01*
X73567857Y-52685714D01*
X73710714Y-52721428D01*
X73817857Y-52721428D01*
X73960714Y-52685714D01*
X74032142Y-52650000D01*
X74103571Y-52578571D01*
X74139285Y-52471428D01*
X74139285Y-52292857D01*
X76189285Y-49439285D02*
X76189285Y-49296428D01*
X76225000Y-49225000D01*
X76260714Y-49189285D01*
X76367857Y-49117857D01*
X76510714Y-49082142D01*
X76796428Y-49082142D01*
X76867857Y-49117857D01*
X76903571Y-49153571D01*
X76939285Y-49225000D01*
X76939285Y-49367857D01*
X76903571Y-49439285D01*
X76867857Y-49475000D01*
X76796428Y-49510714D01*
X76617857Y-49510714D01*
X76546428Y-49475000D01*
X76510714Y-49439285D01*
X76475000Y-49367857D01*
X76475000Y-49225000D01*
X76510714Y-49153571D01*
X76546428Y-49117857D01*
X76617857Y-49082142D01*
X76653571Y-49832142D02*
X76653571Y-50403571D01*
X76189285Y-50653571D02*
X76939285Y-50903571D01*
X76189285Y-51153571D01*
X76939285Y-51403571D02*
X76439285Y-51403571D01*
X76189285Y-51403571D02*
X76225000Y-51367857D01*
X76260714Y-51403571D01*
X76225000Y-51439285D01*
X76189285Y-51403571D01*
X76260714Y-51403571D01*
X76439285Y-51760714D02*
X76939285Y-51760714D01*
X76510714Y-51760714D02*
X76475000Y-51796428D01*
X76439285Y-51867857D01*
X76439285Y-51975000D01*
X76475000Y-52046428D01*
X76546428Y-52082142D01*
X76939285Y-52082142D01*
X66539285Y-72289285D02*
X65789285Y-72289285D01*
X66146428Y-72289285D02*
X66146428Y-72717857D01*
X66539285Y-72717857D02*
X65789285Y-72717857D01*
X66539285Y-73075000D02*
X65789285Y-73075000D01*
X65789285Y-73253571D01*
X65825000Y-73360714D01*
X65896428Y-73432142D01*
X65967857Y-73467857D01*
X66110714Y-73503571D01*
X66217857Y-73503571D01*
X66360714Y-73467857D01*
X66432142Y-73432142D01*
X66503571Y-73360714D01*
X66539285Y-73253571D01*
X66539285Y-73075000D01*
X66253571Y-73825000D02*
X66253571Y-74396428D01*
X65789285Y-75110714D02*
X65789285Y-74753571D01*
X66146428Y-74717857D01*
X66110714Y-74753571D01*
X66075000Y-74825000D01*
X66075000Y-75003571D01*
X66110714Y-75075000D01*
X66146428Y-75110714D01*
X66217857Y-75146428D01*
X66396428Y-75146428D01*
X66467857Y-75110714D01*
X66503571Y-75075000D01*
X66539285Y-75003571D01*
X66539285Y-74825000D01*
X66503571Y-74753571D01*
X66467857Y-74717857D01*
X69003571Y-72289285D02*
X69039285Y-72396428D01*
X69039285Y-72575000D01*
X69003571Y-72646428D01*
X68967857Y-72682142D01*
X68896428Y-72717857D01*
X68825000Y-72717857D01*
X68753571Y-72682142D01*
X68717857Y-72646428D01*
X68682142Y-72575000D01*
X68646428Y-72432142D01*
X68610714Y-72360714D01*
X68575000Y-72325000D01*
X68503571Y-72289285D01*
X68432142Y-72289285D01*
X68360714Y-72325000D01*
X68325000Y-72360714D01*
X68289285Y-72432142D01*
X68289285Y-72610714D01*
X68325000Y-72717857D01*
X69039285Y-73467857D02*
X68682142Y-73217857D01*
X69039285Y-73039285D02*
X68289285Y-73039285D01*
X68289285Y-73325000D01*
X68325000Y-73396428D01*
X68360714Y-73432142D01*
X68432142Y-73467857D01*
X68539285Y-73467857D01*
X68610714Y-73432142D01*
X68646428Y-73396428D01*
X68682142Y-73325000D01*
X68682142Y-73039285D01*
X68753571Y-73789285D02*
X68753571Y-74360714D01*
X68539285Y-75039285D02*
X69039285Y-75039285D01*
X68253571Y-74860714D02*
X68789285Y-74682142D01*
X68789285Y-75146428D01*
X75889285Y-71335714D02*
X76639285Y-71585714D01*
X75889285Y-71835714D01*
X76639285Y-72192857D02*
X76603571Y-72121428D01*
X76567857Y-72085714D01*
X76496428Y-72050000D01*
X76282142Y-72050000D01*
X76210714Y-72085714D01*
X76175000Y-72121428D01*
X76139285Y-72192857D01*
X76139285Y-72300000D01*
X76175000Y-72371428D01*
X76210714Y-72407142D01*
X76282142Y-72442857D01*
X76496428Y-72442857D01*
X76567857Y-72407142D01*
X76603571Y-72371428D01*
X76639285Y-72300000D01*
X76639285Y-72192857D01*
X76139285Y-73085714D02*
X76639285Y-73085714D01*
X76139285Y-72764285D02*
X76532142Y-72764285D01*
X76603571Y-72800000D01*
X76639285Y-72871428D01*
X76639285Y-72978571D01*
X76603571Y-73050000D01*
X76567857Y-73085714D01*
X76139285Y-73335714D02*
X76139285Y-73621428D01*
X75889285Y-73442857D02*
X76532142Y-73442857D01*
X76603571Y-73478571D01*
X76639285Y-73550000D01*
X76639285Y-73621428D01*
X76353571Y-73871428D02*
X76353571Y-74442857D01*
X76639285Y-75192857D02*
X76639285Y-74764285D01*
X76639285Y-74978571D02*
X75889285Y-74978571D01*
X75996428Y-74907142D01*
X76067857Y-74835714D01*
X76103571Y-74764285D01*
X70789285Y-72307142D02*
X70789285Y-72735714D01*
X71539285Y-72521428D02*
X70789285Y-72521428D01*
X70789285Y-72914285D02*
X71539285Y-73414285D01*
X70789285Y-73414285D02*
X71539285Y-72914285D01*
X71253571Y-73700000D02*
X71253571Y-74271428D01*
X70789285Y-74557142D02*
X70789285Y-75021428D01*
X71075000Y-74771428D01*
X71075000Y-74878571D01*
X71110714Y-74950000D01*
X71146428Y-74985714D01*
X71217857Y-75021428D01*
X71396428Y-75021428D01*
X71467857Y-74985714D01*
X71503571Y-74950000D01*
X71539285Y-74878571D01*
X71539285Y-74664285D01*
X71503571Y-74592857D01*
X71467857Y-74557142D01*
X74139285Y-72753571D02*
X73782142Y-72503571D01*
X74139285Y-72325000D02*
X73389285Y-72325000D01*
X73389285Y-72610714D01*
X73425000Y-72682142D01*
X73460714Y-72717857D01*
X73532142Y-72753571D01*
X73639285Y-72753571D01*
X73710714Y-72717857D01*
X73746428Y-72682142D01*
X73782142Y-72610714D01*
X73782142Y-72325000D01*
X73389285Y-73003571D02*
X74139285Y-73503571D01*
X73389285Y-73503571D02*
X74139285Y-73003571D01*
X73853571Y-73789285D02*
X73853571Y-74360714D01*
X73460714Y-74682142D02*
X73425000Y-74717857D01*
X73389285Y-74789285D01*
X73389285Y-74967857D01*
X73425000Y-75039285D01*
X73460714Y-75075000D01*
X73532142Y-75110714D01*
X73603571Y-75110714D01*
X73710714Y-75075000D01*
X74139285Y-74646428D01*
X74139285Y-75110714D01*
X81902380Y-62857142D02*
X81926190Y-62928571D01*
X81926190Y-63047619D01*
X81902380Y-63095238D01*
X81878571Y-63119047D01*
X81830952Y-63142857D01*
X81783333Y-63142857D01*
X81735714Y-63119047D01*
X81711904Y-63095238D01*
X81688095Y-63047619D01*
X81664285Y-62952380D01*
X81640476Y-62904761D01*
X81616666Y-62880952D01*
X81569047Y-62857142D01*
X81521428Y-62857142D01*
X81473809Y-62880952D01*
X81450000Y-62904761D01*
X81426190Y-62952380D01*
X81426190Y-63071428D01*
X81450000Y-63142857D01*
X81878571Y-63642857D02*
X81902380Y-63619047D01*
X81926190Y-63547619D01*
X81926190Y-63500000D01*
X81902380Y-63428571D01*
X81854761Y-63380952D01*
X81807142Y-63357142D01*
X81711904Y-63333333D01*
X81640476Y-63333333D01*
X81545238Y-63357142D01*
X81497619Y-63380952D01*
X81450000Y-63428571D01*
X81426190Y-63500000D01*
X81426190Y-63547619D01*
X81450000Y-63619047D01*
X81473809Y-63642857D01*
X81926190Y-63857142D02*
X81426190Y-63857142D01*
X81926190Y-64142857D02*
X81640476Y-63928571D01*
X81426190Y-64142857D02*
X81711904Y-63857142D01*
X81926190Y-60114285D02*
X81426190Y-60114285D01*
X81783333Y-60280952D01*
X81426190Y-60447619D01*
X81926190Y-60447619D01*
X81426190Y-60780952D02*
X81426190Y-60876190D01*
X81450000Y-60923809D01*
X81497619Y-60971428D01*
X81592857Y-60995238D01*
X81759523Y-60995238D01*
X81854761Y-60971428D01*
X81902380Y-60923809D01*
X81926190Y-60876190D01*
X81926190Y-60780952D01*
X81902380Y-60733333D01*
X81854761Y-60685714D01*
X81759523Y-60661904D01*
X81592857Y-60661904D01*
X81497619Y-60685714D01*
X81450000Y-60733333D01*
X81426190Y-60780952D01*
X81902380Y-61185714D02*
X81926190Y-61257142D01*
X81926190Y-61376190D01*
X81902380Y-61423809D01*
X81878571Y-61447619D01*
X81830952Y-61471428D01*
X81783333Y-61471428D01*
X81735714Y-61447619D01*
X81711904Y-61423809D01*
X81688095Y-61376190D01*
X81664285Y-61280952D01*
X81640476Y-61233333D01*
X81616666Y-61209523D01*
X81569047Y-61185714D01*
X81521428Y-61185714D01*
X81473809Y-61209523D01*
X81450000Y-61233333D01*
X81426190Y-61280952D01*
X81426190Y-61400000D01*
X81450000Y-61471428D01*
X81926190Y-61685714D02*
X81426190Y-61685714D01*
X81926190Y-57614285D02*
X81426190Y-57614285D01*
X81783333Y-57780952D01*
X81426190Y-57947619D01*
X81926190Y-57947619D01*
X81926190Y-58185714D02*
X81426190Y-58185714D01*
X81902380Y-58400000D02*
X81926190Y-58471428D01*
X81926190Y-58590476D01*
X81902380Y-58638095D01*
X81878571Y-58661904D01*
X81830952Y-58685714D01*
X81783333Y-58685714D01*
X81735714Y-58661904D01*
X81711904Y-58638095D01*
X81688095Y-58590476D01*
X81664285Y-58495238D01*
X81640476Y-58447619D01*
X81616666Y-58423809D01*
X81569047Y-58400000D01*
X81521428Y-58400000D01*
X81473809Y-58423809D01*
X81450000Y-58447619D01*
X81426190Y-58495238D01*
X81426190Y-58614285D01*
X81450000Y-58685714D01*
X81426190Y-58995238D02*
X81426190Y-59090476D01*
X81450000Y-59138095D01*
X81497619Y-59185714D01*
X81592857Y-59209523D01*
X81759523Y-59209523D01*
X81854761Y-59185714D01*
X81902380Y-59138095D01*
X81926190Y-59090476D01*
X81926190Y-58995238D01*
X81902380Y-58947619D01*
X81854761Y-58900000D01*
X81759523Y-58876190D01*
X81592857Y-58876190D01*
X81497619Y-58900000D01*
X81450000Y-58947619D01*
X81426190Y-58995238D01*
X81926190Y-55216666D02*
X81426190Y-55216666D01*
X81426190Y-55407142D01*
X81450000Y-55454761D01*
X81473809Y-55478571D01*
X81521428Y-55502380D01*
X81592857Y-55502380D01*
X81640476Y-55478571D01*
X81664285Y-55454761D01*
X81688095Y-55407142D01*
X81688095Y-55216666D01*
X81783333Y-55692857D02*
X81783333Y-55930952D01*
X81926190Y-55645238D02*
X81426190Y-55811904D01*
X81926190Y-55978571D01*
X81426190Y-56097619D02*
X81426190Y-56430952D01*
X81926190Y-56216666D01*
X81926190Y-52680952D02*
X81426190Y-52680952D01*
X81426190Y-52871428D01*
X81450000Y-52919047D01*
X81473809Y-52942857D01*
X81521428Y-52966666D01*
X81592857Y-52966666D01*
X81640476Y-52942857D01*
X81664285Y-52919047D01*
X81688095Y-52871428D01*
X81688095Y-52680952D01*
X81664285Y-53347619D02*
X81688095Y-53419047D01*
X81711904Y-53442857D01*
X81759523Y-53466666D01*
X81830952Y-53466666D01*
X81878571Y-53442857D01*
X81902380Y-53419047D01*
X81926190Y-53371428D01*
X81926190Y-53180952D01*
X81426190Y-53180952D01*
X81426190Y-53347619D01*
X81450000Y-53395238D01*
X81473809Y-53419047D01*
X81521428Y-53442857D01*
X81569047Y-53442857D01*
X81616666Y-53419047D01*
X81640476Y-53395238D01*
X81664285Y-53347619D01*
X81664285Y-53180952D01*
X81426190Y-53919047D02*
X81426190Y-53680952D01*
X81664285Y-53657142D01*
X81640476Y-53680952D01*
X81616666Y-53728571D01*
X81616666Y-53847619D01*
X81640476Y-53895238D01*
X81664285Y-53919047D01*
X81711904Y-53942857D01*
X81830952Y-53942857D01*
X81878571Y-53919047D01*
X81902380Y-53895238D01*
X81926190Y-53847619D01*
X81926190Y-53728571D01*
X81902380Y-53680952D01*
X81878571Y-53657142D01*
X81801190Y-49919047D02*
X81301190Y-49919047D01*
X81301190Y-50109523D01*
X81325000Y-50157142D01*
X81348809Y-50180952D01*
X81396428Y-50204761D01*
X81467857Y-50204761D01*
X81515476Y-50180952D01*
X81539285Y-50157142D01*
X81563095Y-50109523D01*
X81563095Y-49919047D01*
X81539285Y-50585714D02*
X81563095Y-50657142D01*
X81586904Y-50680952D01*
X81634523Y-50704761D01*
X81705952Y-50704761D01*
X81753571Y-50680952D01*
X81777380Y-50657142D01*
X81801190Y-50609523D01*
X81801190Y-50419047D01*
X81301190Y-50419047D01*
X81301190Y-50585714D01*
X81325000Y-50633333D01*
X81348809Y-50657142D01*
X81396428Y-50680952D01*
X81444047Y-50680952D01*
X81491666Y-50657142D01*
X81515476Y-50633333D01*
X81539285Y-50585714D01*
X81539285Y-50419047D01*
X81467857Y-51133333D02*
X81801190Y-51133333D01*
X81277380Y-51014285D02*
X81634523Y-50895238D01*
X81634523Y-51204761D01*
X81277380Y-51752380D02*
X81920238Y-51323809D01*
X82508333Y-49835714D02*
X82508333Y-50073809D01*
X82651190Y-49788095D02*
X82151190Y-49954761D01*
X82651190Y-50121428D01*
X82651190Y-50359523D02*
X82627380Y-50311904D01*
X82579761Y-50288095D01*
X82151190Y-50288095D01*
X82651190Y-50764285D02*
X82389285Y-50764285D01*
X82341666Y-50740476D01*
X82317857Y-50692857D01*
X82317857Y-50597619D01*
X82341666Y-50550000D01*
X82627380Y-50764285D02*
X82651190Y-50716666D01*
X82651190Y-50597619D01*
X82627380Y-50550000D01*
X82579761Y-50526190D01*
X82532142Y-50526190D01*
X82484523Y-50550000D01*
X82460714Y-50597619D01*
X82460714Y-50716666D01*
X82436904Y-50764285D01*
X82651190Y-51002380D02*
X82317857Y-51002380D01*
X82413095Y-51002380D02*
X82365476Y-51026190D01*
X82341666Y-51050000D01*
X82317857Y-51097619D01*
X82317857Y-51145238D01*
X82651190Y-51311904D02*
X82317857Y-51311904D01*
X82365476Y-51311904D02*
X82341666Y-51335714D01*
X82317857Y-51383333D01*
X82317857Y-51454761D01*
X82341666Y-51502380D01*
X82389285Y-51526190D01*
X82651190Y-51526190D01*
X82389285Y-51526190D02*
X82341666Y-51550000D01*
X82317857Y-51597619D01*
X82317857Y-51669047D01*
X82341666Y-51716666D01*
X82389285Y-51740476D01*
X82651190Y-51740476D01*
X81926190Y-48216666D02*
X81688095Y-48050000D01*
X81926190Y-47930952D02*
X81426190Y-47930952D01*
X81426190Y-48121428D01*
X81450000Y-48169047D01*
X81473809Y-48192857D01*
X81521428Y-48216666D01*
X81592857Y-48216666D01*
X81640476Y-48192857D01*
X81664285Y-48169047D01*
X81688095Y-48121428D01*
X81688095Y-47930952D01*
X81426190Y-48383333D02*
X81926190Y-48716666D01*
X81426190Y-48716666D02*
X81926190Y-48383333D01*
X81426190Y-45219047D02*
X81426190Y-45504761D01*
X81926190Y-45361904D02*
X81426190Y-45361904D01*
X81426190Y-45623809D02*
X81926190Y-45957142D01*
X81426190Y-45957142D02*
X81926190Y-45623809D01*
X61026190Y-62780952D02*
X60526190Y-62780952D01*
X60526190Y-62971428D01*
X60550000Y-63019047D01*
X60573809Y-63042857D01*
X60621428Y-63066666D01*
X60692857Y-63066666D01*
X60740476Y-63042857D01*
X60764285Y-63019047D01*
X60788095Y-62971428D01*
X60788095Y-62780952D01*
X60978571Y-63566666D02*
X61002380Y-63542857D01*
X61026190Y-63471428D01*
X61026190Y-63423809D01*
X61002380Y-63352380D01*
X60954761Y-63304761D01*
X60907142Y-63280952D01*
X60811904Y-63257142D01*
X60740476Y-63257142D01*
X60645238Y-63280952D01*
X60597619Y-63304761D01*
X60550000Y-63352380D01*
X60526190Y-63423809D01*
X60526190Y-63471428D01*
X60550000Y-63542857D01*
X60573809Y-63566666D01*
X60526190Y-63733333D02*
X60526190Y-64042857D01*
X60716666Y-63876190D01*
X60716666Y-63947619D01*
X60740476Y-63995238D01*
X60764285Y-64019047D01*
X60811904Y-64042857D01*
X60930952Y-64042857D01*
X60978571Y-64019047D01*
X61002380Y-63995238D01*
X61026190Y-63947619D01*
X61026190Y-63804761D01*
X61002380Y-63757142D01*
X60978571Y-63733333D01*
X61026190Y-60380952D02*
X60526190Y-60380952D01*
X60526190Y-60571428D01*
X60550000Y-60619047D01*
X60573809Y-60642857D01*
X60621428Y-60666666D01*
X60692857Y-60666666D01*
X60740476Y-60642857D01*
X60764285Y-60619047D01*
X60788095Y-60571428D01*
X60788095Y-60380952D01*
X60978571Y-61166666D02*
X61002380Y-61142857D01*
X61026190Y-61071428D01*
X61026190Y-61023809D01*
X61002380Y-60952380D01*
X60954761Y-60904761D01*
X60907142Y-60880952D01*
X60811904Y-60857142D01*
X60740476Y-60857142D01*
X60645238Y-60880952D01*
X60597619Y-60904761D01*
X60550000Y-60952380D01*
X60526190Y-61023809D01*
X60526190Y-61071428D01*
X60550000Y-61142857D01*
X60573809Y-61166666D01*
X60573809Y-61357142D02*
X60550000Y-61380952D01*
X60526190Y-61428571D01*
X60526190Y-61547619D01*
X60550000Y-61595238D01*
X60573809Y-61619047D01*
X60621428Y-61642857D01*
X60669047Y-61642857D01*
X60740476Y-61619047D01*
X61026190Y-61333333D01*
X61026190Y-61642857D01*
X61026190Y-57780952D02*
X60526190Y-57780952D01*
X60526190Y-57971428D01*
X60550000Y-58019047D01*
X60573809Y-58042857D01*
X60621428Y-58066666D01*
X60692857Y-58066666D01*
X60740476Y-58042857D01*
X60764285Y-58019047D01*
X60788095Y-57971428D01*
X60788095Y-57780952D01*
X60978571Y-58566666D02*
X61002380Y-58542857D01*
X61026190Y-58471428D01*
X61026190Y-58423809D01*
X61002380Y-58352380D01*
X60954761Y-58304761D01*
X60907142Y-58280952D01*
X60811904Y-58257142D01*
X60740476Y-58257142D01*
X60645238Y-58280952D01*
X60597619Y-58304761D01*
X60550000Y-58352380D01*
X60526190Y-58423809D01*
X60526190Y-58471428D01*
X60550000Y-58542857D01*
X60573809Y-58566666D01*
X61026190Y-59042857D02*
X61026190Y-58757142D01*
X61026190Y-58900000D02*
X60526190Y-58900000D01*
X60597619Y-58852380D01*
X60645238Y-58804761D01*
X60669047Y-58757142D01*
X61026190Y-55180952D02*
X60526190Y-55180952D01*
X60526190Y-55371428D01*
X60550000Y-55419047D01*
X60573809Y-55442857D01*
X60621428Y-55466666D01*
X60692857Y-55466666D01*
X60740476Y-55442857D01*
X60764285Y-55419047D01*
X60788095Y-55371428D01*
X60788095Y-55180952D01*
X60978571Y-55966666D02*
X61002380Y-55942857D01*
X61026190Y-55871428D01*
X61026190Y-55823809D01*
X61002380Y-55752380D01*
X60954761Y-55704761D01*
X60907142Y-55680952D01*
X60811904Y-55657142D01*
X60740476Y-55657142D01*
X60645238Y-55680952D01*
X60597619Y-55704761D01*
X60550000Y-55752380D01*
X60526190Y-55823809D01*
X60526190Y-55871428D01*
X60550000Y-55942857D01*
X60573809Y-55966666D01*
X60526190Y-56276190D02*
X60526190Y-56323809D01*
X60550000Y-56371428D01*
X60573809Y-56395238D01*
X60621428Y-56419047D01*
X60716666Y-56442857D01*
X60835714Y-56442857D01*
X60930952Y-56419047D01*
X60978571Y-56395238D01*
X61002380Y-56371428D01*
X61026190Y-56323809D01*
X61026190Y-56276190D01*
X61002380Y-56228571D01*
X60978571Y-56204761D01*
X60930952Y-56180952D01*
X60835714Y-56157142D01*
X60716666Y-56157142D01*
X60621428Y-56180952D01*
X60573809Y-56204761D01*
X60550000Y-56228571D01*
X60526190Y-56276190D01*
X61002380Y-52704761D02*
X61026190Y-52776190D01*
X61026190Y-52895238D01*
X61002380Y-52942857D01*
X60978571Y-52966666D01*
X60930952Y-52990476D01*
X60883333Y-52990476D01*
X60835714Y-52966666D01*
X60811904Y-52942857D01*
X60788095Y-52895238D01*
X60764285Y-52800000D01*
X60740476Y-52752380D01*
X60716666Y-52728571D01*
X60669047Y-52704761D01*
X60621428Y-52704761D01*
X60573809Y-52728571D01*
X60550000Y-52752380D01*
X60526190Y-52800000D01*
X60526190Y-52919047D01*
X60550000Y-52990476D01*
X60978571Y-53490476D02*
X61002380Y-53466666D01*
X61026190Y-53395238D01*
X61026190Y-53347619D01*
X61002380Y-53276190D01*
X60954761Y-53228571D01*
X60907142Y-53204761D01*
X60811904Y-53180952D01*
X60740476Y-53180952D01*
X60645238Y-53204761D01*
X60597619Y-53228571D01*
X60550000Y-53276190D01*
X60526190Y-53347619D01*
X60526190Y-53395238D01*
X60550000Y-53466666D01*
X60573809Y-53490476D01*
X61026190Y-53942857D02*
X61026190Y-53704761D01*
X60526190Y-53704761D01*
X61002380Y-50192857D02*
X61026190Y-50264285D01*
X61026190Y-50383333D01*
X61002380Y-50430952D01*
X60978571Y-50454761D01*
X60930952Y-50478571D01*
X60883333Y-50478571D01*
X60835714Y-50454761D01*
X60811904Y-50430952D01*
X60788095Y-50383333D01*
X60764285Y-50288095D01*
X60740476Y-50240476D01*
X60716666Y-50216666D01*
X60669047Y-50192857D01*
X60621428Y-50192857D01*
X60573809Y-50216666D01*
X60550000Y-50240476D01*
X60526190Y-50288095D01*
X60526190Y-50407142D01*
X60550000Y-50478571D01*
X61026190Y-50692857D02*
X60526190Y-50692857D01*
X60526190Y-50811904D01*
X60550000Y-50883333D01*
X60597619Y-50930952D01*
X60645238Y-50954761D01*
X60740476Y-50978571D01*
X60811904Y-50978571D01*
X60907142Y-50954761D01*
X60954761Y-50930952D01*
X61002380Y-50883333D01*
X61026190Y-50811904D01*
X61026190Y-50692857D01*
X60883333Y-51169047D02*
X60883333Y-51407142D01*
X61026190Y-51121428D02*
X60526190Y-51288095D01*
X61026190Y-51454761D01*
X60550000Y-47819047D02*
X60526190Y-47771428D01*
X60526190Y-47700000D01*
X60550000Y-47628571D01*
X60597619Y-47580952D01*
X60645238Y-47557142D01*
X60740476Y-47533333D01*
X60811904Y-47533333D01*
X60907142Y-47557142D01*
X60954761Y-47580952D01*
X61002380Y-47628571D01*
X61026190Y-47700000D01*
X61026190Y-47747619D01*
X61002380Y-47819047D01*
X60978571Y-47842857D01*
X60811904Y-47842857D01*
X60811904Y-47747619D01*
X61026190Y-48057142D02*
X60526190Y-48057142D01*
X61026190Y-48342857D01*
X60526190Y-48342857D01*
X61026190Y-48580952D02*
X60526190Y-48580952D01*
X60526190Y-48700000D01*
X60550000Y-48771428D01*
X60597619Y-48819047D01*
X60645238Y-48842857D01*
X60740476Y-48866666D01*
X60811904Y-48866666D01*
X60907142Y-48842857D01*
X60954761Y-48819047D01*
X61002380Y-48771428D01*
X61026190Y-48700000D01*
X61026190Y-48580952D01*
X60835714Y-44957142D02*
X60835714Y-45338095D01*
X61026190Y-45147619D02*
X60645238Y-45147619D01*
X60526190Y-45528571D02*
X60526190Y-45838095D01*
X60716666Y-45671428D01*
X60716666Y-45742857D01*
X60740476Y-45790476D01*
X60764285Y-45814285D01*
X60811904Y-45838095D01*
X60930952Y-45838095D01*
X60978571Y-45814285D01*
X61002380Y-45790476D01*
X61026190Y-45742857D01*
X61026190Y-45600000D01*
X61002380Y-45552380D01*
X60978571Y-45528571D01*
X60526190Y-45980952D02*
X61026190Y-46147619D01*
X60526190Y-46314285D01*
D11*
X74304761Y-70152380D02*
X74304761Y-69152380D01*
X73971428Y-69866666D01*
X73638095Y-69152380D01*
X73638095Y-70152380D01*
X73161904Y-70152380D02*
X73161904Y-69152380D01*
X73161904Y-69628571D02*
X72590476Y-69628571D01*
X72590476Y-70152380D02*
X72590476Y-69152380D01*
X72114285Y-69771428D02*
X71352380Y-69771428D01*
X70971428Y-69152380D02*
X70304761Y-69152380D01*
X70971428Y-70152380D01*
X70304761Y-70152380D01*
X69400000Y-70152380D02*
X69971428Y-70152380D01*
X69685714Y-70152380D02*
X69685714Y-69152380D01*
X69780952Y-69295238D01*
X69876190Y-69390476D01*
X69971428Y-69438095D01*
X68923809Y-70152380D02*
X68733333Y-70152380D01*
X68638095Y-70104761D01*
X68590476Y-70057142D01*
X68495238Y-69914285D01*
X68447619Y-69723809D01*
X68447619Y-69342857D01*
X68495238Y-69247619D01*
X68542857Y-69200000D01*
X68638095Y-69152380D01*
X68828571Y-69152380D01*
X68923809Y-69200000D01*
X68971428Y-69247619D01*
X69019047Y-69342857D01*
X69019047Y-69580952D01*
X68971428Y-69676190D01*
X68923809Y-69723809D01*
X68828571Y-69771428D01*
X68638095Y-69771428D01*
X68542857Y-69723809D01*
X68495238Y-69676190D01*
X68447619Y-69580952D01*
D12*
X61550000Y-45745000D02*
X61550000Y-78315000D01*
X61550000Y-78315000D02*
X81050000Y-78315000D01*
X61550000Y-45745000D02*
X81050000Y-45745000D01*
X81050000Y-45745000D02*
X81050000Y-78315000D01*
D10*
X79925000Y-73928571D02*
X79889285Y-73857142D01*
X79889285Y-73750000D01*
X79925000Y-73642857D01*
X79996428Y-73571428D01*
X80067857Y-73535714D01*
X80210714Y-73500000D01*
X80317857Y-73500000D01*
X80460714Y-73535714D01*
X80532142Y-73571428D01*
X80603571Y-73642857D01*
X80639285Y-73750000D01*
X80639285Y-73821428D01*
X80603571Y-73928571D01*
X80567857Y-73964285D01*
X80317857Y-73964285D01*
X80317857Y-73821428D01*
X80639285Y-74285714D02*
X79889285Y-74285714D01*
X80639285Y-74714285D01*
X79889285Y-74714285D01*
X80639285Y-75071428D02*
X79889285Y-75071428D01*
X79889285Y-75250000D01*
X79925000Y-75357142D01*
X79996428Y-75428571D01*
X80067857Y-75464285D01*
X80210714Y-75500000D01*
X80317857Y-75500000D01*
X80460714Y-75464285D01*
X80532142Y-75428571D01*
X80603571Y-75357142D01*
X80639285Y-75250000D01*
X80639285Y-75071428D01*
X61889285Y-74232142D02*
X62639285Y-74482142D01*
X61889285Y-74732142D01*
X62639285Y-74982142D02*
X62139285Y-74982142D01*
X61889285Y-74982142D02*
X61925000Y-74946428D01*
X61960714Y-74982142D01*
X61925000Y-75017857D01*
X61889285Y-74982142D01*
X61960714Y-74982142D01*
X62139285Y-75339285D02*
X62639285Y-75339285D01*
X62210714Y-75339285D02*
X62175000Y-75375000D01*
X62139285Y-75446428D01*
X62139285Y-75553571D01*
X62175000Y-75625000D01*
X62246428Y-75660714D01*
X62639285Y-75660714D01*
D13*
%TO.C,REF\u002A\u002A*%
G36*
X76228100Y-64461903D02*
G01*
X76116550Y-64517522D01*
X76018092Y-64619931D01*
X75990977Y-64657864D01*
X75961438Y-64707500D01*
X75942272Y-64761412D01*
X75931307Y-64833364D01*
X75926371Y-64937122D01*
X75925287Y-65074101D01*
X75930182Y-65261815D01*
X75947196Y-65402758D01*
X75979823Y-65507908D01*
X76031558Y-65588243D01*
X76105896Y-65654741D01*
X76111358Y-65658678D01*
X76184620Y-65698953D01*
X76272840Y-65718880D01*
X76385038Y-65723793D01*
X76567433Y-65723793D01*
X76567509Y-65900857D01*
X76569207Y-65999470D01*
X76579550Y-66057314D01*
X76606578Y-66092006D01*
X76658332Y-66121164D01*
X76670761Y-66127121D01*
X76728923Y-66155039D01*
X76773956Y-66172672D01*
X76807441Y-66174194D01*
X76830962Y-66153781D01*
X76846100Y-66105607D01*
X76854437Y-66023846D01*
X76857556Y-65902672D01*
X76857040Y-65736260D01*
X76854471Y-65518785D01*
X76853668Y-65453736D01*
X76850778Y-65229502D01*
X76848188Y-65082821D01*
X76567586Y-65082821D01*
X76566009Y-65207326D01*
X76559000Y-65288787D01*
X76543142Y-65342515D01*
X76515019Y-65383823D01*
X76495925Y-65403971D01*
X76417865Y-65462921D01*
X76348753Y-65467720D01*
X76277440Y-65419038D01*
X76275632Y-65417241D01*
X76246617Y-65379618D01*
X76228967Y-65328484D01*
X76220064Y-65249738D01*
X76217291Y-65129276D01*
X76217241Y-65102588D01*
X76223942Y-64936583D01*
X76245752Y-64821505D01*
X76285235Y-64751254D01*
X76344956Y-64719729D01*
X76379472Y-64716552D01*
X76461389Y-64731460D01*
X76517579Y-64780548D01*
X76551402Y-64870362D01*
X76566220Y-65007445D01*
X76567586Y-65082821D01*
X76848188Y-65082821D01*
X76847713Y-65055952D01*
X76843753Y-64925382D01*
X76838174Y-64830087D01*
X76830254Y-64762364D01*
X76819269Y-64714507D01*
X76804499Y-64678813D01*
X76785218Y-64647578D01*
X76776951Y-64635824D01*
X76667288Y-64524797D01*
X76528635Y-64461847D01*
X76368246Y-64444297D01*
X76228100Y-64461903D01*
G37*
X76228100Y-64461903D02*
X76116550Y-64517522D01*
X76018092Y-64619931D01*
X75990977Y-64657864D01*
X75961438Y-64707500D01*
X75942272Y-64761412D01*
X75931307Y-64833364D01*
X75926371Y-64937122D01*
X75925287Y-65074101D01*
X75930182Y-65261815D01*
X75947196Y-65402758D01*
X75979823Y-65507908D01*
X76031558Y-65588243D01*
X76105896Y-65654741D01*
X76111358Y-65658678D01*
X76184620Y-65698953D01*
X76272840Y-65718880D01*
X76385038Y-65723793D01*
X76567433Y-65723793D01*
X76567509Y-65900857D01*
X76569207Y-65999470D01*
X76579550Y-66057314D01*
X76606578Y-66092006D01*
X76658332Y-66121164D01*
X76670761Y-66127121D01*
X76728923Y-66155039D01*
X76773956Y-66172672D01*
X76807441Y-66174194D01*
X76830962Y-66153781D01*
X76846100Y-66105607D01*
X76854437Y-66023846D01*
X76857556Y-65902672D01*
X76857040Y-65736260D01*
X76854471Y-65518785D01*
X76853668Y-65453736D01*
X76850778Y-65229502D01*
X76848188Y-65082821D01*
X76567586Y-65082821D01*
X76566009Y-65207326D01*
X76559000Y-65288787D01*
X76543142Y-65342515D01*
X76515019Y-65383823D01*
X76495925Y-65403971D01*
X76417865Y-65462921D01*
X76348753Y-65467720D01*
X76277440Y-65419038D01*
X76275632Y-65417241D01*
X76246617Y-65379618D01*
X76228967Y-65328484D01*
X76220064Y-65249738D01*
X76217291Y-65129276D01*
X76217241Y-65102588D01*
X76223942Y-64936583D01*
X76245752Y-64821505D01*
X76285235Y-64751254D01*
X76344956Y-64719729D01*
X76379472Y-64716552D01*
X76461389Y-64731460D01*
X76517579Y-64780548D01*
X76551402Y-64870362D01*
X76566220Y-65007445D01*
X76567586Y-65082821D01*
X76848188Y-65082821D01*
X76847713Y-65055952D01*
X76843753Y-64925382D01*
X76838174Y-64830087D01*
X76830254Y-64762364D01*
X76819269Y-64714507D01*
X76804499Y-64678813D01*
X76785218Y-64647578D01*
X76776951Y-64635824D01*
X76667288Y-64524797D01*
X76528635Y-64461847D01*
X76368246Y-64444297D01*
X76228100Y-64461903D01*
G36*
X73982571Y-64477719D02*
G01*
X73888877Y-64531914D01*
X73823736Y-64585707D01*
X73776093Y-64642066D01*
X73743272Y-64710987D01*
X73722594Y-64802468D01*
X73711380Y-64926506D01*
X73706951Y-65093098D01*
X73706437Y-65212851D01*
X73706437Y-65653659D01*
X73830517Y-65709283D01*
X73954598Y-65764907D01*
X73969195Y-65282095D01*
X73975227Y-65101779D01*
X73981555Y-64970901D01*
X73989394Y-64880511D01*
X73999963Y-64821664D01*
X74014477Y-64785413D01*
X74034152Y-64762810D01*
X74040465Y-64757917D01*
X74136112Y-64719706D01*
X74232793Y-64734827D01*
X74290345Y-64774943D01*
X74313755Y-64803370D01*
X74329961Y-64840672D01*
X74340259Y-64897223D01*
X74345951Y-64983394D01*
X74348336Y-65109558D01*
X74348736Y-65241042D01*
X74348814Y-65405999D01*
X74351639Y-65522761D01*
X74361093Y-65601510D01*
X74381060Y-65652431D01*
X74415424Y-65685706D01*
X74468068Y-65711520D01*
X74538383Y-65738344D01*
X74615180Y-65767542D01*
X74606038Y-65249346D01*
X74602357Y-65062539D01*
X74598050Y-64924490D01*
X74591877Y-64825568D01*
X74582598Y-64756145D01*
X74568973Y-64706590D01*
X74549761Y-64667273D01*
X74526598Y-64632584D01*
X74414848Y-64521770D01*
X74278487Y-64457689D01*
X74130175Y-64442339D01*
X73982571Y-64477719D01*
G37*
X73982571Y-64477719D02*
X73888877Y-64531914D01*
X73823736Y-64585707D01*
X73776093Y-64642066D01*
X73743272Y-64710987D01*
X73722594Y-64802468D01*
X73711380Y-64926506D01*
X73706951Y-65093098D01*
X73706437Y-65212851D01*
X73706437Y-65653659D01*
X73830517Y-65709283D01*
X73954598Y-65764907D01*
X73969195Y-65282095D01*
X73975227Y-65101779D01*
X73981555Y-64970901D01*
X73989394Y-64880511D01*
X73999963Y-64821664D01*
X74014477Y-64785413D01*
X74034152Y-64762810D01*
X74040465Y-64757917D01*
X74136112Y-64719706D01*
X74232793Y-64734827D01*
X74290345Y-64774943D01*
X74313755Y-64803370D01*
X74329961Y-64840672D01*
X74340259Y-64897223D01*
X74345951Y-64983394D01*
X74348336Y-65109558D01*
X74348736Y-65241042D01*
X74348814Y-65405999D01*
X74351639Y-65522761D01*
X74361093Y-65601510D01*
X74381060Y-65652431D01*
X74415424Y-65685706D01*
X74468068Y-65711520D01*
X74538383Y-65738344D01*
X74615180Y-65767542D01*
X74606038Y-65249346D01*
X74602357Y-65062539D01*
X74598050Y-64924490D01*
X74591877Y-64825568D01*
X74582598Y-64756145D01*
X74568973Y-64706590D01*
X74549761Y-64667273D01*
X74526598Y-64632584D01*
X74414848Y-64521770D01*
X74278487Y-64457689D01*
X74130175Y-64442339D01*
X73982571Y-64477719D01*
G36*
X77351779Y-64466015D02*
G01*
X77214939Y-64537968D01*
X77113949Y-64653766D01*
X77078075Y-64728213D01*
X77050161Y-64839992D01*
X77035871Y-64981227D01*
X77034516Y-65135371D01*
X77045405Y-65285879D01*
X77067847Y-65416205D01*
X77101150Y-65509803D01*
X77111385Y-65525922D01*
X77232618Y-65646249D01*
X77376613Y-65718317D01*
X77532861Y-65739408D01*
X77690852Y-65706802D01*
X77734820Y-65687253D01*
X77820444Y-65627012D01*
X77895592Y-65547135D01*
X77902694Y-65537004D01*
X77931561Y-65488181D01*
X77950643Y-65435990D01*
X77961916Y-65367285D01*
X77967355Y-65268918D01*
X77968938Y-65127744D01*
X77968965Y-65096092D01*
X77968893Y-65086019D01*
X77677011Y-65086019D01*
X77675313Y-65219256D01*
X77668628Y-65307674D01*
X77654575Y-65364785D01*
X77630771Y-65404102D01*
X77618621Y-65417241D01*
X77548764Y-65467172D01*
X77480941Y-65464895D01*
X77412365Y-65421584D01*
X77371465Y-65375346D01*
X77347242Y-65307857D01*
X77333639Y-65201433D01*
X77332706Y-65189020D01*
X77330384Y-64996147D01*
X77354650Y-64852900D01*
X77405176Y-64760160D01*
X77481632Y-64718807D01*
X77508924Y-64716552D01*
X77580589Y-64727893D01*
X77629610Y-64767184D01*
X77659582Y-64842326D01*
X77674101Y-64961222D01*
X77677011Y-65086019D01*
X77968893Y-65086019D01*
X77967878Y-64945659D01*
X77963312Y-64840549D01*
X77953312Y-64767714D01*
X77935921Y-64714108D01*
X77909184Y-64666681D01*
X77903276Y-64657864D01*
X77803968Y-64539007D01*
X77695758Y-64470008D01*
X77564019Y-64442619D01*
X77519283Y-64441281D01*
X77351779Y-64466015D01*
G37*
X77351779Y-64466015D02*
X77214939Y-64537968D01*
X77113949Y-64653766D01*
X77078075Y-64728213D01*
X77050161Y-64839992D01*
X77035871Y-64981227D01*
X77034516Y-65135371D01*
X77045405Y-65285879D01*
X77067847Y-65416205D01*
X77101150Y-65509803D01*
X77111385Y-65525922D01*
X77232618Y-65646249D01*
X77376613Y-65718317D01*
X77532861Y-65739408D01*
X77690852Y-65706802D01*
X77734820Y-65687253D01*
X77820444Y-65627012D01*
X77895592Y-65547135D01*
X77902694Y-65537004D01*
X77931561Y-65488181D01*
X77950643Y-65435990D01*
X77961916Y-65367285D01*
X77967355Y-65268918D01*
X77968938Y-65127744D01*
X77968965Y-65096092D01*
X77968893Y-65086019D01*
X77677011Y-65086019D01*
X77675313Y-65219256D01*
X77668628Y-65307674D01*
X77654575Y-65364785D01*
X77630771Y-65404102D01*
X77618621Y-65417241D01*
X77548764Y-65467172D01*
X77480941Y-65464895D01*
X77412365Y-65421584D01*
X77371465Y-65375346D01*
X77347242Y-65307857D01*
X77333639Y-65201433D01*
X77332706Y-65189020D01*
X77330384Y-64996147D01*
X77354650Y-64852900D01*
X77405176Y-64760160D01*
X77481632Y-64718807D01*
X77508924Y-64716552D01*
X77580589Y-64727893D01*
X77629610Y-64767184D01*
X77659582Y-64842326D01*
X77674101Y-64961222D01*
X77677011Y-65086019D01*
X77968893Y-65086019D01*
X77967878Y-64945659D01*
X77963312Y-64840549D01*
X77953312Y-64767714D01*
X77935921Y-64714108D01*
X77909184Y-64666681D01*
X77903276Y-64657864D01*
X77803968Y-64539007D01*
X77695758Y-64470008D01*
X77564019Y-64442619D01*
X77519283Y-64441281D01*
X77351779Y-64466015D01*
G36*
X75084448Y-64484676D02*
G01*
X74969342Y-64562111D01*
X74880389Y-64673949D01*
X74827251Y-64816265D01*
X74816503Y-64921015D01*
X74817724Y-64964726D01*
X74827944Y-64998194D01*
X74856039Y-65028179D01*
X74910884Y-65061440D01*
X75001355Y-65104738D01*
X75136328Y-65164833D01*
X75137011Y-65165134D01*
X75261249Y-65222037D01*
X75363127Y-65272565D01*
X75432233Y-65311280D01*
X75458154Y-65332740D01*
X75458161Y-65332913D01*
X75435315Y-65379644D01*
X75381891Y-65431154D01*
X75320558Y-65468261D01*
X75289485Y-65475632D01*
X75204711Y-65450138D01*
X75131707Y-65386291D01*
X75096087Y-65316094D01*
X75061820Y-65264343D01*
X74994697Y-65205409D01*
X74915792Y-65154496D01*
X74846179Y-65126809D01*
X74831623Y-65125287D01*
X74815237Y-65150321D01*
X74814250Y-65214311D01*
X74826292Y-65300593D01*
X74848993Y-65392501D01*
X74879986Y-65473369D01*
X74881552Y-65476509D01*
X74974819Y-65606734D01*
X75095696Y-65695311D01*
X75232973Y-65738786D01*
X75375440Y-65733706D01*
X75511888Y-65676616D01*
X75517955Y-65672602D01*
X75625290Y-65575326D01*
X75695868Y-65448409D01*
X75734926Y-65281526D01*
X75740168Y-65234639D01*
X75749452Y-65013329D01*
X75738322Y-64910124D01*
X75458161Y-64910124D01*
X75454521Y-64974503D01*
X75434611Y-64993291D01*
X75384974Y-64979235D01*
X75306733Y-64946009D01*
X75219274Y-64904359D01*
X75217101Y-64903256D01*
X75142970Y-64864265D01*
X75113219Y-64838244D01*
X75120555Y-64810965D01*
X75151447Y-64775121D01*
X75230040Y-64723251D01*
X75314677Y-64719439D01*
X75390597Y-64757189D01*
X75443035Y-64830001D01*
X75458161Y-64910124D01*
X75738322Y-64910124D01*
X75730356Y-64836261D01*
X75681366Y-64695829D01*
X75613164Y-64597447D01*
X75490065Y-64498030D01*
X75354472Y-64448711D01*
X75216045Y-64445568D01*
X75084448Y-64484676D01*
G37*
X75084448Y-64484676D02*
X74969342Y-64562111D01*
X74880389Y-64673949D01*
X74827251Y-64816265D01*
X74816503Y-64921015D01*
X74817724Y-64964726D01*
X74827944Y-64998194D01*
X74856039Y-65028179D01*
X74910884Y-65061440D01*
X75001355Y-65104738D01*
X75136328Y-65164833D01*
X75137011Y-65165134D01*
X75261249Y-65222037D01*
X75363127Y-65272565D01*
X75432233Y-65311280D01*
X75458154Y-65332740D01*
X75458161Y-65332913D01*
X75435315Y-65379644D01*
X75381891Y-65431154D01*
X75320558Y-65468261D01*
X75289485Y-65475632D01*
X75204711Y-65450138D01*
X75131707Y-65386291D01*
X75096087Y-65316094D01*
X75061820Y-65264343D01*
X74994697Y-65205409D01*
X74915792Y-65154496D01*
X74846179Y-65126809D01*
X74831623Y-65125287D01*
X74815237Y-65150321D01*
X74814250Y-65214311D01*
X74826292Y-65300593D01*
X74848993Y-65392501D01*
X74879986Y-65473369D01*
X74881552Y-65476509D01*
X74974819Y-65606734D01*
X75095696Y-65695311D01*
X75232973Y-65738786D01*
X75375440Y-65733706D01*
X75511888Y-65676616D01*
X75517955Y-65672602D01*
X75625290Y-65575326D01*
X75695868Y-65448409D01*
X75734926Y-65281526D01*
X75740168Y-65234639D01*
X75749452Y-65013329D01*
X75738322Y-64910124D01*
X75458161Y-64910124D01*
X75454521Y-64974503D01*
X75434611Y-64993291D01*
X75384974Y-64979235D01*
X75306733Y-64946009D01*
X75219274Y-64904359D01*
X75217101Y-64903256D01*
X75142970Y-64864265D01*
X75113219Y-64838244D01*
X75120555Y-64810965D01*
X75151447Y-64775121D01*
X75230040Y-64723251D01*
X75314677Y-64719439D01*
X75390597Y-64757189D01*
X75443035Y-64830001D01*
X75458161Y-64910124D01*
X75738322Y-64910124D01*
X75730356Y-64836261D01*
X75681366Y-64695829D01*
X75613164Y-64597447D01*
X75490065Y-64498030D01*
X75354472Y-64448711D01*
X75216045Y-64445568D01*
X75084448Y-64484676D01*
G36*
X72655402Y-64323857D02*
G01*
X72646846Y-64443188D01*
X72637019Y-64513506D01*
X72623401Y-64544179D01*
X72603473Y-64544571D01*
X72597011Y-64540910D01*
X72511060Y-64514398D01*
X72399255Y-64515946D01*
X72285586Y-64543199D01*
X72214490Y-64578455D01*
X72141595Y-64634778D01*
X72088307Y-64698519D01*
X72051725Y-64779510D01*
X72028950Y-64887586D01*
X72017081Y-65032580D01*
X72013218Y-65224326D01*
X72013149Y-65261109D01*
X72013103Y-65674288D01*
X72105046Y-65706339D01*
X72170348Y-65728144D01*
X72206176Y-65738297D01*
X72207230Y-65738391D01*
X72210758Y-65710860D01*
X72213761Y-65634923D01*
X72216010Y-65520565D01*
X72217276Y-65377769D01*
X72217471Y-65290951D01*
X72217877Y-65119773D01*
X72219968Y-64997088D01*
X72225053Y-64913000D01*
X72234440Y-64857614D01*
X72249439Y-64821032D01*
X72271358Y-64793359D01*
X72285043Y-64780032D01*
X72379051Y-64726328D01*
X72481636Y-64722307D01*
X72574710Y-64767725D01*
X72591922Y-64784123D01*
X72617168Y-64814957D01*
X72634680Y-64851531D01*
X72645858Y-64904415D01*
X72652104Y-64984177D01*
X72654818Y-65101385D01*
X72655402Y-65262991D01*
X72655402Y-65674288D01*
X72747345Y-65706339D01*
X72812647Y-65728144D01*
X72848475Y-65738297D01*
X72849529Y-65738391D01*
X72852225Y-65710448D01*
X72854655Y-65631630D01*
X72856722Y-65509453D01*
X72858329Y-65351432D01*
X72859377Y-65165083D01*
X72859769Y-64957920D01*
X72859770Y-64948706D01*
X72859770Y-64159020D01*
X72764885Y-64118997D01*
X72670000Y-64078973D01*
X72655402Y-64323857D01*
G37*
X72655402Y-64323857D02*
X72646846Y-64443188D01*
X72637019Y-64513506D01*
X72623401Y-64544179D01*
X72603473Y-64544571D01*
X72597011Y-64540910D01*
X72511060Y-64514398D01*
X72399255Y-64515946D01*
X72285586Y-64543199D01*
X72214490Y-64578455D01*
X72141595Y-64634778D01*
X72088307Y-64698519D01*
X72051725Y-64779510D01*
X72028950Y-64887586D01*
X72017081Y-65032580D01*
X72013218Y-65224326D01*
X72013149Y-65261109D01*
X72013103Y-65674288D01*
X72105046Y-65706339D01*
X72170348Y-65728144D01*
X72206176Y-65738297D01*
X72207230Y-65738391D01*
X72210758Y-65710860D01*
X72213761Y-65634923D01*
X72216010Y-65520565D01*
X72217276Y-65377769D01*
X72217471Y-65290951D01*
X72217877Y-65119773D01*
X72219968Y-64997088D01*
X72225053Y-64913000D01*
X72234440Y-64857614D01*
X72249439Y-64821032D01*
X72271358Y-64793359D01*
X72285043Y-64780032D01*
X72379051Y-64726328D01*
X72481636Y-64722307D01*
X72574710Y-64767725D01*
X72591922Y-64784123D01*
X72617168Y-64814957D01*
X72634680Y-64851531D01*
X72645858Y-64904415D01*
X72652104Y-64984177D01*
X72654818Y-65101385D01*
X72655402Y-65262991D01*
X72655402Y-65674288D01*
X72747345Y-65706339D01*
X72812647Y-65728144D01*
X72848475Y-65738297D01*
X72849529Y-65738391D01*
X72852225Y-65710448D01*
X72854655Y-65631630D01*
X72856722Y-65509453D01*
X72858329Y-65351432D01*
X72859377Y-65165083D01*
X72859769Y-64957920D01*
X72859770Y-64948706D01*
X72859770Y-64159020D01*
X72764885Y-64118997D01*
X72670000Y-64078973D01*
X72655402Y-64323857D01*
G36*
X71320056Y-64524360D02*
G01*
X71205657Y-64566842D01*
X71204348Y-64567658D01*
X71133597Y-64619730D01*
X71081364Y-64680584D01*
X71044629Y-64759887D01*
X71020366Y-64867309D01*
X71005555Y-65012517D01*
X70997171Y-65205179D01*
X70996436Y-65232628D01*
X70985880Y-65646521D01*
X71074709Y-65692456D01*
X71138982Y-65723498D01*
X71177790Y-65738206D01*
X71179585Y-65738391D01*
X71186300Y-65711250D01*
X71191635Y-65638041D01*
X71194917Y-65531081D01*
X71195632Y-65444469D01*
X71195649Y-65304162D01*
X71202063Y-65216051D01*
X71224420Y-65174025D01*
X71272268Y-65171975D01*
X71355151Y-65203790D01*
X71480287Y-65262272D01*
X71572303Y-65310845D01*
X71619629Y-65352986D01*
X71633542Y-65398916D01*
X71633563Y-65401189D01*
X71610605Y-65480311D01*
X71542630Y-65523055D01*
X71438602Y-65529246D01*
X71363670Y-65528172D01*
X71324161Y-65549753D01*
X71299522Y-65601591D01*
X71285341Y-65667632D01*
X71305777Y-65705104D01*
X71313472Y-65710467D01*
X71385917Y-65732006D01*
X71487367Y-65735055D01*
X71591843Y-65720778D01*
X71665875Y-65694688D01*
X71768228Y-65607785D01*
X71826409Y-65486816D01*
X71837931Y-65392308D01*
X71829138Y-65307062D01*
X71797320Y-65237476D01*
X71734316Y-65175672D01*
X71631969Y-65113772D01*
X71482118Y-65043897D01*
X71472988Y-65039948D01*
X71338003Y-64977588D01*
X71254706Y-64926446D01*
X71219003Y-64880488D01*
X71226797Y-64833683D01*
X71273993Y-64779998D01*
X71288106Y-64767644D01*
X71382641Y-64719741D01*
X71480594Y-64721758D01*
X71565903Y-64768724D01*
X71622504Y-64855669D01*
X71627763Y-64872734D01*
X71678977Y-64955504D01*
X71743963Y-64995372D01*
X71837931Y-65034882D01*
X71837931Y-64932658D01*
X71809347Y-64784072D01*
X71724505Y-64647784D01*
X71680355Y-64602191D01*
X71579995Y-64543674D01*
X71452365Y-64517184D01*
X71320056Y-64524360D01*
G37*
X71320056Y-64524360D02*
X71205657Y-64566842D01*
X71204348Y-64567658D01*
X71133597Y-64619730D01*
X71081364Y-64680584D01*
X71044629Y-64759887D01*
X71020366Y-64867309D01*
X71005555Y-65012517D01*
X70997171Y-65205179D01*
X70996436Y-65232628D01*
X70985880Y-65646521D01*
X71074709Y-65692456D01*
X71138982Y-65723498D01*
X71177790Y-65738206D01*
X71179585Y-65738391D01*
X71186300Y-65711250D01*
X71191635Y-65638041D01*
X71194917Y-65531081D01*
X71195632Y-65444469D01*
X71195649Y-65304162D01*
X71202063Y-65216051D01*
X71224420Y-65174025D01*
X71272268Y-65171975D01*
X71355151Y-65203790D01*
X71480287Y-65262272D01*
X71572303Y-65310845D01*
X71619629Y-65352986D01*
X71633542Y-65398916D01*
X71633563Y-65401189D01*
X71610605Y-65480311D01*
X71542630Y-65523055D01*
X71438602Y-65529246D01*
X71363670Y-65528172D01*
X71324161Y-65549753D01*
X71299522Y-65601591D01*
X71285341Y-65667632D01*
X71305777Y-65705104D01*
X71313472Y-65710467D01*
X71385917Y-65732006D01*
X71487367Y-65735055D01*
X71591843Y-65720778D01*
X71665875Y-65694688D01*
X71768228Y-65607785D01*
X71826409Y-65486816D01*
X71837931Y-65392308D01*
X71829138Y-65307062D01*
X71797320Y-65237476D01*
X71734316Y-65175672D01*
X71631969Y-65113772D01*
X71482118Y-65043897D01*
X71472988Y-65039948D01*
X71338003Y-64977588D01*
X71254706Y-64926446D01*
X71219003Y-64880488D01*
X71226797Y-64833683D01*
X71273993Y-64779998D01*
X71288106Y-64767644D01*
X71382641Y-64719741D01*
X71480594Y-64721758D01*
X71565903Y-64768724D01*
X71622504Y-64855669D01*
X71627763Y-64872734D01*
X71678977Y-64955504D01*
X71743963Y-64995372D01*
X71837931Y-65034882D01*
X71837931Y-64932658D01*
X71809347Y-64784072D01*
X71724505Y-64647784D01*
X71680355Y-64602191D01*
X71579995Y-64543674D01*
X71452365Y-64517184D01*
X71320056Y-64524360D01*
G36*
X70334057Y-64521920D02*
G01*
X70201435Y-64570859D01*
X70093990Y-64657419D01*
X70051968Y-64718352D01*
X70006157Y-64830161D01*
X70007109Y-64911006D01*
X70055192Y-64965378D01*
X70072983Y-64974624D01*
X70149796Y-65003450D01*
X70189024Y-64996065D01*
X70202311Y-64947658D01*
X70202988Y-64920920D01*
X70227314Y-64822548D01*
X70290719Y-64753734D01*
X70378846Y-64720498D01*
X70477337Y-64728861D01*
X70557398Y-64772296D01*
X70584439Y-64797072D01*
X70603606Y-64827129D01*
X70616554Y-64872565D01*
X70624936Y-64943476D01*
X70630407Y-65049960D01*
X70634622Y-65202112D01*
X70635713Y-65250287D01*
X70639693Y-65415095D01*
X70644219Y-65531088D01*
X70651005Y-65607833D01*
X70661769Y-65654893D01*
X70678227Y-65681835D01*
X70702094Y-65698223D01*
X70717374Y-65705463D01*
X70782267Y-65730220D01*
X70820466Y-65738391D01*
X70833088Y-65711103D01*
X70840792Y-65628603D01*
X70843620Y-65489941D01*
X70841614Y-65294162D01*
X70840989Y-65263965D01*
X70836579Y-65085349D01*
X70831365Y-64954923D01*
X70823945Y-64862492D01*
X70812918Y-64797858D01*
X70796883Y-64750825D01*
X70774439Y-64711196D01*
X70762698Y-64694215D01*
X70695381Y-64619080D01*
X70620090Y-64560638D01*
X70610872Y-64555536D01*
X70475867Y-64515260D01*
X70334057Y-64521920D01*
G37*
X70334057Y-64521920D02*
X70201435Y-64570859D01*
X70093990Y-64657419D01*
X70051968Y-64718352D01*
X70006157Y-64830161D01*
X70007109Y-64911006D01*
X70055192Y-64965378D01*
X70072983Y-64974624D01*
X70149796Y-65003450D01*
X70189024Y-64996065D01*
X70202311Y-64947658D01*
X70202988Y-64920920D01*
X70227314Y-64822548D01*
X70290719Y-64753734D01*
X70378846Y-64720498D01*
X70477337Y-64728861D01*
X70557398Y-64772296D01*
X70584439Y-64797072D01*
X70603606Y-64827129D01*
X70616554Y-64872565D01*
X70624936Y-64943476D01*
X70630407Y-65049960D01*
X70634622Y-65202112D01*
X70635713Y-65250287D01*
X70639693Y-65415095D01*
X70644219Y-65531088D01*
X70651005Y-65607833D01*
X70661769Y-65654893D01*
X70678227Y-65681835D01*
X70702094Y-65698223D01*
X70717374Y-65705463D01*
X70782267Y-65730220D01*
X70820466Y-65738391D01*
X70833088Y-65711103D01*
X70840792Y-65628603D01*
X70843620Y-65489941D01*
X70841614Y-65294162D01*
X70840989Y-65263965D01*
X70836579Y-65085349D01*
X70831365Y-64954923D01*
X70823945Y-64862492D01*
X70812918Y-64797858D01*
X70796883Y-64750825D01*
X70774439Y-64711196D01*
X70762698Y-64694215D01*
X70695381Y-64619080D01*
X70620090Y-64560638D01*
X70610872Y-64555536D01*
X70475867Y-64515260D01*
X70334057Y-64521920D01*
G36*
X69006086Y-64754455D02*
G01*
X69006457Y-64972661D01*
X69007892Y-65140519D01*
X69010998Y-65266070D01*
X69016378Y-65357355D01*
X69024638Y-65422415D01*
X69036384Y-65469291D01*
X69052219Y-65506024D01*
X69064210Y-65526991D01*
X69163510Y-65640694D01*
X69289412Y-65711965D01*
X69428709Y-65737538D01*
X69568195Y-65714150D01*
X69651257Y-65672119D01*
X69738455Y-65599411D01*
X69797883Y-65510612D01*
X69833739Y-65394320D01*
X69850219Y-65239135D01*
X69852553Y-65125287D01*
X69852239Y-65117106D01*
X69648276Y-65117106D01*
X69647030Y-65247657D01*
X69641322Y-65334080D01*
X69628196Y-65390618D01*
X69604694Y-65431514D01*
X69576614Y-65462362D01*
X69482312Y-65521905D01*
X69381060Y-65526992D01*
X69285364Y-65477279D01*
X69277916Y-65470543D01*
X69246126Y-65435502D01*
X69226192Y-65393811D01*
X69215400Y-65331762D01*
X69211035Y-65235644D01*
X69210345Y-65129379D01*
X69211841Y-64995880D01*
X69218036Y-64906822D01*
X69231486Y-64848293D01*
X69254749Y-64806382D01*
X69273825Y-64784123D01*
X69362437Y-64727985D01*
X69464492Y-64721235D01*
X69561905Y-64764114D01*
X69580704Y-64780032D01*
X69612707Y-64815382D01*
X69632682Y-64857502D01*
X69643407Y-64920251D01*
X69647661Y-65017487D01*
X69648276Y-65117106D01*
X69852239Y-65117106D01*
X69845496Y-64941947D01*
X69821528Y-64804195D01*
X69776452Y-64700632D01*
X69706072Y-64619856D01*
X69651257Y-64578455D01*
X69551624Y-64533728D01*
X69436145Y-64512967D01*
X69328801Y-64518525D01*
X69268736Y-64540943D01*
X69245165Y-64547323D01*
X69229523Y-64523535D01*
X69218605Y-64459788D01*
X69210345Y-64362687D01*
X69201301Y-64254541D01*
X69188739Y-64189475D01*
X69165881Y-64152268D01*
X69125949Y-64127699D01*
X69100862Y-64116819D01*
X69005977Y-64077072D01*
X69006086Y-64754455D01*
G37*
X69006086Y-64754455D02*
X69006457Y-64972661D01*
X69007892Y-65140519D01*
X69010998Y-65266070D01*
X69016378Y-65357355D01*
X69024638Y-65422415D01*
X69036384Y-65469291D01*
X69052219Y-65506024D01*
X69064210Y-65526991D01*
X69163510Y-65640694D01*
X69289412Y-65711965D01*
X69428709Y-65737538D01*
X69568195Y-65714150D01*
X69651257Y-65672119D01*
X69738455Y-65599411D01*
X69797883Y-65510612D01*
X69833739Y-65394320D01*
X69850219Y-65239135D01*
X69852553Y-65125287D01*
X69852239Y-65117106D01*
X69648276Y-65117106D01*
X69647030Y-65247657D01*
X69641322Y-65334080D01*
X69628196Y-65390618D01*
X69604694Y-65431514D01*
X69576614Y-65462362D01*
X69482312Y-65521905D01*
X69381060Y-65526992D01*
X69285364Y-65477279D01*
X69277916Y-65470543D01*
X69246126Y-65435502D01*
X69226192Y-65393811D01*
X69215400Y-65331762D01*
X69211035Y-65235644D01*
X69210345Y-65129379D01*
X69211841Y-64995880D01*
X69218036Y-64906822D01*
X69231486Y-64848293D01*
X69254749Y-64806382D01*
X69273825Y-64784123D01*
X69362437Y-64727985D01*
X69464492Y-64721235D01*
X69561905Y-64764114D01*
X69580704Y-64780032D01*
X69612707Y-64815382D01*
X69632682Y-64857502D01*
X69643407Y-64920251D01*
X69647661Y-65017487D01*
X69648276Y-65117106D01*
X69852239Y-65117106D01*
X69845496Y-64941947D01*
X69821528Y-64804195D01*
X69776452Y-64700632D01*
X69706072Y-64619856D01*
X69651257Y-64578455D01*
X69551624Y-64533728D01*
X69436145Y-64512967D01*
X69328801Y-64518525D01*
X69268736Y-64540943D01*
X69245165Y-64547323D01*
X69229523Y-64523535D01*
X69218605Y-64459788D01*
X69210345Y-64362687D01*
X69201301Y-64254541D01*
X69188739Y-64189475D01*
X69165881Y-64152268D01*
X69125949Y-64127699D01*
X69100862Y-64116819D01*
X69005977Y-64077072D01*
X69006086Y-64754455D01*
G36*
X67819876Y-64539840D02*
G01*
X67815421Y-64616653D01*
X67811929Y-64733391D01*
X67809685Y-64880821D01*
X67808965Y-65035455D01*
X67808965Y-65558727D01*
X67901355Y-65651117D01*
X67965022Y-65708047D01*
X68020911Y-65731107D01*
X68097298Y-65729647D01*
X68127620Y-65725934D01*
X68222390Y-65715126D01*
X68300778Y-65708933D01*
X68319885Y-65708361D01*
X68384301Y-65712102D01*
X68476429Y-65721494D01*
X68512150Y-65725934D01*
X68599886Y-65732801D01*
X68658847Y-65717885D01*
X68717310Y-65671835D01*
X68738415Y-65651117D01*
X68830805Y-65558727D01*
X68830805Y-64579947D01*
X68756442Y-64546066D01*
X68692410Y-64520970D01*
X68654948Y-64512184D01*
X68645343Y-64539950D01*
X68636365Y-64617530D01*
X68628614Y-64736348D01*
X68622686Y-64887828D01*
X68619827Y-65015805D01*
X68611839Y-65519425D01*
X68542152Y-65529278D01*
X68478771Y-65522389D01*
X68447714Y-65500083D01*
X68439033Y-65458379D01*
X68431622Y-65369544D01*
X68426069Y-65244834D01*
X68422964Y-65095507D01*
X68422516Y-65018661D01*
X68422069Y-64576287D01*
X68330126Y-64544235D01*
X68265051Y-64522443D01*
X68229653Y-64512281D01*
X68228632Y-64512184D01*
X68225080Y-64539809D01*
X68221177Y-64616411D01*
X68217249Y-64732579D01*
X68213624Y-64878904D01*
X68211092Y-65015805D01*
X68203103Y-65519425D01*
X68027931Y-65519425D01*
X68019893Y-65059965D01*
X68011854Y-64600505D01*
X67926457Y-64556344D01*
X67863407Y-64526019D01*
X67826090Y-64512258D01*
X67825013Y-64512184D01*
X67819876Y-64539840D01*
G37*
X67819876Y-64539840D02*
X67815421Y-64616653D01*
X67811929Y-64733391D01*
X67809685Y-64880821D01*
X67808965Y-65035455D01*
X67808965Y-65558727D01*
X67901355Y-65651117D01*
X67965022Y-65708047D01*
X68020911Y-65731107D01*
X68097298Y-65729647D01*
X68127620Y-65725934D01*
X68222390Y-65715126D01*
X68300778Y-65708933D01*
X68319885Y-65708361D01*
X68384301Y-65712102D01*
X68476429Y-65721494D01*
X68512150Y-65725934D01*
X68599886Y-65732801D01*
X68658847Y-65717885D01*
X68717310Y-65671835D01*
X68738415Y-65651117D01*
X68830805Y-65558727D01*
X68830805Y-64579947D01*
X68756442Y-64546066D01*
X68692410Y-64520970D01*
X68654948Y-64512184D01*
X68645343Y-64539950D01*
X68636365Y-64617530D01*
X68628614Y-64736348D01*
X68622686Y-64887828D01*
X68619827Y-65015805D01*
X68611839Y-65519425D01*
X68542152Y-65529278D01*
X68478771Y-65522389D01*
X68447714Y-65500083D01*
X68439033Y-65458379D01*
X68431622Y-65369544D01*
X68426069Y-65244834D01*
X68422964Y-65095507D01*
X68422516Y-65018661D01*
X68422069Y-64576287D01*
X68330126Y-64544235D01*
X68265051Y-64522443D01*
X68229653Y-64512281D01*
X68228632Y-64512184D01*
X68225080Y-64539809D01*
X68221177Y-64616411D01*
X68217249Y-64732579D01*
X68213624Y-64878904D01*
X68211092Y-65015805D01*
X68203103Y-65519425D01*
X68027931Y-65519425D01*
X68019893Y-65059965D01*
X68011854Y-64600505D01*
X67926457Y-64556344D01*
X67863407Y-64526019D01*
X67826090Y-64512258D01*
X67825013Y-64512184D01*
X67819876Y-64539840D01*
G36*
X67085594Y-64535156D02*
G01*
X67001531Y-64573393D01*
X66935550Y-64619726D01*
X66887206Y-64671532D01*
X66853828Y-64738363D01*
X66832747Y-64829769D01*
X66821293Y-64955301D01*
X66816797Y-65124508D01*
X66816322Y-65235933D01*
X66816322Y-65670627D01*
X66890684Y-65704509D01*
X66949254Y-65729272D01*
X66978270Y-65738391D01*
X66983821Y-65711257D01*
X66988225Y-65638094D01*
X66990922Y-65531263D01*
X66991494Y-65446437D01*
X66993954Y-65323887D01*
X67000588Y-65226668D01*
X67010274Y-65167134D01*
X67017968Y-65154483D01*
X67069689Y-65167402D01*
X67150883Y-65200539D01*
X67244898Y-65245461D01*
X67335083Y-65293735D01*
X67404785Y-65336928D01*
X67437352Y-65366608D01*
X67437481Y-65366929D01*
X67434680Y-65421857D01*
X67409561Y-65474292D01*
X67365459Y-65516881D01*
X67301091Y-65531126D01*
X67246079Y-65529466D01*
X67168165Y-65528245D01*
X67127268Y-65546498D01*
X67102705Y-65594726D01*
X67099608Y-65603820D01*
X67088960Y-65672598D01*
X67117435Y-65714360D01*
X67191656Y-65734263D01*
X67271832Y-65737944D01*
X67416110Y-65710658D01*
X67490797Y-65671690D01*
X67583037Y-65580148D01*
X67631957Y-65467782D01*
X67636346Y-65349051D01*
X67594999Y-65238411D01*
X67532803Y-65169080D01*
X67470706Y-65130265D01*
X67373105Y-65081125D01*
X67259368Y-65031292D01*
X67240410Y-65023677D01*
X67115479Y-64968545D01*
X67043461Y-64919954D01*
X67020300Y-64871647D01*
X67041936Y-64817370D01*
X67079080Y-64774943D01*
X67166873Y-64722702D01*
X67263470Y-64718784D01*
X67352056Y-64759041D01*
X67415814Y-64839326D01*
X67424183Y-64860040D01*
X67472904Y-64936225D01*
X67544035Y-64992785D01*
X67633793Y-65039201D01*
X67633793Y-64907584D01*
X67628510Y-64827168D01*
X67605858Y-64763786D01*
X67555633Y-64696163D01*
X67507418Y-64644076D01*
X67432446Y-64570322D01*
X67374194Y-64530702D01*
X67311628Y-64514810D01*
X67240807Y-64512184D01*
X67085594Y-64535156D01*
G37*
X67085594Y-64535156D02*
X67001531Y-64573393D01*
X66935550Y-64619726D01*
X66887206Y-64671532D01*
X66853828Y-64738363D01*
X66832747Y-64829769D01*
X66821293Y-64955301D01*
X66816797Y-65124508D01*
X66816322Y-65235933D01*
X66816322Y-65670627D01*
X66890684Y-65704509D01*
X66949254Y-65729272D01*
X66978270Y-65738391D01*
X66983821Y-65711257D01*
X66988225Y-65638094D01*
X66990922Y-65531263D01*
X66991494Y-65446437D01*
X66993954Y-65323887D01*
X67000588Y-65226668D01*
X67010274Y-65167134D01*
X67017968Y-65154483D01*
X67069689Y-65167402D01*
X67150883Y-65200539D01*
X67244898Y-65245461D01*
X67335083Y-65293735D01*
X67404785Y-65336928D01*
X67437352Y-65366608D01*
X67437481Y-65366929D01*
X67434680Y-65421857D01*
X67409561Y-65474292D01*
X67365459Y-65516881D01*
X67301091Y-65531126D01*
X67246079Y-65529466D01*
X67168165Y-65528245D01*
X67127268Y-65546498D01*
X67102705Y-65594726D01*
X67099608Y-65603820D01*
X67088960Y-65672598D01*
X67117435Y-65714360D01*
X67191656Y-65734263D01*
X67271832Y-65737944D01*
X67416110Y-65710658D01*
X67490797Y-65671690D01*
X67583037Y-65580148D01*
X67631957Y-65467782D01*
X67636346Y-65349051D01*
X67594999Y-65238411D01*
X67532803Y-65169080D01*
X67470706Y-65130265D01*
X67373105Y-65081125D01*
X67259368Y-65031292D01*
X67240410Y-65023677D01*
X67115479Y-64968545D01*
X67043461Y-64919954D01*
X67020300Y-64871647D01*
X67041936Y-64817370D01*
X67079080Y-64774943D01*
X67166873Y-64722702D01*
X67263470Y-64718784D01*
X67352056Y-64759041D01*
X67415814Y-64839326D01*
X67424183Y-64860040D01*
X67472904Y-64936225D01*
X67544035Y-64992785D01*
X67633793Y-65039201D01*
X67633793Y-64907584D01*
X67628510Y-64827168D01*
X67605858Y-64763786D01*
X67555633Y-64696163D01*
X67507418Y-64644076D01*
X67432446Y-64570322D01*
X67374194Y-64530702D01*
X67311628Y-64514810D01*
X67240807Y-64512184D01*
X67085594Y-64535156D01*
G36*
X66064310Y-64540018D02*
G01*
X66029415Y-64555269D01*
X65946123Y-64621235D01*
X65874897Y-64716618D01*
X65830847Y-64818406D01*
X65823678Y-64868587D01*
X65847715Y-64938647D01*
X65900439Y-64975717D01*
X65956969Y-64998164D01*
X65982854Y-65002300D01*
X65995458Y-64972283D01*
X66020346Y-64906961D01*
X66031265Y-64877445D01*
X66092492Y-64775348D01*
X66181139Y-64724423D01*
X66294807Y-64725989D01*
X66303226Y-64727994D01*
X66363912Y-64756767D01*
X66408526Y-64812859D01*
X66438998Y-64903163D01*
X66457256Y-65034571D01*
X66465229Y-65213974D01*
X66465977Y-65309433D01*
X66466348Y-65459913D01*
X66468777Y-65562495D01*
X66475240Y-65627672D01*
X66487712Y-65665938D01*
X66508167Y-65687785D01*
X66538581Y-65703707D01*
X66540339Y-65704509D01*
X66598909Y-65729272D01*
X66627925Y-65738391D01*
X66632384Y-65710822D01*
X66636201Y-65634620D01*
X66639101Y-65519541D01*
X66640809Y-65375341D01*
X66641149Y-65269814D01*
X66639412Y-65065613D01*
X66632618Y-64910697D01*
X66618393Y-64796024D01*
X66594362Y-64712551D01*
X66558152Y-64651236D01*
X66507388Y-64603034D01*
X66457261Y-64569393D01*
X66336725Y-64524619D01*
X66196443Y-64514521D01*
X66064310Y-64540018D01*
G37*
X66064310Y-64540018D02*
X66029415Y-64555269D01*
X65946123Y-64621235D01*
X65874897Y-64716618D01*
X65830847Y-64818406D01*
X65823678Y-64868587D01*
X65847715Y-64938647D01*
X65900439Y-64975717D01*
X65956969Y-64998164D01*
X65982854Y-65002300D01*
X65995458Y-64972283D01*
X66020346Y-64906961D01*
X66031265Y-64877445D01*
X66092492Y-64775348D01*
X66181139Y-64724423D01*
X66294807Y-64725989D01*
X66303226Y-64727994D01*
X66363912Y-64756767D01*
X66408526Y-64812859D01*
X66438998Y-64903163D01*
X66457256Y-65034571D01*
X66465229Y-65213974D01*
X66465977Y-65309433D01*
X66466348Y-65459913D01*
X66468777Y-65562495D01*
X66475240Y-65627672D01*
X66487712Y-65665938D01*
X66508167Y-65687785D01*
X66538581Y-65703707D01*
X66540339Y-65704509D01*
X66598909Y-65729272D01*
X66627925Y-65738391D01*
X66632384Y-65710822D01*
X66636201Y-65634620D01*
X66639101Y-65519541D01*
X66640809Y-65375341D01*
X66641149Y-65269814D01*
X66639412Y-65065613D01*
X66632618Y-64910697D01*
X66618393Y-64796024D01*
X66594362Y-64712551D01*
X66558152Y-64651236D01*
X66507388Y-64603034D01*
X66457261Y-64569393D01*
X66336725Y-64524619D01*
X66196443Y-64514521D01*
X66064310Y-64540018D01*
G36*
X65056561Y-64556540D02*
G01*
X64941050Y-64632034D01*
X64885336Y-64699617D01*
X64841196Y-64822255D01*
X64837691Y-64919298D01*
X64845632Y-65049056D01*
X65144885Y-65180039D01*
X65290389Y-65246958D01*
X65385463Y-65300790D01*
X65434899Y-65347416D01*
X65443489Y-65392720D01*
X65416028Y-65442582D01*
X65385747Y-65475632D01*
X65297637Y-65528633D01*
X65201804Y-65532347D01*
X65113788Y-65491041D01*
X65049131Y-65408983D01*
X65037567Y-65380008D01*
X64982175Y-65289509D01*
X64918447Y-65250940D01*
X64831034Y-65217946D01*
X64831034Y-65343034D01*
X64838762Y-65428156D01*
X64869034Y-65499938D01*
X64932482Y-65582356D01*
X64941912Y-65593066D01*
X65012487Y-65666391D01*
X65073153Y-65705742D01*
X65149050Y-65723845D01*
X65211970Y-65729774D01*
X65324513Y-65731251D01*
X65404630Y-65712535D01*
X65454610Y-65684747D01*
X65533162Y-65623641D01*
X65587537Y-65557554D01*
X65621948Y-65474441D01*
X65640612Y-65362254D01*
X65647744Y-65208946D01*
X65648313Y-65131136D01*
X65646378Y-65037853D01*
X65470101Y-65037853D01*
X65468056Y-65087896D01*
X65462961Y-65096092D01*
X65429334Y-65084958D01*
X65356970Y-65055493D01*
X65260253Y-65013601D01*
X65240027Y-65004597D01*
X65117797Y-64942442D01*
X65050453Y-64887815D01*
X65035652Y-64836649D01*
X65071053Y-64784876D01*
X65100289Y-64762000D01*
X65205784Y-64716250D01*
X65304524Y-64723808D01*
X65387188Y-64779651D01*
X65444452Y-64878753D01*
X65462812Y-64957414D01*
X65470101Y-65037853D01*
X65646378Y-65037853D01*
X65644541Y-64949351D01*
X65630641Y-64814853D01*
X65603106Y-64716916D01*
X65558428Y-64644811D01*
X65493099Y-64587813D01*
X65464617Y-64569393D01*
X65335237Y-64521422D01*
X65193588Y-64518403D01*
X65056561Y-64556540D01*
G37*
X65056561Y-64556540D02*
X64941050Y-64632034D01*
X64885336Y-64699617D01*
X64841196Y-64822255D01*
X64837691Y-64919298D01*
X64845632Y-65049056D01*
X65144885Y-65180039D01*
X65290389Y-65246958D01*
X65385463Y-65300790D01*
X65434899Y-65347416D01*
X65443489Y-65392720D01*
X65416028Y-65442582D01*
X65385747Y-65475632D01*
X65297637Y-65528633D01*
X65201804Y-65532347D01*
X65113788Y-65491041D01*
X65049131Y-65408983D01*
X65037567Y-65380008D01*
X64982175Y-65289509D01*
X64918447Y-65250940D01*
X64831034Y-65217946D01*
X64831034Y-65343034D01*
X64838762Y-65428156D01*
X64869034Y-65499938D01*
X64932482Y-65582356D01*
X64941912Y-65593066D01*
X65012487Y-65666391D01*
X65073153Y-65705742D01*
X65149050Y-65723845D01*
X65211970Y-65729774D01*
X65324513Y-65731251D01*
X65404630Y-65712535D01*
X65454610Y-65684747D01*
X65533162Y-65623641D01*
X65587537Y-65557554D01*
X65621948Y-65474441D01*
X65640612Y-65362254D01*
X65647744Y-65208946D01*
X65648313Y-65131136D01*
X65646378Y-65037853D01*
X65470101Y-65037853D01*
X65468056Y-65087896D01*
X65462961Y-65096092D01*
X65429334Y-65084958D01*
X65356970Y-65055493D01*
X65260253Y-65013601D01*
X65240027Y-65004597D01*
X65117797Y-64942442D01*
X65050453Y-64887815D01*
X65035652Y-64836649D01*
X65071053Y-64784876D01*
X65100289Y-64762000D01*
X65205784Y-64716250D01*
X65304524Y-64723808D01*
X65387188Y-64779651D01*
X65444452Y-64878753D01*
X65462812Y-64957414D01*
X65470101Y-65037853D01*
X65646378Y-65037853D01*
X65644541Y-64949351D01*
X65630641Y-64814853D01*
X65603106Y-64716916D01*
X65558428Y-64644811D01*
X65493099Y-64587813D01*
X65464617Y-64569393D01*
X65335237Y-64521422D01*
X65193588Y-64518403D01*
X65056561Y-64556540D01*
G36*
X71190986Y-55052998D02*
G01*
X71032994Y-55053863D01*
X70918653Y-55056205D01*
X70840593Y-55060762D01*
X70791446Y-55068270D01*
X70763841Y-55079466D01*
X70750408Y-55095088D01*
X70743779Y-55115873D01*
X70743135Y-55118563D01*
X70733065Y-55167113D01*
X70714425Y-55262905D01*
X70689155Y-55395743D01*
X70659193Y-55555431D01*
X70626478Y-55731774D01*
X70625336Y-55737967D01*
X70592567Y-55910782D01*
X70561907Y-56063469D01*
X70535336Y-56186871D01*
X70514833Y-56271831D01*
X70502374Y-56309190D01*
X70501780Y-56309852D01*
X70465081Y-56328095D01*
X70389414Y-56358497D01*
X70291122Y-56394493D01*
X70290575Y-56394685D01*
X70166767Y-56441222D01*
X70020804Y-56500504D01*
X69883219Y-56560109D01*
X69876707Y-56563056D01*
X69652610Y-56664765D01*
X69156381Y-56325897D01*
X69004154Y-56222592D01*
X68866259Y-56130237D01*
X68750685Y-56054084D01*
X68665421Y-55999385D01*
X68618456Y-55971393D01*
X68613996Y-55969317D01*
X68579866Y-55978560D01*
X68516119Y-56023156D01*
X68420269Y-56105209D01*
X68289831Y-56226821D01*
X68156672Y-56356205D01*
X68028306Y-56483702D01*
X67913419Y-56600046D01*
X67818927Y-56698052D01*
X67751747Y-56770536D01*
X67718794Y-56810313D01*
X67717568Y-56812361D01*
X67713926Y-56839656D01*
X67727650Y-56884234D01*
X67762131Y-56952112D01*
X67820761Y-57049311D01*
X67906930Y-57181851D01*
X68021800Y-57352476D01*
X68123746Y-57502655D01*
X68214877Y-57637350D01*
X68289927Y-57748740D01*
X68343631Y-57829005D01*
X68370720Y-57870325D01*
X68372426Y-57873130D01*
X68369118Y-57912721D01*
X68344047Y-57989669D01*
X68302202Y-58089432D01*
X68287288Y-58121291D01*
X68222214Y-58263226D01*
X68152788Y-58424273D01*
X68096391Y-58563621D01*
X68055753Y-58667044D01*
X68023474Y-58745642D01*
X68004822Y-58786720D01*
X68002503Y-58789885D01*
X67968197Y-58795128D01*
X67887331Y-58809494D01*
X67770657Y-58830937D01*
X67628925Y-58857413D01*
X67472890Y-58886877D01*
X67313302Y-58917283D01*
X67160915Y-58946588D01*
X67026479Y-58972745D01*
X66920748Y-58993710D01*
X66854474Y-59007439D01*
X66838218Y-59011320D01*
X66821427Y-59020900D01*
X66808751Y-59042536D01*
X66799622Y-59083531D01*
X66793469Y-59151189D01*
X66789720Y-59252812D01*
X66787808Y-59395703D01*
X66787160Y-59587165D01*
X66787126Y-59665645D01*
X66787126Y-60303906D01*
X66940402Y-60334160D01*
X67025678Y-60350564D01*
X67152930Y-60374509D01*
X67306685Y-60403107D01*
X67471466Y-60433467D01*
X67517011Y-60441806D01*
X67669068Y-60471370D01*
X67801532Y-60500442D01*
X67903286Y-60526329D01*
X67963212Y-60546337D01*
X67973195Y-60552301D01*
X67997707Y-60594534D01*
X68032852Y-60676370D01*
X68071827Y-60781683D01*
X68079558Y-60804368D01*
X68130640Y-60945018D01*
X68194046Y-61103714D01*
X68256096Y-61246225D01*
X68256402Y-61246886D01*
X68359733Y-61470440D01*
X67680039Y-62470232D01*
X68116379Y-62907300D01*
X68248351Y-63037381D01*
X68368721Y-63152048D01*
X68470727Y-63245181D01*
X68547609Y-63310658D01*
X68592607Y-63342357D01*
X68599062Y-63344368D01*
X68636960Y-63328529D01*
X68714292Y-63284496D01*
X68822611Y-63217490D01*
X68953468Y-63132734D01*
X69094948Y-63037816D01*
X69238539Y-62940998D01*
X69366565Y-62856751D01*
X69470895Y-62790258D01*
X69543400Y-62746702D01*
X69575842Y-62731264D01*
X69615424Y-62744328D01*
X69690481Y-62778750D01*
X69785532Y-62827380D01*
X69795608Y-62832785D01*
X69923609Y-62896980D01*
X70011382Y-62928463D01*
X70065972Y-62928798D01*
X70094425Y-62899548D01*
X70094590Y-62899138D01*
X70108812Y-62864498D01*
X70142731Y-62782269D01*
X70193716Y-62658814D01*
X70259138Y-62500498D01*
X70336366Y-62313686D01*
X70422771Y-62104742D01*
X70506449Y-61902446D01*
X70598412Y-61679200D01*
X70682850Y-61472392D01*
X70757231Y-61288362D01*
X70819026Y-61133451D01*
X70865703Y-61013996D01*
X70894732Y-60936339D01*
X70903678Y-60907356D01*
X70881244Y-60874110D01*
X70822561Y-60821123D01*
X70744311Y-60762704D01*
X70521466Y-60577952D01*
X70347282Y-60366182D01*
X70223846Y-60131856D01*
X70153246Y-59879434D01*
X70137569Y-59613377D01*
X70148964Y-59490575D01*
X70211050Y-59235793D01*
X70317977Y-59010801D01*
X70463111Y-58817817D01*
X70639822Y-58659061D01*
X70841478Y-58536750D01*
X71061446Y-58453105D01*
X71293094Y-58410344D01*
X71529791Y-58410687D01*
X71764905Y-58456352D01*
X71991804Y-58549559D01*
X72203856Y-58692527D01*
X72292364Y-58773383D01*
X72462111Y-58981007D01*
X72580301Y-59207895D01*
X72647722Y-59447433D01*
X72665160Y-59693007D01*
X72633402Y-59938003D01*
X72553235Y-60175808D01*
X72425445Y-60399807D01*
X72250820Y-60603387D01*
X72055688Y-60762704D01*
X71974409Y-60823602D01*
X71916991Y-60876015D01*
X71896322Y-60907406D01*
X71907144Y-60941639D01*
X71937923Y-61023419D01*
X71986126Y-61146407D01*
X72049222Y-61304263D01*
X72124678Y-61490649D01*
X72209962Y-61699226D01*
X72293781Y-61902496D01*
X72386255Y-62125933D01*
X72471911Y-62332984D01*
X72548118Y-62517286D01*
X72612247Y-62672475D01*
X72661668Y-62792188D01*
X72693752Y-62870061D01*
X72705641Y-62899138D01*
X72733726Y-62928677D01*
X72788051Y-62928591D01*
X72875605Y-62897326D01*
X73003381Y-62833329D01*
X73004392Y-62832785D01*
X73100598Y-62783121D01*
X73178369Y-62746945D01*
X73222223Y-62731408D01*
X73224158Y-62731264D01*
X73257171Y-62747024D01*
X73330054Y-62790850D01*
X73434678Y-62857557D01*
X73562910Y-62941964D01*
X73705052Y-63037816D01*
X73849767Y-63134867D01*
X73980196Y-63219270D01*
X74087890Y-63285801D01*
X74164402Y-63329238D01*
X74200938Y-63344368D01*
X74234582Y-63324482D01*
X74302224Y-63268903D01*
X74397107Y-63183754D01*
X74512470Y-63075153D01*
X74641555Y-62949221D01*
X74683771Y-62907149D01*
X75120261Y-62469931D01*
X74788023Y-61982340D01*
X74687054Y-61832605D01*
X74598438Y-61698220D01*
X74527146Y-61586969D01*
X74478150Y-61506639D01*
X74456422Y-61465014D01*
X74455785Y-61462053D01*
X74467240Y-61422818D01*
X74498051Y-61343895D01*
X74542884Y-61238509D01*
X74574353Y-61167954D01*
X74633192Y-61032876D01*
X74688604Y-60896409D01*
X74731564Y-60781103D01*
X74743234Y-60745977D01*
X74776389Y-60652174D01*
X74808799Y-60579694D01*
X74826601Y-60552301D01*
X74865886Y-60535536D01*
X74951626Y-60511770D01*
X75072697Y-60483697D01*
X75217973Y-60454009D01*
X75282988Y-60441806D01*
X75448087Y-60411468D01*
X75606448Y-60382093D01*
X75742596Y-60356569D01*
X75841057Y-60337785D01*
X75859598Y-60334160D01*
X76012873Y-60303906D01*
X76012873Y-59665645D01*
X76012529Y-59455770D01*
X76011116Y-59296980D01*
X76008064Y-59181973D01*
X76002803Y-59103446D01*
X75994763Y-59054096D01*
X75983373Y-59026619D01*
X75968063Y-59013713D01*
X75961782Y-59011320D01*
X75923896Y-59002833D01*
X75840195Y-58985900D01*
X75721433Y-58962566D01*
X75578361Y-58934875D01*
X75421732Y-58904873D01*
X75262297Y-58874604D01*
X75110809Y-58846115D01*
X74978019Y-58821449D01*
X74874681Y-58802651D01*
X74811545Y-58791767D01*
X74797497Y-58789885D01*
X74784770Y-58764704D01*
X74756600Y-58697622D01*
X74718252Y-58601333D01*
X74703609Y-58563621D01*
X74644548Y-58417921D01*
X74575000Y-58256951D01*
X74512712Y-58121291D01*
X74466879Y-58017561D01*
X74436387Y-57932326D01*
X74426208Y-57880126D01*
X74427831Y-57873130D01*
X74449343Y-57840102D01*
X74498465Y-57766643D01*
X74569923Y-57660577D01*
X74658445Y-57529726D01*
X74758759Y-57381912D01*
X74778594Y-57352734D01*
X74894988Y-57179863D01*
X74980548Y-57048226D01*
X75038684Y-56951761D01*
X75072808Y-56884408D01*
X75086331Y-56840106D01*
X75082664Y-56812794D01*
X75082570Y-56812620D01*
X75053707Y-56776746D01*
X74989867Y-56707391D01*
X74897969Y-56611745D01*
X74784933Y-56496999D01*
X74657679Y-56370341D01*
X74643328Y-56356205D01*
X74482957Y-56200903D01*
X74359195Y-56086870D01*
X74269555Y-56012002D01*
X74211552Y-55974196D01*
X74186004Y-55969317D01*
X74148718Y-55990603D01*
X74071343Y-56039773D01*
X73961867Y-56111575D01*
X73828280Y-56200755D01*
X73678570Y-56302063D01*
X73643618Y-56325897D01*
X73147390Y-56664765D01*
X72923293Y-56563056D01*
X72787011Y-56503783D01*
X72640724Y-56444170D01*
X72514965Y-56396640D01*
X72509425Y-56394685D01*
X72411057Y-56358677D01*
X72335229Y-56328229D01*
X72298282Y-56309905D01*
X72298220Y-56309852D01*
X72286496Y-56276729D01*
X72266568Y-56195267D01*
X72240413Y-56074625D01*
X72210010Y-55923959D01*
X72177337Y-55752428D01*
X72174664Y-55737967D01*
X72141890Y-55561235D01*
X72111802Y-55400810D01*
X72086339Y-55266888D01*
X72067441Y-55169663D01*
X72057047Y-55119332D01*
X72056865Y-55118563D01*
X72050539Y-55097153D01*
X72038239Y-55080988D01*
X72012594Y-55069331D01*
X71966235Y-55061445D01*
X71891792Y-55056593D01*
X71781895Y-55054039D01*
X71629175Y-55053045D01*
X71426262Y-55052874D01*
X71400000Y-55052874D01*
X71190986Y-55052998D01*
G37*
X71190986Y-55052998D02*
X71032994Y-55053863D01*
X70918653Y-55056205D01*
X70840593Y-55060762D01*
X70791446Y-55068270D01*
X70763841Y-55079466D01*
X70750408Y-55095088D01*
X70743779Y-55115873D01*
X70743135Y-55118563D01*
X70733065Y-55167113D01*
X70714425Y-55262905D01*
X70689155Y-55395743D01*
X70659193Y-55555431D01*
X70626478Y-55731774D01*
X70625336Y-55737967D01*
X70592567Y-55910782D01*
X70561907Y-56063469D01*
X70535336Y-56186871D01*
X70514833Y-56271831D01*
X70502374Y-56309190D01*
X70501780Y-56309852D01*
X70465081Y-56328095D01*
X70389414Y-56358497D01*
X70291122Y-56394493D01*
X70290575Y-56394685D01*
X70166767Y-56441222D01*
X70020804Y-56500504D01*
X69883219Y-56560109D01*
X69876707Y-56563056D01*
X69652610Y-56664765D01*
X69156381Y-56325897D01*
X69004154Y-56222592D01*
X68866259Y-56130237D01*
X68750685Y-56054084D01*
X68665421Y-55999385D01*
X68618456Y-55971393D01*
X68613996Y-55969317D01*
X68579866Y-55978560D01*
X68516119Y-56023156D01*
X68420269Y-56105209D01*
X68289831Y-56226821D01*
X68156672Y-56356205D01*
X68028306Y-56483702D01*
X67913419Y-56600046D01*
X67818927Y-56698052D01*
X67751747Y-56770536D01*
X67718794Y-56810313D01*
X67717568Y-56812361D01*
X67713926Y-56839656D01*
X67727650Y-56884234D01*
X67762131Y-56952112D01*
X67820761Y-57049311D01*
X67906930Y-57181851D01*
X68021800Y-57352476D01*
X68123746Y-57502655D01*
X68214877Y-57637350D01*
X68289927Y-57748740D01*
X68343631Y-57829005D01*
X68370720Y-57870325D01*
X68372426Y-57873130D01*
X68369118Y-57912721D01*
X68344047Y-57989669D01*
X68302202Y-58089432D01*
X68287288Y-58121291D01*
X68222214Y-58263226D01*
X68152788Y-58424273D01*
X68096391Y-58563621D01*
X68055753Y-58667044D01*
X68023474Y-58745642D01*
X68004822Y-58786720D01*
X68002503Y-58789885D01*
X67968197Y-58795128D01*
X67887331Y-58809494D01*
X67770657Y-58830937D01*
X67628925Y-58857413D01*
X67472890Y-58886877D01*
X67313302Y-58917283D01*
X67160915Y-58946588D01*
X67026479Y-58972745D01*
X66920748Y-58993710D01*
X66854474Y-59007439D01*
X66838218Y-59011320D01*
X66821427Y-59020900D01*
X66808751Y-59042536D01*
X66799622Y-59083531D01*
X66793469Y-59151189D01*
X66789720Y-59252812D01*
X66787808Y-59395703D01*
X66787160Y-59587165D01*
X66787126Y-59665645D01*
X66787126Y-60303906D01*
X66940402Y-60334160D01*
X67025678Y-60350564D01*
X67152930Y-60374509D01*
X67306685Y-60403107D01*
X67471466Y-60433467D01*
X67517011Y-60441806D01*
X67669068Y-60471370D01*
X67801532Y-60500442D01*
X67903286Y-60526329D01*
X67963212Y-60546337D01*
X67973195Y-60552301D01*
X67997707Y-60594534D01*
X68032852Y-60676370D01*
X68071827Y-60781683D01*
X68079558Y-60804368D01*
X68130640Y-60945018D01*
X68194046Y-61103714D01*
X68256096Y-61246225D01*
X68256402Y-61246886D01*
X68359733Y-61470440D01*
X67680039Y-62470232D01*
X68116379Y-62907300D01*
X68248351Y-63037381D01*
X68368721Y-63152048D01*
X68470727Y-63245181D01*
X68547609Y-63310658D01*
X68592607Y-63342357D01*
X68599062Y-63344368D01*
X68636960Y-63328529D01*
X68714292Y-63284496D01*
X68822611Y-63217490D01*
X68953468Y-63132734D01*
X69094948Y-63037816D01*
X69238539Y-62940998D01*
X69366565Y-62856751D01*
X69470895Y-62790258D01*
X69543400Y-62746702D01*
X69575842Y-62731264D01*
X69615424Y-62744328D01*
X69690481Y-62778750D01*
X69785532Y-62827380D01*
X69795608Y-62832785D01*
X69923609Y-62896980D01*
X70011382Y-62928463D01*
X70065972Y-62928798D01*
X70094425Y-62899548D01*
X70094590Y-62899138D01*
X70108812Y-62864498D01*
X70142731Y-62782269D01*
X70193716Y-62658814D01*
X70259138Y-62500498D01*
X70336366Y-62313686D01*
X70422771Y-62104742D01*
X70506449Y-61902446D01*
X70598412Y-61679200D01*
X70682850Y-61472392D01*
X70757231Y-61288362D01*
X70819026Y-61133451D01*
X70865703Y-61013996D01*
X70894732Y-60936339D01*
X70903678Y-60907356D01*
X70881244Y-60874110D01*
X70822561Y-60821123D01*
X70744311Y-60762704D01*
X70521466Y-60577952D01*
X70347282Y-60366182D01*
X70223846Y-60131856D01*
X70153246Y-59879434D01*
X70137569Y-59613377D01*
X70148964Y-59490575D01*
X70211050Y-59235793D01*
X70317977Y-59010801D01*
X70463111Y-58817817D01*
X70639822Y-58659061D01*
X70841478Y-58536750D01*
X71061446Y-58453105D01*
X71293094Y-58410344D01*
X71529791Y-58410687D01*
X71764905Y-58456352D01*
X71991804Y-58549559D01*
X72203856Y-58692527D01*
X72292364Y-58773383D01*
X72462111Y-58981007D01*
X72580301Y-59207895D01*
X72647722Y-59447433D01*
X72665160Y-59693007D01*
X72633402Y-59938003D01*
X72553235Y-60175808D01*
X72425445Y-60399807D01*
X72250820Y-60603387D01*
X72055688Y-60762704D01*
X71974409Y-60823602D01*
X71916991Y-60876015D01*
X71896322Y-60907406D01*
X71907144Y-60941639D01*
X71937923Y-61023419D01*
X71986126Y-61146407D01*
X72049222Y-61304263D01*
X72124678Y-61490649D01*
X72209962Y-61699226D01*
X72293781Y-61902496D01*
X72386255Y-62125933D01*
X72471911Y-62332984D01*
X72548118Y-62517286D01*
X72612247Y-62672475D01*
X72661668Y-62792188D01*
X72693752Y-62870061D01*
X72705641Y-62899138D01*
X72733726Y-62928677D01*
X72788051Y-62928591D01*
X72875605Y-62897326D01*
X73003381Y-62833329D01*
X73004392Y-62832785D01*
X73100598Y-62783121D01*
X73178369Y-62746945D01*
X73222223Y-62731408D01*
X73224158Y-62731264D01*
X73257171Y-62747024D01*
X73330054Y-62790850D01*
X73434678Y-62857557D01*
X73562910Y-62941964D01*
X73705052Y-63037816D01*
X73849767Y-63134867D01*
X73980196Y-63219270D01*
X74087890Y-63285801D01*
X74164402Y-63329238D01*
X74200938Y-63344368D01*
X74234582Y-63324482D01*
X74302224Y-63268903D01*
X74397107Y-63183754D01*
X74512470Y-63075153D01*
X74641555Y-62949221D01*
X74683771Y-62907149D01*
X75120261Y-62469931D01*
X74788023Y-61982340D01*
X74687054Y-61832605D01*
X74598438Y-61698220D01*
X74527146Y-61586969D01*
X74478150Y-61506639D01*
X74456422Y-61465014D01*
X74455785Y-61462053D01*
X74467240Y-61422818D01*
X74498051Y-61343895D01*
X74542884Y-61238509D01*
X74574353Y-61167954D01*
X74633192Y-61032876D01*
X74688604Y-60896409D01*
X74731564Y-60781103D01*
X74743234Y-60745977D01*
X74776389Y-60652174D01*
X74808799Y-60579694D01*
X74826601Y-60552301D01*
X74865886Y-60535536D01*
X74951626Y-60511770D01*
X75072697Y-60483697D01*
X75217973Y-60454009D01*
X75282988Y-60441806D01*
X75448087Y-60411468D01*
X75606448Y-60382093D01*
X75742596Y-60356569D01*
X75841057Y-60337785D01*
X75859598Y-60334160D01*
X76012873Y-60303906D01*
X76012873Y-59665645D01*
X76012529Y-59455770D01*
X76011116Y-59296980D01*
X76008064Y-59181973D01*
X76002803Y-59103446D01*
X75994763Y-59054096D01*
X75983373Y-59026619D01*
X75968063Y-59013713D01*
X75961782Y-59011320D01*
X75923896Y-59002833D01*
X75840195Y-58985900D01*
X75721433Y-58962566D01*
X75578361Y-58934875D01*
X75421732Y-58904873D01*
X75262297Y-58874604D01*
X75110809Y-58846115D01*
X74978019Y-58821449D01*
X74874681Y-58802651D01*
X74811545Y-58791767D01*
X74797497Y-58789885D01*
X74784770Y-58764704D01*
X74756600Y-58697622D01*
X74718252Y-58601333D01*
X74703609Y-58563621D01*
X74644548Y-58417921D01*
X74575000Y-58256951D01*
X74512712Y-58121291D01*
X74466879Y-58017561D01*
X74436387Y-57932326D01*
X74426208Y-57880126D01*
X74427831Y-57873130D01*
X74449343Y-57840102D01*
X74498465Y-57766643D01*
X74569923Y-57660577D01*
X74658445Y-57529726D01*
X74758759Y-57381912D01*
X74778594Y-57352734D01*
X74894988Y-57179863D01*
X74980548Y-57048226D01*
X75038684Y-56951761D01*
X75072808Y-56884408D01*
X75086331Y-56840106D01*
X75082664Y-56812794D01*
X75082570Y-56812620D01*
X75053707Y-56776746D01*
X74989867Y-56707391D01*
X74897969Y-56611745D01*
X74784933Y-56496999D01*
X74657679Y-56370341D01*
X74643328Y-56356205D01*
X74482957Y-56200903D01*
X74359195Y-56086870D01*
X74269555Y-56012002D01*
X74211552Y-55974196D01*
X74186004Y-55969317D01*
X74148718Y-55990603D01*
X74071343Y-56039773D01*
X73961867Y-56111575D01*
X73828280Y-56200755D01*
X73678570Y-56302063D01*
X73643618Y-56325897D01*
X73147390Y-56664765D01*
X72923293Y-56563056D01*
X72787011Y-56503783D01*
X72640724Y-56444170D01*
X72514965Y-56396640D01*
X72509425Y-56394685D01*
X72411057Y-56358677D01*
X72335229Y-56328229D01*
X72298282Y-56309905D01*
X72298220Y-56309852D01*
X72286496Y-56276729D01*
X72266568Y-56195267D01*
X72240413Y-56074625D01*
X72210010Y-55923959D01*
X72177337Y-55752428D01*
X72174664Y-55737967D01*
X72141890Y-55561235D01*
X72111802Y-55400810D01*
X72086339Y-55266888D01*
X72067441Y-55169663D01*
X72057047Y-55119332D01*
X72056865Y-55118563D01*
X72050539Y-55097153D01*
X72038239Y-55080988D01*
X72012594Y-55069331D01*
X71966235Y-55061445D01*
X71891792Y-55056593D01*
X71781895Y-55054039D01*
X71629175Y-55053045D01*
X71426262Y-55052874D01*
X71400000Y-55052874D01*
X71190986Y-55052998D01*
D14*
%TO.C,J3*%
X64870000Y-78130000D02*
X64870000Y-75470000D01*
X75090000Y-78130000D02*
X64870000Y-78130000D01*
X75090000Y-75470000D02*
X64870000Y-75470000D01*
X75090000Y-78130000D02*
X75090000Y-75470000D01*
X76360000Y-78130000D02*
X77690000Y-78130000D01*
X77690000Y-78130000D02*
X77690000Y-76800000D01*
%TO.C,D2*%
X56050000Y-65450000D02*
X56050000Y-72750000D01*
X61550000Y-65450000D02*
X61550000Y-72750000D01*
X61550000Y-72750000D02*
X60400000Y-72750000D01*
%TO.C,D3*%
X86250000Y-72750000D02*
X85100000Y-72750000D01*
X86250000Y-65450000D02*
X86250000Y-72750000D01*
X80750000Y-65450000D02*
X80750000Y-72750000D01*
%TO.C,J4*%
X67410000Y-48590000D02*
X67410000Y-45930000D01*
X75090000Y-48590000D02*
X67410000Y-48590000D01*
X75090000Y-45930000D02*
X67410000Y-45930000D01*
X75090000Y-48590000D02*
X75090000Y-45930000D01*
X76360000Y-48590000D02*
X77690000Y-48590000D01*
X77690000Y-48590000D02*
X77690000Y-47260000D01*
%TO.C,J3*%
D12*
X78793333Y-76152380D02*
X78793333Y-76866666D01*
X78840952Y-77009523D01*
X78936190Y-77104761D01*
X79079047Y-77152380D01*
X79174285Y-77152380D01*
X78412380Y-76152380D02*
X77793333Y-76152380D01*
X78126666Y-76533333D01*
X77983809Y-76533333D01*
X77888571Y-76580952D01*
X77840952Y-76628571D01*
X77793333Y-76723809D01*
X77793333Y-76961904D01*
X77840952Y-77057142D01*
X77888571Y-77104761D01*
X77983809Y-77152380D01*
X78269523Y-77152380D01*
X78364761Y-77104761D01*
X78412380Y-77057142D01*
%TO.C,D2*%
X62952380Y-68361904D02*
X61952380Y-68361904D01*
X61952380Y-68600000D01*
X62000000Y-68742857D01*
X62095238Y-68838095D01*
X62190476Y-68885714D01*
X62380952Y-68933333D01*
X62523809Y-68933333D01*
X62714285Y-68885714D01*
X62809523Y-68838095D01*
X62904761Y-68742857D01*
X62952380Y-68600000D01*
X62952380Y-68361904D01*
X62047619Y-69314285D02*
X62000000Y-69361904D01*
X61952380Y-69457142D01*
X61952380Y-69695238D01*
X62000000Y-69790476D01*
X62047619Y-69838095D01*
X62142857Y-69885714D01*
X62238095Y-69885714D01*
X62380952Y-69838095D01*
X62952380Y-69266666D01*
X62952380Y-69885714D01*
D15*
X58626190Y-67445238D02*
X59126190Y-67564285D01*
X58769047Y-67659523D01*
X59126190Y-67754761D01*
X58626190Y-67873809D01*
X59102380Y-68040476D02*
X59126190Y-68111904D01*
X59126190Y-68230952D01*
X59102380Y-68278571D01*
X59078571Y-68302380D01*
X59030952Y-68326190D01*
X58983333Y-68326190D01*
X58935714Y-68302380D01*
X58911904Y-68278571D01*
X58888095Y-68230952D01*
X58864285Y-68135714D01*
X58840476Y-68088095D01*
X58816666Y-68064285D01*
X58769047Y-68040476D01*
X58721428Y-68040476D01*
X58673809Y-68064285D01*
X58650000Y-68088095D01*
X58626190Y-68135714D01*
X58626190Y-68254761D01*
X58650000Y-68326190D01*
X58673809Y-68516666D02*
X58650000Y-68540476D01*
X58626190Y-68588095D01*
X58626190Y-68707142D01*
X58650000Y-68754761D01*
X58673809Y-68778571D01*
X58721428Y-68802380D01*
X58769047Y-68802380D01*
X58840476Y-68778571D01*
X59126190Y-68492857D01*
X59126190Y-68802380D01*
X58840476Y-69088095D02*
X58816666Y-69040476D01*
X58792857Y-69016666D01*
X58745238Y-68992857D01*
X58721428Y-68992857D01*
X58673809Y-69016666D01*
X58650000Y-69040476D01*
X58626190Y-69088095D01*
X58626190Y-69183333D01*
X58650000Y-69230952D01*
X58673809Y-69254761D01*
X58721428Y-69278571D01*
X58745238Y-69278571D01*
X58792857Y-69254761D01*
X58816666Y-69230952D01*
X58840476Y-69183333D01*
X58840476Y-69088095D01*
X58864285Y-69040476D01*
X58888095Y-69016666D01*
X58935714Y-68992857D01*
X59030952Y-68992857D01*
X59078571Y-69016666D01*
X59102380Y-69040476D01*
X59126190Y-69088095D01*
X59126190Y-69183333D01*
X59102380Y-69230952D01*
X59078571Y-69254761D01*
X59030952Y-69278571D01*
X58935714Y-69278571D01*
X58888095Y-69254761D01*
X58864285Y-69230952D01*
X58840476Y-69183333D01*
X59126190Y-69754761D02*
X59126190Y-69469047D01*
X59126190Y-69611904D02*
X58626190Y-69611904D01*
X58697619Y-69564285D01*
X58745238Y-69516666D01*
X58769047Y-69469047D01*
X58673809Y-69945238D02*
X58650000Y-69969047D01*
X58626190Y-70016666D01*
X58626190Y-70135714D01*
X58650000Y-70183333D01*
X58673809Y-70207142D01*
X58721428Y-70230952D01*
X58769047Y-70230952D01*
X58840476Y-70207142D01*
X59126190Y-69921428D01*
X59126190Y-70230952D01*
X58864285Y-70611904D02*
X58888095Y-70683333D01*
X58911904Y-70707142D01*
X58959523Y-70730952D01*
X59030952Y-70730952D01*
X59078571Y-70707142D01*
X59102380Y-70683333D01*
X59126190Y-70635714D01*
X59126190Y-70445238D01*
X58626190Y-70445238D01*
X58626190Y-70611904D01*
X58650000Y-70659523D01*
X58673809Y-70683333D01*
X58721428Y-70707142D01*
X58769047Y-70707142D01*
X58816666Y-70683333D01*
X58840476Y-70659523D01*
X58864285Y-70611904D01*
X58864285Y-70445238D01*
D12*
X57752380Y-68485714D02*
X57752380Y-67914285D01*
X57752380Y-68200000D02*
X56752380Y-68200000D01*
X56895238Y-68104761D01*
X56990476Y-68009523D01*
X57038095Y-67914285D01*
%TO.C,D3*%
X80552380Y-68361904D02*
X79552380Y-68361904D01*
X79552380Y-68600000D01*
X79600000Y-68742857D01*
X79695238Y-68838095D01*
X79790476Y-68885714D01*
X79980952Y-68933333D01*
X80123809Y-68933333D01*
X80314285Y-68885714D01*
X80409523Y-68838095D01*
X80504761Y-68742857D01*
X80552380Y-68600000D01*
X80552380Y-68361904D01*
X79552380Y-69266666D02*
X79552380Y-69885714D01*
X79933333Y-69552380D01*
X79933333Y-69695238D01*
X79980952Y-69790476D01*
X80028571Y-69838095D01*
X80123809Y-69885714D01*
X80361904Y-69885714D01*
X80457142Y-69838095D01*
X80504761Y-69790476D01*
X80552380Y-69695238D01*
X80552380Y-69409523D01*
X80504761Y-69314285D01*
X80457142Y-69266666D01*
D15*
X83326190Y-67745238D02*
X83826190Y-67864285D01*
X83469047Y-67959523D01*
X83826190Y-68054761D01*
X83326190Y-68173809D01*
X83802380Y-68340476D02*
X83826190Y-68411904D01*
X83826190Y-68530952D01*
X83802380Y-68578571D01*
X83778571Y-68602380D01*
X83730952Y-68626190D01*
X83683333Y-68626190D01*
X83635714Y-68602380D01*
X83611904Y-68578571D01*
X83588095Y-68530952D01*
X83564285Y-68435714D01*
X83540476Y-68388095D01*
X83516666Y-68364285D01*
X83469047Y-68340476D01*
X83421428Y-68340476D01*
X83373809Y-68364285D01*
X83350000Y-68388095D01*
X83326190Y-68435714D01*
X83326190Y-68554761D01*
X83350000Y-68626190D01*
X83373809Y-68816666D02*
X83350000Y-68840476D01*
X83326190Y-68888095D01*
X83326190Y-69007142D01*
X83350000Y-69054761D01*
X83373809Y-69078571D01*
X83421428Y-69102380D01*
X83469047Y-69102380D01*
X83540476Y-69078571D01*
X83826190Y-68792857D01*
X83826190Y-69102380D01*
X83540476Y-69388095D02*
X83516666Y-69340476D01*
X83492857Y-69316666D01*
X83445238Y-69292857D01*
X83421428Y-69292857D01*
X83373809Y-69316666D01*
X83350000Y-69340476D01*
X83326190Y-69388095D01*
X83326190Y-69483333D01*
X83350000Y-69530952D01*
X83373809Y-69554761D01*
X83421428Y-69578571D01*
X83445238Y-69578571D01*
X83492857Y-69554761D01*
X83516666Y-69530952D01*
X83540476Y-69483333D01*
X83540476Y-69388095D01*
X83564285Y-69340476D01*
X83588095Y-69316666D01*
X83635714Y-69292857D01*
X83730952Y-69292857D01*
X83778571Y-69316666D01*
X83802380Y-69340476D01*
X83826190Y-69388095D01*
X83826190Y-69483333D01*
X83802380Y-69530952D01*
X83778571Y-69554761D01*
X83730952Y-69578571D01*
X83635714Y-69578571D01*
X83588095Y-69554761D01*
X83564285Y-69530952D01*
X83540476Y-69483333D01*
X83826190Y-70054761D02*
X83826190Y-69769047D01*
X83826190Y-69911904D02*
X83326190Y-69911904D01*
X83397619Y-69864285D01*
X83445238Y-69816666D01*
X83469047Y-69769047D01*
X83373809Y-70245238D02*
X83350000Y-70269047D01*
X83326190Y-70316666D01*
X83326190Y-70435714D01*
X83350000Y-70483333D01*
X83373809Y-70507142D01*
X83421428Y-70530952D01*
X83469047Y-70530952D01*
X83540476Y-70507142D01*
X83826190Y-70221428D01*
X83826190Y-70530952D01*
X83564285Y-70911904D02*
X83588095Y-70983333D01*
X83611904Y-71007142D01*
X83659523Y-71030952D01*
X83730952Y-71030952D01*
X83778571Y-71007142D01*
X83802380Y-70983333D01*
X83826190Y-70935714D01*
X83826190Y-70745238D01*
X83326190Y-70745238D01*
X83326190Y-70911904D01*
X83350000Y-70959523D01*
X83373809Y-70983333D01*
X83421428Y-71007142D01*
X83469047Y-71007142D01*
X83516666Y-70983333D01*
X83540476Y-70959523D01*
X83564285Y-70911904D01*
X83564285Y-70745238D01*
D12*
X82152380Y-68385714D02*
X82152380Y-67814285D01*
X82152380Y-68100000D02*
X81152380Y-68100000D01*
X81295238Y-68004761D01*
X81390476Y-67909523D01*
X81438095Y-67814285D01*
%TO.C,J1*%
X58753333Y-42832380D02*
X58753333Y-43546666D01*
X58800952Y-43689523D01*
X58896190Y-43784761D01*
X59039047Y-43832380D01*
X59134285Y-43832380D01*
X57753333Y-43832380D02*
X58324761Y-43832380D01*
X58039047Y-43832380D02*
X58039047Y-42832380D01*
X58134285Y-42975238D01*
X58229523Y-43070476D01*
X58324761Y-43118095D01*
%TO.C,J2*%
X84153333Y-42832380D02*
X84153333Y-43546666D01*
X84200952Y-43689523D01*
X84296190Y-43784761D01*
X84439047Y-43832380D01*
X84534285Y-43832380D01*
X83724761Y-42927619D02*
X83677142Y-42880000D01*
X83581904Y-42832380D01*
X83343809Y-42832380D01*
X83248571Y-42880000D01*
X83200952Y-42927619D01*
X83153333Y-43022857D01*
X83153333Y-43118095D01*
X83200952Y-43260952D01*
X83772380Y-43832380D01*
X83153333Y-43832380D01*
%TO.C,J4*%
X79023333Y-46712380D02*
X79023333Y-47426666D01*
X79070952Y-47569523D01*
X79166190Y-47664761D01*
X79309047Y-47712380D01*
X79404285Y-47712380D01*
X78118571Y-47045714D02*
X78118571Y-47712380D01*
X78356666Y-46664761D02*
X78594761Y-47379047D01*
X77975714Y-47379047D01*
%TD*%
M02*
