%TF.GenerationSoftware,KiCad,Pcbnew,(5.1.8)-1*%
%TF.CreationDate,2021-03-07T11:54:50+01:00*%
%TF.ProjectId,addon_MH-Z19,6164646f-6e5f-44d4-982d-5a31392e6b69,rev?*%
%TF.SameCoordinates,Original*%
%TF.FileFunction,Copper,L1,Top*%
%TF.FilePolarity,Positive*%
%FSLAX46Y46*%
G04 Gerber Fmt 4.6, Leading zero omitted, Abs format (unit mm)*
G04 Created by KiCad (PCBNEW (5.1.8)-1) date 2021-03-07 11:54:50*
%MOMM*%
%LPD*%
G01*
G04 APERTURE LIST*
%TA.AperFunction,ComponentPad*%
%ADD10R,1.700000X1.700000*%
%TD*%
%TA.AperFunction,ComponentPad*%
%ADD11O,1.700000X1.700000*%
%TD*%
%TA.AperFunction,SMDPad,CuDef*%
%ADD12R,0.600000X1.380000*%
%TD*%
%TA.AperFunction,SMDPad,CuDef*%
%ADD13R,1.200000X1.800000*%
%TD*%
%TA.AperFunction,SMDPad,CuDef*%
%ADD14R,0.600000X1.550000*%
%TD*%
%TA.AperFunction,ViaPad*%
%ADD15C,0.800000*%
%TD*%
%TA.AperFunction,Conductor*%
%ADD16C,0.250000*%
%TD*%
%TA.AperFunction,NonConductor*%
%ADD17C,0.254000*%
%TD*%
%TA.AperFunction,NonConductor*%
%ADD18C,0.100000*%
%TD*%
G04 APERTURE END LIST*
D10*
%TO.P,J3,1*%
%TO.N,N/C*%
X76360000Y-76800000D03*
D11*
%TO.P,J3,2*%
%TO.N,TX*%
X73820000Y-76800000D03*
%TO.P,J3,3*%
%TO.N,RX*%
X71280000Y-76800000D03*
%TO.P,J3,4*%
%TO.N,N/C*%
X68740000Y-76800000D03*
%TO.P,J3,5*%
%TO.N,HD*%
X66200000Y-76800000D03*
%TD*%
%TO.P,C1,1*%
%TO.N,+5V*%
%TA.AperFunction,SMDPad,CuDef*%
G36*
G01*
X77750003Y-72625000D02*
X76449997Y-72625000D01*
G75*
G02*
X76200000Y-72375003I0J249997D01*
G01*
X76200000Y-71549997D01*
G75*
G02*
X76449997Y-71300000I249997J0D01*
G01*
X77750003Y-71300000D01*
G75*
G02*
X78000000Y-71549997I0J-249997D01*
G01*
X78000000Y-72375003D01*
G75*
G02*
X77750003Y-72625000I-249997J0D01*
G01*
G37*
%TD.AperFunction*%
%TO.P,C1,2*%
%TO.N,GND*%
%TA.AperFunction,SMDPad,CuDef*%
G36*
G01*
X77750003Y-69500000D02*
X76449997Y-69500000D01*
G75*
G02*
X76200000Y-69250003I0J249997D01*
G01*
X76200000Y-68424997D01*
G75*
G02*
X76449997Y-68175000I249997J0D01*
G01*
X77750003Y-68175000D01*
G75*
G02*
X78000000Y-68424997I0J-249997D01*
G01*
X78000000Y-69250003D01*
G75*
G02*
X77750003Y-69500000I-249997J0D01*
G01*
G37*
%TD.AperFunction*%
%TD*%
%TO.P,C2,2*%
%TO.N,GND*%
%TA.AperFunction,SMDPad,CuDef*%
G36*
G01*
X64749997Y-71200000D02*
X66050003Y-71200000D01*
G75*
G02*
X66300000Y-71449997I0J-249997D01*
G01*
X66300000Y-72275003D01*
G75*
G02*
X66050003Y-72525000I-249997J0D01*
G01*
X64749997Y-72525000D01*
G75*
G02*
X64500000Y-72275003I0J249997D01*
G01*
X64500000Y-71449997D01*
G75*
G02*
X64749997Y-71200000I249997J0D01*
G01*
G37*
%TD.AperFunction*%
%TO.P,C2,1*%
%TO.N,+3V3*%
%TA.AperFunction,SMDPad,CuDef*%
G36*
G01*
X64749997Y-68075000D02*
X66050003Y-68075000D01*
G75*
G02*
X66300000Y-68324997I0J-249997D01*
G01*
X66300000Y-69150003D01*
G75*
G02*
X66050003Y-69400000I-249997J0D01*
G01*
X64749997Y-69400000D01*
G75*
G02*
X64500000Y-69150003I0J249997D01*
G01*
X64500000Y-68324997D01*
G75*
G02*
X64749997Y-68075000I249997J0D01*
G01*
G37*
%TD.AperFunction*%
%TD*%
%TO.P,D1,1*%
%TO.N,PC1*%
%TA.AperFunction,SMDPad,CuDef*%
G36*
G01*
X67025000Y-54800000D02*
X65775000Y-54800000D01*
G75*
G02*
X65525000Y-54550000I0J250000D01*
G01*
X65525000Y-53625000D01*
G75*
G02*
X65775000Y-53375000I250000J0D01*
G01*
X67025000Y-53375000D01*
G75*
G02*
X67275000Y-53625000I0J-250000D01*
G01*
X67275000Y-54550000D01*
G75*
G02*
X67025000Y-54800000I-250000J0D01*
G01*
G37*
%TD.AperFunction*%
%TO.P,D1,2*%
%TO.N,Net-(D1-Pad2)*%
%TA.AperFunction,SMDPad,CuDef*%
G36*
G01*
X67025000Y-51825000D02*
X65775000Y-51825000D01*
G75*
G02*
X65525000Y-51575000I0J250000D01*
G01*
X65525000Y-50650000D01*
G75*
G02*
X65775000Y-50400000I250000J0D01*
G01*
X67025000Y-50400000D01*
G75*
G02*
X67275000Y-50650000I0J-250000D01*
G01*
X67275000Y-51575000D01*
G75*
G02*
X67025000Y-51825000I-250000J0D01*
G01*
G37*
%TD.AperFunction*%
%TD*%
D10*
%TO.P,J1,1*%
%TO.N,+3V3*%
X58420000Y-45710000D03*
D11*
%TO.P,J1,2*%
%TO.N,GND*%
X58420000Y-48250000D03*
%TO.P,J1,3*%
%TO.N,N/C*%
X58420000Y-50790000D03*
%TO.P,J1,4*%
X58420000Y-53330000D03*
%TO.P,J1,5*%
%TO.N,AdHoc*%
X58420000Y-55870000D03*
%TO.P,J1,6*%
%TO.N,PC1*%
X58420000Y-58410000D03*
%TO.P,J1,7*%
%TO.N,N/C*%
X58420000Y-60950000D03*
%TO.P,J1,8*%
X58420000Y-63490000D03*
%TD*%
%TO.P,J2,8*%
%TO.N,N/C*%
X83820000Y-63490000D03*
%TO.P,J2,7*%
X83820000Y-60950000D03*
%TO.P,J2,6*%
X83820000Y-58410000D03*
%TO.P,J2,5*%
X83820000Y-55870000D03*
%TO.P,J2,4*%
%TO.N,PWM*%
X83820000Y-53330000D03*
%TO.P,J2,3*%
%TO.N,HD*%
X83820000Y-50790000D03*
%TO.P,J2,2*%
%TO.N,RX*%
X83820000Y-48250000D03*
D10*
%TO.P,J2,1*%
%TO.N,TX*%
X83820000Y-45710000D03*
%TD*%
%TO.P,R1,1*%
%TO.N,+5V*%
%TA.AperFunction,SMDPad,CuDef*%
G36*
G01*
X75100000Y-50674999D02*
X75100000Y-51925001D01*
G75*
G02*
X74850001Y-52175000I-249999J0D01*
G01*
X74049999Y-52175000D01*
G75*
G02*
X73800000Y-51925001I0J249999D01*
G01*
X73800000Y-50674999D01*
G75*
G02*
X74049999Y-50425000I249999J0D01*
G01*
X74850001Y-50425000D01*
G75*
G02*
X75100000Y-50674999I0J-249999D01*
G01*
G37*
%TD.AperFunction*%
%TO.P,R1,2*%
%TO.N,Net-(D1-Pad2)*%
%TA.AperFunction,SMDPad,CuDef*%
G36*
G01*
X72000000Y-50674999D02*
X72000000Y-51925001D01*
G75*
G02*
X71750001Y-52175000I-249999J0D01*
G01*
X70949999Y-52175000D01*
G75*
G02*
X70700000Y-51925001I0J249999D01*
G01*
X70700000Y-50674999D01*
G75*
G02*
X70949999Y-50425000I249999J0D01*
G01*
X71750001Y-50425000D01*
G75*
G02*
X72000000Y-50674999I0J-249999D01*
G01*
G37*
%TD.AperFunction*%
%TD*%
%TO.P,J4,1*%
%TO.N,+5V*%
X76360000Y-47260000D03*
D11*
%TO.P,J4,2*%
%TO.N,GND*%
X73820000Y-47260000D03*
%TO.P,J4,3*%
%TO.N,N/C*%
X71280000Y-47260000D03*
%TO.P,J4,4*%
%TO.N,PWM*%
X68740000Y-47260000D03*
%TD*%
D12*
%TO.P,U2,1*%
%TO.N,GND*%
X72350000Y-68835000D03*
%TO.P,U2,2*%
%TO.N,+3V3*%
X70450000Y-68835000D03*
%TO.P,U2,3*%
%TO.N,+5V*%
X71400000Y-71165000D03*
%TD*%
D13*
%TO.P,J5,S2*%
%TO.N,Net-(J5-PadS1)*%
X85400000Y-77575000D03*
%TO.P,J5,S1*%
X79800000Y-77575000D03*
D14*
%TO.P,J5,1*%
%TO.N,+5V*%
X81100000Y-73700000D03*
%TO.P,J5,2*%
%TO.N,GND*%
X82100000Y-73700000D03*
%TO.P,J5,3*%
%TO.N,AdHoc*%
X83100000Y-73700000D03*
%TO.P,J5,4*%
%TO.N,HD*%
X84100000Y-73700000D03*
%TD*%
D15*
%TO.N,+5V*%
X81900000Y-67000000D03*
X77300000Y-73500000D03*
X60700000Y-74000000D03*
%TO.N,GND*%
X60400000Y-71200000D03*
X71300000Y-67200000D03*
X77100000Y-67200000D03*
%TO.N,PC1*%
X66700000Y-60200000D03*
%TO.N,Net-(D1-Pad2)*%
X66400000Y-49700000D03*
%TO.N,Net-(D2-Pad2)*%
X71400000Y-65800000D03*
X66400000Y-67100000D03*
%TO.N,HD*%
X61600000Y-58700000D03*
X78174999Y-48974999D03*
%TO.N,AdHoc*%
X63200000Y-75300000D03*
X63200000Y-68900000D03*
%TD*%
D16*
%TO.N,+5V*%
X75062500Y-74000000D02*
X77100000Y-71962500D01*
X72197500Y-71962500D02*
X71400000Y-71165000D01*
X77100000Y-71962500D02*
X72197500Y-71962500D01*
X74450000Y-68665000D02*
X74450000Y-55600000D01*
X71950000Y-71165000D02*
X74450000Y-68665000D01*
X71400000Y-71165000D02*
X71950000Y-71165000D01*
X77100000Y-73300000D02*
X77300000Y-73500000D01*
X77100000Y-71962500D02*
X77100000Y-73300000D01*
X74500000Y-51250000D02*
X74450000Y-51300000D01*
X74450000Y-55600000D02*
X74450000Y-51300000D01*
X60700000Y-74000000D02*
X75062500Y-74000000D01*
X77100000Y-71800000D02*
X81900000Y-67000000D01*
X77100000Y-71962500D02*
X77100000Y-71800000D01*
X74450000Y-49170000D02*
X76360000Y-47260000D01*
X74450000Y-51300000D02*
X74450000Y-49170000D01*
X80900000Y-73500000D02*
X81100000Y-73700000D01*
X77300000Y-73500000D02*
X80900000Y-73500000D01*
%TO.N,GND*%
X67412499Y-69850001D02*
X65400000Y-71862500D01*
X71334999Y-69850001D02*
X67412499Y-69850001D01*
X72350000Y-68835000D02*
X71334999Y-69850001D01*
X72350000Y-68250000D02*
X71300000Y-67200000D01*
X72350000Y-68835000D02*
X72350000Y-68250000D01*
X77100000Y-68837500D02*
X77100000Y-67200000D01*
X65337500Y-71800000D02*
X65400000Y-71862500D01*
X72350000Y-54950000D02*
X72350000Y-54761810D01*
X72350000Y-68835000D02*
X72350000Y-54950000D01*
X65400000Y-71862500D02*
X65400000Y-71650000D01*
X61062500Y-71862500D02*
X60400000Y-71200000D01*
X65400000Y-71862500D02*
X61062500Y-71862500D01*
X72008589Y-46084999D02*
X60585001Y-46084999D01*
X60585001Y-46084999D02*
X58420000Y-48250000D01*
X73501795Y-47578205D02*
X72008589Y-46084999D01*
X72350000Y-48730000D02*
X73501795Y-47578205D01*
X72350000Y-54950000D02*
X72350000Y-48730000D01*
X82248001Y-66274999D02*
X83500001Y-67526999D01*
X79662501Y-66274999D02*
X82248001Y-66274999D01*
X77100000Y-68837500D02*
X79662501Y-66274999D01*
X82100000Y-68927000D02*
X82100000Y-73700000D01*
X83500001Y-67526999D02*
X82100000Y-68927000D01*
%TO.N,+3V3*%
X57244999Y-48814001D02*
X57244999Y-46885001D01*
X57244999Y-46885001D02*
X58420000Y-45710000D01*
X57855999Y-49425001D02*
X57244999Y-48814001D01*
X58984001Y-49425001D02*
X57855999Y-49425001D01*
X65400000Y-55841000D02*
X58984001Y-49425001D01*
X65400000Y-68737500D02*
X65400000Y-55841000D01*
X70352500Y-68737500D02*
X70450000Y-68835000D01*
X65400000Y-68737500D02*
X70352500Y-68737500D01*
%TO.N,PC1*%
X66600000Y-54287500D02*
X66400000Y-54087500D01*
X66600000Y-60100000D02*
X66600000Y-54287500D01*
X66700000Y-60200000D02*
X66600000Y-60100000D01*
%TO.N,Net-(D1-Pad2)*%
X66400000Y-49700000D02*
X66400000Y-51112500D01*
X66587500Y-51300000D02*
X66400000Y-51112500D01*
X71350000Y-51300000D02*
X66587500Y-51300000D01*
%TO.N,Net-(D2-Pad2)*%
X70100000Y-67100000D02*
X66400000Y-67100000D01*
X71400000Y-65800000D02*
X70100000Y-67100000D01*
%TO.N,HD*%
X59674999Y-74048001D02*
X59674999Y-60625001D01*
X62426998Y-76800000D02*
X59674999Y-74048001D01*
X66200000Y-76800000D02*
X62426998Y-76800000D01*
X59674999Y-60625001D02*
X61600000Y-58700000D01*
X82004999Y-48974999D02*
X83820000Y-50790000D01*
X78174999Y-48974999D02*
X82004999Y-48974999D01*
X66200000Y-76800000D02*
X67375001Y-77975001D01*
X77470001Y-77975001D02*
X67375001Y-77975001D01*
X77535001Y-75750010D02*
X77535001Y-77910001D01*
X77535001Y-77910001D02*
X77470001Y-77975001D01*
X82586400Y-75750010D02*
X77535001Y-75750010D01*
X84100000Y-74236410D02*
X82586400Y-75750010D01*
X84100000Y-73700000D02*
X84100000Y-74236410D01*
%TO.N,AdHoc*%
X82400000Y-75300000D02*
X63200000Y-75300000D01*
X59843002Y-55870000D02*
X58420000Y-55870000D01*
X63200000Y-59226998D02*
X59843002Y-55870000D01*
X63200000Y-68900000D02*
X63200000Y-59226998D01*
X83100000Y-74600000D02*
X83100000Y-73700000D01*
X82400000Y-75300000D02*
X83100000Y-74600000D01*
%TO.N,Net-(J5-PadS1)*%
X79800000Y-77575000D02*
X85400000Y-77575000D01*
%TD*%
D17*
X56610025Y-49238277D02*
X56633799Y-49267245D01*
X56704998Y-49354002D01*
X56734001Y-49377804D01*
X57239704Y-49883509D01*
X57104010Y-50086589D01*
X56992068Y-50356842D01*
X56935000Y-50643740D01*
X56935000Y-50936260D01*
X56992068Y-51223158D01*
X57104010Y-51493411D01*
X57266525Y-51736632D01*
X57473368Y-51943475D01*
X57647760Y-52060000D01*
X57473368Y-52176525D01*
X57266525Y-52383368D01*
X57104010Y-52626589D01*
X56992068Y-52896842D01*
X56935000Y-53183740D01*
X56935000Y-53476260D01*
X56992068Y-53763158D01*
X57104010Y-54033411D01*
X57266525Y-54276632D01*
X57473368Y-54483475D01*
X57647760Y-54600000D01*
X57473368Y-54716525D01*
X57266525Y-54923368D01*
X57104010Y-55166589D01*
X56992068Y-55436842D01*
X56935000Y-55723740D01*
X56935000Y-56016260D01*
X56992068Y-56303158D01*
X57104010Y-56573411D01*
X57266525Y-56816632D01*
X57473368Y-57023475D01*
X57647760Y-57140000D01*
X57473368Y-57256525D01*
X57266525Y-57463368D01*
X57104010Y-57706589D01*
X56992068Y-57976842D01*
X56935000Y-58263740D01*
X56935000Y-58556260D01*
X56992068Y-58843158D01*
X57104010Y-59113411D01*
X57266525Y-59356632D01*
X57473368Y-59563475D01*
X57647760Y-59680000D01*
X57473368Y-59796525D01*
X57266525Y-60003368D01*
X57104010Y-60246589D01*
X56992068Y-60516842D01*
X56935000Y-60803740D01*
X56935000Y-61096260D01*
X56992068Y-61383158D01*
X57104010Y-61653411D01*
X57266525Y-61896632D01*
X57473368Y-62103475D01*
X57647760Y-62220000D01*
X57473368Y-62336525D01*
X57266525Y-62543368D01*
X57104010Y-62786589D01*
X56992068Y-63056842D01*
X56935000Y-63343740D01*
X56935000Y-63636260D01*
X56992068Y-63923158D01*
X57104010Y-64193411D01*
X57266525Y-64436632D01*
X57473368Y-64643475D01*
X57716589Y-64805990D01*
X57986842Y-64917932D01*
X58273740Y-64975000D01*
X58566260Y-64975000D01*
X58853158Y-64917932D01*
X58915000Y-64892316D01*
X58914999Y-74010679D01*
X58911323Y-74048001D01*
X58914999Y-74085323D01*
X58914999Y-74085333D01*
X58925996Y-74196986D01*
X58969453Y-74340247D01*
X59040025Y-74472277D01*
X59058859Y-74495226D01*
X59134998Y-74588002D01*
X59164002Y-74611805D01*
X61863198Y-77311002D01*
X61886997Y-77340001D01*
X62002722Y-77434974D01*
X62134751Y-77505546D01*
X62278012Y-77549003D01*
X62389665Y-77560000D01*
X62389674Y-77560000D01*
X62426997Y-77563676D01*
X62464320Y-77560000D01*
X64921822Y-77560000D01*
X65046525Y-77746632D01*
X65253368Y-77953475D01*
X65405311Y-78055000D01*
X56565000Y-78055000D01*
X56565000Y-49154042D01*
X56610025Y-49238277D01*
%TA.AperFunction,NonConductor*%
D18*
G36*
X56610025Y-49238277D02*
G01*
X56633799Y-49267245D01*
X56704998Y-49354002D01*
X56734001Y-49377804D01*
X57239704Y-49883509D01*
X57104010Y-50086589D01*
X56992068Y-50356842D01*
X56935000Y-50643740D01*
X56935000Y-50936260D01*
X56992068Y-51223158D01*
X57104010Y-51493411D01*
X57266525Y-51736632D01*
X57473368Y-51943475D01*
X57647760Y-52060000D01*
X57473368Y-52176525D01*
X57266525Y-52383368D01*
X57104010Y-52626589D01*
X56992068Y-52896842D01*
X56935000Y-53183740D01*
X56935000Y-53476260D01*
X56992068Y-53763158D01*
X57104010Y-54033411D01*
X57266525Y-54276632D01*
X57473368Y-54483475D01*
X57647760Y-54600000D01*
X57473368Y-54716525D01*
X57266525Y-54923368D01*
X57104010Y-55166589D01*
X56992068Y-55436842D01*
X56935000Y-55723740D01*
X56935000Y-56016260D01*
X56992068Y-56303158D01*
X57104010Y-56573411D01*
X57266525Y-56816632D01*
X57473368Y-57023475D01*
X57647760Y-57140000D01*
X57473368Y-57256525D01*
X57266525Y-57463368D01*
X57104010Y-57706589D01*
X56992068Y-57976842D01*
X56935000Y-58263740D01*
X56935000Y-58556260D01*
X56992068Y-58843158D01*
X57104010Y-59113411D01*
X57266525Y-59356632D01*
X57473368Y-59563475D01*
X57647760Y-59680000D01*
X57473368Y-59796525D01*
X57266525Y-60003368D01*
X57104010Y-60246589D01*
X56992068Y-60516842D01*
X56935000Y-60803740D01*
X56935000Y-61096260D01*
X56992068Y-61383158D01*
X57104010Y-61653411D01*
X57266525Y-61896632D01*
X57473368Y-62103475D01*
X57647760Y-62220000D01*
X57473368Y-62336525D01*
X57266525Y-62543368D01*
X57104010Y-62786589D01*
X56992068Y-63056842D01*
X56935000Y-63343740D01*
X56935000Y-63636260D01*
X56992068Y-63923158D01*
X57104010Y-64193411D01*
X57266525Y-64436632D01*
X57473368Y-64643475D01*
X57716589Y-64805990D01*
X57986842Y-64917932D01*
X58273740Y-64975000D01*
X58566260Y-64975000D01*
X58853158Y-64917932D01*
X58915000Y-64892316D01*
X58914999Y-74010679D01*
X58911323Y-74048001D01*
X58914999Y-74085323D01*
X58914999Y-74085333D01*
X58925996Y-74196986D01*
X58969453Y-74340247D01*
X59040025Y-74472277D01*
X59058859Y-74495226D01*
X59134998Y-74588002D01*
X59164002Y-74611805D01*
X61863198Y-77311002D01*
X61886997Y-77340001D01*
X62002722Y-77434974D01*
X62134751Y-77505546D01*
X62278012Y-77549003D01*
X62389665Y-77560000D01*
X62389674Y-77560000D01*
X62426997Y-77563676D01*
X62464320Y-77560000D01*
X64921822Y-77560000D01*
X65046525Y-77746632D01*
X65253368Y-77953475D01*
X65405311Y-78055000D01*
X56565000Y-78055000D01*
X56565000Y-49154042D01*
X56610025Y-49238277D01*
G37*
%TD.AperFunction*%
D17*
X78574188Y-76550518D02*
X78561928Y-76675000D01*
X78561928Y-78055000D01*
X78284397Y-78055000D01*
X78295001Y-77947334D01*
X78295001Y-77947323D01*
X78298677Y-77910001D01*
X78295001Y-77872678D01*
X78295001Y-76510010D01*
X78586476Y-76510010D01*
X78574188Y-76550518D01*
%TA.AperFunction,NonConductor*%
D18*
G36*
X78574188Y-76550518D02*
G01*
X78561928Y-76675000D01*
X78561928Y-78055000D01*
X78284397Y-78055000D01*
X78295001Y-77947334D01*
X78295001Y-77947323D01*
X78298677Y-77910001D01*
X78295001Y-77872678D01*
X78295001Y-76510010D01*
X78586476Y-76510010D01*
X78574188Y-76550518D01*
G37*
%TD.AperFunction*%
D17*
X85675001Y-76036928D02*
X84800000Y-76036928D01*
X84675518Y-76049188D01*
X84555820Y-76085498D01*
X84445506Y-76144463D01*
X84348815Y-76223815D01*
X84269463Y-76320506D01*
X84210498Y-76430820D01*
X84174188Y-76550518D01*
X84161928Y-76675000D01*
X84161928Y-76815000D01*
X81038072Y-76815000D01*
X81038072Y-76675000D01*
X81025812Y-76550518D01*
X81013524Y-76510010D01*
X82549078Y-76510010D01*
X82586400Y-76513686D01*
X82623722Y-76510010D01*
X82623733Y-76510010D01*
X82735386Y-76499013D01*
X82878647Y-76455556D01*
X83010676Y-76384984D01*
X83126401Y-76290011D01*
X83150204Y-76261007D01*
X84298140Y-75113072D01*
X84400000Y-75113072D01*
X84524482Y-75100812D01*
X84644180Y-75064502D01*
X84754494Y-75005537D01*
X84851185Y-74926185D01*
X84930537Y-74829494D01*
X84989502Y-74719180D01*
X85025812Y-74599482D01*
X85038072Y-74475000D01*
X85038072Y-72925000D01*
X85025812Y-72800518D01*
X84989502Y-72680820D01*
X84930537Y-72570506D01*
X84851185Y-72473815D01*
X84754494Y-72394463D01*
X84644180Y-72335498D01*
X84524482Y-72299188D01*
X84400000Y-72286928D01*
X83800000Y-72286928D01*
X83675518Y-72299188D01*
X83600000Y-72322096D01*
X83524482Y-72299188D01*
X83400000Y-72286928D01*
X82860000Y-72286928D01*
X82860000Y-69241801D01*
X84011019Y-68090784D01*
X84040001Y-68066999D01*
X84063785Y-68038018D01*
X84063800Y-68038003D01*
X84134974Y-67951276D01*
X84205546Y-67819246D01*
X84249003Y-67675986D01*
X84263677Y-67527000D01*
X84262908Y-67519188D01*
X84249003Y-67378012D01*
X84205546Y-67234752D01*
X84134974Y-67102722D01*
X84063800Y-67015995D01*
X84063785Y-67015980D01*
X84040001Y-66986999D01*
X84011019Y-66963214D01*
X82811804Y-65764001D01*
X82788002Y-65734998D01*
X82672277Y-65640025D01*
X82540248Y-65569453D01*
X82396987Y-65525996D01*
X82285334Y-65514999D01*
X82285323Y-65514999D01*
X82248001Y-65511323D01*
X82210679Y-65514999D01*
X79699826Y-65514999D01*
X79662501Y-65511323D01*
X79625176Y-65514999D01*
X79625168Y-65514999D01*
X79513515Y-65525996D01*
X79370254Y-65569453D01*
X79238225Y-65640025D01*
X79122500Y-65734998D01*
X79098702Y-65763996D01*
X78056965Y-66805733D01*
X78017205Y-66709744D01*
X77903937Y-66540226D01*
X77759774Y-66396063D01*
X77590256Y-66282795D01*
X77401898Y-66204774D01*
X77201939Y-66165000D01*
X76998061Y-66165000D01*
X76798102Y-66204774D01*
X76609744Y-66282795D01*
X76440226Y-66396063D01*
X76296063Y-66540226D01*
X76182795Y-66709744D01*
X76104774Y-66898102D01*
X76065000Y-67098061D01*
X76065000Y-67301939D01*
X76104774Y-67501898D01*
X76143140Y-67594520D01*
X76110148Y-67604528D01*
X75956612Y-67686595D01*
X75822037Y-67797037D01*
X75711595Y-67931612D01*
X75629528Y-68085148D01*
X75578992Y-68251743D01*
X75561928Y-68424997D01*
X75561928Y-69250003D01*
X75578992Y-69423257D01*
X75629528Y-69589852D01*
X75711595Y-69743388D01*
X75822037Y-69877963D01*
X75956612Y-69988405D01*
X76110148Y-70070472D01*
X76276743Y-70121008D01*
X76449997Y-70138072D01*
X77687127Y-70138072D01*
X77163271Y-70661928D01*
X76449997Y-70661928D01*
X76276743Y-70678992D01*
X76110148Y-70729528D01*
X75956612Y-70811595D01*
X75822037Y-70922037D01*
X75711595Y-71056612D01*
X75633616Y-71202500D01*
X72987301Y-71202500D01*
X74961004Y-69228798D01*
X74990001Y-69205001D01*
X75039690Y-69144455D01*
X75084974Y-69089277D01*
X75155546Y-68957247D01*
X75164721Y-68927000D01*
X75199003Y-68813986D01*
X75210000Y-68702333D01*
X75210000Y-68702323D01*
X75213676Y-68665000D01*
X75210000Y-68627677D01*
X75210000Y-52734702D01*
X75343387Y-52663405D01*
X75477962Y-52552962D01*
X75588405Y-52418387D01*
X75670472Y-52264851D01*
X75721008Y-52098255D01*
X75738072Y-51925001D01*
X75738072Y-50674999D01*
X75721008Y-50501745D01*
X75670472Y-50335149D01*
X75588405Y-50181613D01*
X75477962Y-50047038D01*
X75343387Y-49936595D01*
X75210000Y-49865298D01*
X75210000Y-49484801D01*
X75946730Y-48748072D01*
X77164860Y-48748072D01*
X77139999Y-48873060D01*
X77139999Y-49076938D01*
X77179773Y-49276897D01*
X77257794Y-49465255D01*
X77371062Y-49634773D01*
X77515225Y-49778936D01*
X77684743Y-49892204D01*
X77873101Y-49970225D01*
X78073060Y-50009999D01*
X78276938Y-50009999D01*
X78476897Y-49970225D01*
X78665255Y-49892204D01*
X78834773Y-49778936D01*
X78878710Y-49734999D01*
X81690198Y-49734999D01*
X82378790Y-50423592D01*
X82335000Y-50643740D01*
X82335000Y-50936260D01*
X82392068Y-51223158D01*
X82504010Y-51493411D01*
X82666525Y-51736632D01*
X82873368Y-51943475D01*
X83047760Y-52060000D01*
X82873368Y-52176525D01*
X82666525Y-52383368D01*
X82504010Y-52626589D01*
X82392068Y-52896842D01*
X82335000Y-53183740D01*
X82335000Y-53476260D01*
X82392068Y-53763158D01*
X82504010Y-54033411D01*
X82666525Y-54276632D01*
X82873368Y-54483475D01*
X83047760Y-54600000D01*
X82873368Y-54716525D01*
X82666525Y-54923368D01*
X82504010Y-55166589D01*
X82392068Y-55436842D01*
X82335000Y-55723740D01*
X82335000Y-56016260D01*
X82392068Y-56303158D01*
X82504010Y-56573411D01*
X82666525Y-56816632D01*
X82873368Y-57023475D01*
X83047760Y-57140000D01*
X82873368Y-57256525D01*
X82666525Y-57463368D01*
X82504010Y-57706589D01*
X82392068Y-57976842D01*
X82335000Y-58263740D01*
X82335000Y-58556260D01*
X82392068Y-58843158D01*
X82504010Y-59113411D01*
X82666525Y-59356632D01*
X82873368Y-59563475D01*
X83047760Y-59680000D01*
X82873368Y-59796525D01*
X82666525Y-60003368D01*
X82504010Y-60246589D01*
X82392068Y-60516842D01*
X82335000Y-60803740D01*
X82335000Y-61096260D01*
X82392068Y-61383158D01*
X82504010Y-61653411D01*
X82666525Y-61896632D01*
X82873368Y-62103475D01*
X83047760Y-62220000D01*
X82873368Y-62336525D01*
X82666525Y-62543368D01*
X82504010Y-62786589D01*
X82392068Y-63056842D01*
X82335000Y-63343740D01*
X82335000Y-63636260D01*
X82392068Y-63923158D01*
X82504010Y-64193411D01*
X82666525Y-64436632D01*
X82873368Y-64643475D01*
X83116589Y-64805990D01*
X83386842Y-64917932D01*
X83673740Y-64975000D01*
X83966260Y-64975000D01*
X84253158Y-64917932D01*
X84523411Y-64805990D01*
X84766632Y-64643475D01*
X84973475Y-64436632D01*
X85135990Y-64193411D01*
X85247932Y-63923158D01*
X85305000Y-63636260D01*
X85305000Y-63343740D01*
X85247932Y-63056842D01*
X85135990Y-62786589D01*
X84973475Y-62543368D01*
X84766632Y-62336525D01*
X84592240Y-62220000D01*
X84766632Y-62103475D01*
X84973475Y-61896632D01*
X85135990Y-61653411D01*
X85247932Y-61383158D01*
X85305000Y-61096260D01*
X85305000Y-60803740D01*
X85247932Y-60516842D01*
X85135990Y-60246589D01*
X84973475Y-60003368D01*
X84766632Y-59796525D01*
X84592240Y-59680000D01*
X84766632Y-59563475D01*
X84973475Y-59356632D01*
X85135990Y-59113411D01*
X85247932Y-58843158D01*
X85305000Y-58556260D01*
X85305000Y-58263740D01*
X85247932Y-57976842D01*
X85135990Y-57706589D01*
X84973475Y-57463368D01*
X84766632Y-57256525D01*
X84592240Y-57140000D01*
X84766632Y-57023475D01*
X84973475Y-56816632D01*
X85135990Y-56573411D01*
X85247932Y-56303158D01*
X85305000Y-56016260D01*
X85305000Y-55723740D01*
X85247932Y-55436842D01*
X85135990Y-55166589D01*
X84973475Y-54923368D01*
X84766632Y-54716525D01*
X84592240Y-54600000D01*
X84766632Y-54483475D01*
X84973475Y-54276632D01*
X85135990Y-54033411D01*
X85247932Y-53763158D01*
X85305000Y-53476260D01*
X85305000Y-53183740D01*
X85247932Y-52896842D01*
X85135990Y-52626589D01*
X84973475Y-52383368D01*
X84766632Y-52176525D01*
X84592240Y-52060000D01*
X84766632Y-51943475D01*
X84973475Y-51736632D01*
X85135990Y-51493411D01*
X85247932Y-51223158D01*
X85305000Y-50936260D01*
X85305000Y-50643740D01*
X85247932Y-50356842D01*
X85135990Y-50086589D01*
X84973475Y-49843368D01*
X84766632Y-49636525D01*
X84592240Y-49520000D01*
X84766632Y-49403475D01*
X84973475Y-49196632D01*
X85135990Y-48953411D01*
X85247932Y-48683158D01*
X85305000Y-48396260D01*
X85305000Y-48103740D01*
X85247932Y-47816842D01*
X85135990Y-47546589D01*
X84973475Y-47303368D01*
X84841620Y-47171513D01*
X84914180Y-47149502D01*
X85024494Y-47090537D01*
X85121185Y-47011185D01*
X85200537Y-46914494D01*
X85259502Y-46804180D01*
X85295812Y-46684482D01*
X85308072Y-46560000D01*
X85308072Y-44860000D01*
X85295812Y-44735518D01*
X85259502Y-44615820D01*
X85200537Y-44505506D01*
X85121185Y-44408815D01*
X85024494Y-44329463D01*
X84914180Y-44270498D01*
X84794482Y-44234188D01*
X84670000Y-44221928D01*
X82970000Y-44221928D01*
X82845518Y-44234188D01*
X82725820Y-44270498D01*
X82615506Y-44329463D01*
X82518815Y-44408815D01*
X82439463Y-44505506D01*
X82380498Y-44615820D01*
X82344188Y-44735518D01*
X82331928Y-44860000D01*
X82331928Y-46560000D01*
X82344188Y-46684482D01*
X82380498Y-46804180D01*
X82439463Y-46914494D01*
X82518815Y-47011185D01*
X82615506Y-47090537D01*
X82725820Y-47149502D01*
X82798380Y-47171513D01*
X82666525Y-47303368D01*
X82504010Y-47546589D01*
X82392068Y-47816842D01*
X82335000Y-48103740D01*
X82335000Y-48289633D01*
X82297246Y-48269453D01*
X82153985Y-48225996D01*
X82042332Y-48214999D01*
X82042321Y-48214999D01*
X82004999Y-48211323D01*
X81967677Y-48214999D01*
X78878710Y-48214999D01*
X78834773Y-48171062D01*
X78665255Y-48057794D01*
X78476897Y-47979773D01*
X78276938Y-47939999D01*
X78073060Y-47939999D01*
X77873101Y-47979773D01*
X77848072Y-47990140D01*
X77848072Y-46410000D01*
X77835812Y-46285518D01*
X77799502Y-46165820D01*
X77740537Y-46055506D01*
X77661185Y-45958815D01*
X77564494Y-45879463D01*
X77454180Y-45820498D01*
X77334482Y-45784188D01*
X77210000Y-45771928D01*
X75510000Y-45771928D01*
X75385518Y-45784188D01*
X75265820Y-45820498D01*
X75155506Y-45879463D01*
X75058815Y-45958815D01*
X74979463Y-46055506D01*
X74920498Y-46165820D01*
X74898487Y-46238380D01*
X74766632Y-46106525D01*
X74523411Y-45944010D01*
X74253158Y-45832068D01*
X73966260Y-45775000D01*
X73673740Y-45775000D01*
X73386842Y-45832068D01*
X73116589Y-45944010D01*
X73012171Y-46013780D01*
X72572393Y-45574002D01*
X72548590Y-45544998D01*
X72432865Y-45450025D01*
X72300836Y-45379453D01*
X72157575Y-45335996D01*
X72045922Y-45324999D01*
X72045911Y-45324999D01*
X72008589Y-45321323D01*
X71971267Y-45324999D01*
X60622326Y-45324999D01*
X60585001Y-45321323D01*
X60547676Y-45324999D01*
X60547668Y-45324999D01*
X60436015Y-45335996D01*
X60292754Y-45379453D01*
X60160725Y-45450025D01*
X60045000Y-45544998D01*
X60021202Y-45573996D01*
X59908072Y-45687126D01*
X59908072Y-44860000D01*
X59895812Y-44735518D01*
X59859502Y-44615820D01*
X59800537Y-44505506D01*
X59721185Y-44408815D01*
X59624494Y-44329463D01*
X59514180Y-44270498D01*
X59394482Y-44234188D01*
X59270000Y-44221928D01*
X57570000Y-44221928D01*
X57445518Y-44234188D01*
X57325820Y-44270498D01*
X57215506Y-44329463D01*
X57118815Y-44408815D01*
X57039463Y-44505506D01*
X56980498Y-44615820D01*
X56944188Y-44735518D01*
X56931928Y-44860000D01*
X56931928Y-46123271D01*
X56733997Y-46321202D01*
X56704999Y-46345000D01*
X56681201Y-46373998D01*
X56681200Y-46373999D01*
X56610025Y-46460725D01*
X56565000Y-46544960D01*
X56565000Y-42085000D01*
X85675000Y-42085000D01*
X85675001Y-76036928D01*
%TA.AperFunction,NonConductor*%
D18*
G36*
X85675001Y-76036928D02*
G01*
X84800000Y-76036928D01*
X84675518Y-76049188D01*
X84555820Y-76085498D01*
X84445506Y-76144463D01*
X84348815Y-76223815D01*
X84269463Y-76320506D01*
X84210498Y-76430820D01*
X84174188Y-76550518D01*
X84161928Y-76675000D01*
X84161928Y-76815000D01*
X81038072Y-76815000D01*
X81038072Y-76675000D01*
X81025812Y-76550518D01*
X81013524Y-76510010D01*
X82549078Y-76510010D01*
X82586400Y-76513686D01*
X82623722Y-76510010D01*
X82623733Y-76510010D01*
X82735386Y-76499013D01*
X82878647Y-76455556D01*
X83010676Y-76384984D01*
X83126401Y-76290011D01*
X83150204Y-76261007D01*
X84298140Y-75113072D01*
X84400000Y-75113072D01*
X84524482Y-75100812D01*
X84644180Y-75064502D01*
X84754494Y-75005537D01*
X84851185Y-74926185D01*
X84930537Y-74829494D01*
X84989502Y-74719180D01*
X85025812Y-74599482D01*
X85038072Y-74475000D01*
X85038072Y-72925000D01*
X85025812Y-72800518D01*
X84989502Y-72680820D01*
X84930537Y-72570506D01*
X84851185Y-72473815D01*
X84754494Y-72394463D01*
X84644180Y-72335498D01*
X84524482Y-72299188D01*
X84400000Y-72286928D01*
X83800000Y-72286928D01*
X83675518Y-72299188D01*
X83600000Y-72322096D01*
X83524482Y-72299188D01*
X83400000Y-72286928D01*
X82860000Y-72286928D01*
X82860000Y-69241801D01*
X84011019Y-68090784D01*
X84040001Y-68066999D01*
X84063785Y-68038018D01*
X84063800Y-68038003D01*
X84134974Y-67951276D01*
X84205546Y-67819246D01*
X84249003Y-67675986D01*
X84263677Y-67527000D01*
X84262908Y-67519188D01*
X84249003Y-67378012D01*
X84205546Y-67234752D01*
X84134974Y-67102722D01*
X84063800Y-67015995D01*
X84063785Y-67015980D01*
X84040001Y-66986999D01*
X84011019Y-66963214D01*
X82811804Y-65764001D01*
X82788002Y-65734998D01*
X82672277Y-65640025D01*
X82540248Y-65569453D01*
X82396987Y-65525996D01*
X82285334Y-65514999D01*
X82285323Y-65514999D01*
X82248001Y-65511323D01*
X82210679Y-65514999D01*
X79699826Y-65514999D01*
X79662501Y-65511323D01*
X79625176Y-65514999D01*
X79625168Y-65514999D01*
X79513515Y-65525996D01*
X79370254Y-65569453D01*
X79238225Y-65640025D01*
X79122500Y-65734998D01*
X79098702Y-65763996D01*
X78056965Y-66805733D01*
X78017205Y-66709744D01*
X77903937Y-66540226D01*
X77759774Y-66396063D01*
X77590256Y-66282795D01*
X77401898Y-66204774D01*
X77201939Y-66165000D01*
X76998061Y-66165000D01*
X76798102Y-66204774D01*
X76609744Y-66282795D01*
X76440226Y-66396063D01*
X76296063Y-66540226D01*
X76182795Y-66709744D01*
X76104774Y-66898102D01*
X76065000Y-67098061D01*
X76065000Y-67301939D01*
X76104774Y-67501898D01*
X76143140Y-67594520D01*
X76110148Y-67604528D01*
X75956612Y-67686595D01*
X75822037Y-67797037D01*
X75711595Y-67931612D01*
X75629528Y-68085148D01*
X75578992Y-68251743D01*
X75561928Y-68424997D01*
X75561928Y-69250003D01*
X75578992Y-69423257D01*
X75629528Y-69589852D01*
X75711595Y-69743388D01*
X75822037Y-69877963D01*
X75956612Y-69988405D01*
X76110148Y-70070472D01*
X76276743Y-70121008D01*
X76449997Y-70138072D01*
X77687127Y-70138072D01*
X77163271Y-70661928D01*
X76449997Y-70661928D01*
X76276743Y-70678992D01*
X76110148Y-70729528D01*
X75956612Y-70811595D01*
X75822037Y-70922037D01*
X75711595Y-71056612D01*
X75633616Y-71202500D01*
X72987301Y-71202500D01*
X74961004Y-69228798D01*
X74990001Y-69205001D01*
X75039690Y-69144455D01*
X75084974Y-69089277D01*
X75155546Y-68957247D01*
X75164721Y-68927000D01*
X75199003Y-68813986D01*
X75210000Y-68702333D01*
X75210000Y-68702323D01*
X75213676Y-68665000D01*
X75210000Y-68627677D01*
X75210000Y-52734702D01*
X75343387Y-52663405D01*
X75477962Y-52552962D01*
X75588405Y-52418387D01*
X75670472Y-52264851D01*
X75721008Y-52098255D01*
X75738072Y-51925001D01*
X75738072Y-50674999D01*
X75721008Y-50501745D01*
X75670472Y-50335149D01*
X75588405Y-50181613D01*
X75477962Y-50047038D01*
X75343387Y-49936595D01*
X75210000Y-49865298D01*
X75210000Y-49484801D01*
X75946730Y-48748072D01*
X77164860Y-48748072D01*
X77139999Y-48873060D01*
X77139999Y-49076938D01*
X77179773Y-49276897D01*
X77257794Y-49465255D01*
X77371062Y-49634773D01*
X77515225Y-49778936D01*
X77684743Y-49892204D01*
X77873101Y-49970225D01*
X78073060Y-50009999D01*
X78276938Y-50009999D01*
X78476897Y-49970225D01*
X78665255Y-49892204D01*
X78834773Y-49778936D01*
X78878710Y-49734999D01*
X81690198Y-49734999D01*
X82378790Y-50423592D01*
X82335000Y-50643740D01*
X82335000Y-50936260D01*
X82392068Y-51223158D01*
X82504010Y-51493411D01*
X82666525Y-51736632D01*
X82873368Y-51943475D01*
X83047760Y-52060000D01*
X82873368Y-52176525D01*
X82666525Y-52383368D01*
X82504010Y-52626589D01*
X82392068Y-52896842D01*
X82335000Y-53183740D01*
X82335000Y-53476260D01*
X82392068Y-53763158D01*
X82504010Y-54033411D01*
X82666525Y-54276632D01*
X82873368Y-54483475D01*
X83047760Y-54600000D01*
X82873368Y-54716525D01*
X82666525Y-54923368D01*
X82504010Y-55166589D01*
X82392068Y-55436842D01*
X82335000Y-55723740D01*
X82335000Y-56016260D01*
X82392068Y-56303158D01*
X82504010Y-56573411D01*
X82666525Y-56816632D01*
X82873368Y-57023475D01*
X83047760Y-57140000D01*
X82873368Y-57256525D01*
X82666525Y-57463368D01*
X82504010Y-57706589D01*
X82392068Y-57976842D01*
X82335000Y-58263740D01*
X82335000Y-58556260D01*
X82392068Y-58843158D01*
X82504010Y-59113411D01*
X82666525Y-59356632D01*
X82873368Y-59563475D01*
X83047760Y-59680000D01*
X82873368Y-59796525D01*
X82666525Y-60003368D01*
X82504010Y-60246589D01*
X82392068Y-60516842D01*
X82335000Y-60803740D01*
X82335000Y-61096260D01*
X82392068Y-61383158D01*
X82504010Y-61653411D01*
X82666525Y-61896632D01*
X82873368Y-62103475D01*
X83047760Y-62220000D01*
X82873368Y-62336525D01*
X82666525Y-62543368D01*
X82504010Y-62786589D01*
X82392068Y-63056842D01*
X82335000Y-63343740D01*
X82335000Y-63636260D01*
X82392068Y-63923158D01*
X82504010Y-64193411D01*
X82666525Y-64436632D01*
X82873368Y-64643475D01*
X83116589Y-64805990D01*
X83386842Y-64917932D01*
X83673740Y-64975000D01*
X83966260Y-64975000D01*
X84253158Y-64917932D01*
X84523411Y-64805990D01*
X84766632Y-64643475D01*
X84973475Y-64436632D01*
X85135990Y-64193411D01*
X85247932Y-63923158D01*
X85305000Y-63636260D01*
X85305000Y-63343740D01*
X85247932Y-63056842D01*
X85135990Y-62786589D01*
X84973475Y-62543368D01*
X84766632Y-62336525D01*
X84592240Y-62220000D01*
X84766632Y-62103475D01*
X84973475Y-61896632D01*
X85135990Y-61653411D01*
X85247932Y-61383158D01*
X85305000Y-61096260D01*
X85305000Y-60803740D01*
X85247932Y-60516842D01*
X85135990Y-60246589D01*
X84973475Y-60003368D01*
X84766632Y-59796525D01*
X84592240Y-59680000D01*
X84766632Y-59563475D01*
X84973475Y-59356632D01*
X85135990Y-59113411D01*
X85247932Y-58843158D01*
X85305000Y-58556260D01*
X85305000Y-58263740D01*
X85247932Y-57976842D01*
X85135990Y-57706589D01*
X84973475Y-57463368D01*
X84766632Y-57256525D01*
X84592240Y-57140000D01*
X84766632Y-57023475D01*
X84973475Y-56816632D01*
X85135990Y-56573411D01*
X85247932Y-56303158D01*
X85305000Y-56016260D01*
X85305000Y-55723740D01*
X85247932Y-55436842D01*
X85135990Y-55166589D01*
X84973475Y-54923368D01*
X84766632Y-54716525D01*
X84592240Y-54600000D01*
X84766632Y-54483475D01*
X84973475Y-54276632D01*
X85135990Y-54033411D01*
X85247932Y-53763158D01*
X85305000Y-53476260D01*
X85305000Y-53183740D01*
X85247932Y-52896842D01*
X85135990Y-52626589D01*
X84973475Y-52383368D01*
X84766632Y-52176525D01*
X84592240Y-52060000D01*
X84766632Y-51943475D01*
X84973475Y-51736632D01*
X85135990Y-51493411D01*
X85247932Y-51223158D01*
X85305000Y-50936260D01*
X85305000Y-50643740D01*
X85247932Y-50356842D01*
X85135990Y-50086589D01*
X84973475Y-49843368D01*
X84766632Y-49636525D01*
X84592240Y-49520000D01*
X84766632Y-49403475D01*
X84973475Y-49196632D01*
X85135990Y-48953411D01*
X85247932Y-48683158D01*
X85305000Y-48396260D01*
X85305000Y-48103740D01*
X85247932Y-47816842D01*
X85135990Y-47546589D01*
X84973475Y-47303368D01*
X84841620Y-47171513D01*
X84914180Y-47149502D01*
X85024494Y-47090537D01*
X85121185Y-47011185D01*
X85200537Y-46914494D01*
X85259502Y-46804180D01*
X85295812Y-46684482D01*
X85308072Y-46560000D01*
X85308072Y-44860000D01*
X85295812Y-44735518D01*
X85259502Y-44615820D01*
X85200537Y-44505506D01*
X85121185Y-44408815D01*
X85024494Y-44329463D01*
X84914180Y-44270498D01*
X84794482Y-44234188D01*
X84670000Y-44221928D01*
X82970000Y-44221928D01*
X82845518Y-44234188D01*
X82725820Y-44270498D01*
X82615506Y-44329463D01*
X82518815Y-44408815D01*
X82439463Y-44505506D01*
X82380498Y-44615820D01*
X82344188Y-44735518D01*
X82331928Y-44860000D01*
X82331928Y-46560000D01*
X82344188Y-46684482D01*
X82380498Y-46804180D01*
X82439463Y-46914494D01*
X82518815Y-47011185D01*
X82615506Y-47090537D01*
X82725820Y-47149502D01*
X82798380Y-47171513D01*
X82666525Y-47303368D01*
X82504010Y-47546589D01*
X82392068Y-47816842D01*
X82335000Y-48103740D01*
X82335000Y-48289633D01*
X82297246Y-48269453D01*
X82153985Y-48225996D01*
X82042332Y-48214999D01*
X82042321Y-48214999D01*
X82004999Y-48211323D01*
X81967677Y-48214999D01*
X78878710Y-48214999D01*
X78834773Y-48171062D01*
X78665255Y-48057794D01*
X78476897Y-47979773D01*
X78276938Y-47939999D01*
X78073060Y-47939999D01*
X77873101Y-47979773D01*
X77848072Y-47990140D01*
X77848072Y-46410000D01*
X77835812Y-46285518D01*
X77799502Y-46165820D01*
X77740537Y-46055506D01*
X77661185Y-45958815D01*
X77564494Y-45879463D01*
X77454180Y-45820498D01*
X77334482Y-45784188D01*
X77210000Y-45771928D01*
X75510000Y-45771928D01*
X75385518Y-45784188D01*
X75265820Y-45820498D01*
X75155506Y-45879463D01*
X75058815Y-45958815D01*
X74979463Y-46055506D01*
X74920498Y-46165820D01*
X74898487Y-46238380D01*
X74766632Y-46106525D01*
X74523411Y-45944010D01*
X74253158Y-45832068D01*
X73966260Y-45775000D01*
X73673740Y-45775000D01*
X73386842Y-45832068D01*
X73116589Y-45944010D01*
X73012171Y-46013780D01*
X72572393Y-45574002D01*
X72548590Y-45544998D01*
X72432865Y-45450025D01*
X72300836Y-45379453D01*
X72157575Y-45335996D01*
X72045922Y-45324999D01*
X72045911Y-45324999D01*
X72008589Y-45321323D01*
X71971267Y-45324999D01*
X60622326Y-45324999D01*
X60585001Y-45321323D01*
X60547676Y-45324999D01*
X60547668Y-45324999D01*
X60436015Y-45335996D01*
X60292754Y-45379453D01*
X60160725Y-45450025D01*
X60045000Y-45544998D01*
X60021202Y-45573996D01*
X59908072Y-45687126D01*
X59908072Y-44860000D01*
X59895812Y-44735518D01*
X59859502Y-44615820D01*
X59800537Y-44505506D01*
X59721185Y-44408815D01*
X59624494Y-44329463D01*
X59514180Y-44270498D01*
X59394482Y-44234188D01*
X59270000Y-44221928D01*
X57570000Y-44221928D01*
X57445518Y-44234188D01*
X57325820Y-44270498D01*
X57215506Y-44329463D01*
X57118815Y-44408815D01*
X57039463Y-44505506D01*
X56980498Y-44615820D01*
X56944188Y-44735518D01*
X56931928Y-44860000D01*
X56931928Y-46123271D01*
X56733997Y-46321202D01*
X56704999Y-46345000D01*
X56681201Y-46373998D01*
X56681200Y-46373999D01*
X56610025Y-46460725D01*
X56565000Y-46544960D01*
X56565000Y-42085000D01*
X85675000Y-42085000D01*
X85675001Y-76036928D01*
G37*
%TD.AperFunction*%
D17*
X62282795Y-74809744D02*
X62204774Y-74998102D01*
X62165000Y-75198061D01*
X62165000Y-75401939D01*
X62180211Y-75478411D01*
X61461799Y-74760000D01*
X62316033Y-74760000D01*
X62282795Y-74809744D01*
%TA.AperFunction,NonConductor*%
D18*
G36*
X62282795Y-74809744D02*
G01*
X62204774Y-74998102D01*
X62165000Y-75198061D01*
X62165000Y-75401939D01*
X62180211Y-75478411D01*
X61461799Y-74760000D01*
X62316033Y-74760000D01*
X62282795Y-74809744D01*
G37*
%TD.AperFunction*%
D17*
X76382795Y-73990256D02*
X76496063Y-74159774D01*
X76640226Y-74303937D01*
X76809744Y-74417205D01*
X76998102Y-74495226D01*
X77198061Y-74535000D01*
X77401939Y-74535000D01*
X77601898Y-74495226D01*
X77790256Y-74417205D01*
X77959774Y-74303937D01*
X78003711Y-74260000D01*
X80161928Y-74260000D01*
X80161928Y-74475000D01*
X80168330Y-74540000D01*
X75602502Y-74540000D01*
X75626304Y-74510997D01*
X76313745Y-73823556D01*
X76382795Y-73990256D01*
%TA.AperFunction,NonConductor*%
D18*
G36*
X76382795Y-73990256D02*
G01*
X76496063Y-74159774D01*
X76640226Y-74303937D01*
X76809744Y-74417205D01*
X76998102Y-74495226D01*
X77198061Y-74535000D01*
X77401939Y-74535000D01*
X77601898Y-74495226D01*
X77790256Y-74417205D01*
X77959774Y-74303937D01*
X78003711Y-74260000D01*
X80161928Y-74260000D01*
X80161928Y-74475000D01*
X80168330Y-74540000D01*
X75602502Y-74540000D01*
X75626304Y-74510997D01*
X76313745Y-73823556D01*
X76382795Y-73990256D01*
G37*
%TD.AperFunction*%
D17*
X70461928Y-71855000D02*
X70474188Y-71979482D01*
X70510498Y-72099180D01*
X70569463Y-72209494D01*
X70648815Y-72306185D01*
X70745506Y-72385537D01*
X70855820Y-72444502D01*
X70975518Y-72480812D01*
X71100000Y-72493072D01*
X71649761Y-72493072D01*
X71657499Y-72502501D01*
X71773224Y-72597474D01*
X71905253Y-72668046D01*
X72048514Y-72711503D01*
X72160167Y-72722500D01*
X72160176Y-72722500D01*
X72197499Y-72726176D01*
X72234822Y-72722500D01*
X75265199Y-72722500D01*
X74747699Y-73240000D01*
X61403711Y-73240000D01*
X61359774Y-73196063D01*
X61190256Y-73082795D01*
X61001898Y-73004774D01*
X60801939Y-72965000D01*
X60598061Y-72965000D01*
X60434999Y-72997435D01*
X60434999Y-72309802D01*
X60498705Y-72373508D01*
X60522499Y-72402501D01*
X60551492Y-72426295D01*
X60551496Y-72426299D01*
X60598654Y-72465000D01*
X60638224Y-72497474D01*
X60770253Y-72568046D01*
X60913514Y-72611503D01*
X61025167Y-72622500D01*
X61025176Y-72622500D01*
X61062499Y-72626176D01*
X61099822Y-72622500D01*
X63933616Y-72622500D01*
X64011595Y-72768388D01*
X64122037Y-72902963D01*
X64256612Y-73013405D01*
X64410148Y-73095472D01*
X64576743Y-73146008D01*
X64749997Y-73163072D01*
X66050003Y-73163072D01*
X66223257Y-73146008D01*
X66389852Y-73095472D01*
X66543388Y-73013405D01*
X66677963Y-72902963D01*
X66788405Y-72768388D01*
X66870472Y-72614852D01*
X66921008Y-72448257D01*
X66938072Y-72275003D01*
X66938072Y-71449997D01*
X66933520Y-71403782D01*
X67727302Y-70610001D01*
X70461928Y-70610001D01*
X70461928Y-71855000D01*
%TA.AperFunction,NonConductor*%
D18*
G36*
X70461928Y-71855000D02*
G01*
X70474188Y-71979482D01*
X70510498Y-72099180D01*
X70569463Y-72209494D01*
X70648815Y-72306185D01*
X70745506Y-72385537D01*
X70855820Y-72444502D01*
X70975518Y-72480812D01*
X71100000Y-72493072D01*
X71649761Y-72493072D01*
X71657499Y-72502501D01*
X71773224Y-72597474D01*
X71905253Y-72668046D01*
X72048514Y-72711503D01*
X72160167Y-72722500D01*
X72160176Y-72722500D01*
X72197499Y-72726176D01*
X72234822Y-72722500D01*
X75265199Y-72722500D01*
X74747699Y-73240000D01*
X61403711Y-73240000D01*
X61359774Y-73196063D01*
X61190256Y-73082795D01*
X61001898Y-73004774D01*
X60801939Y-72965000D01*
X60598061Y-72965000D01*
X60434999Y-72997435D01*
X60434999Y-72309802D01*
X60498705Y-72373508D01*
X60522499Y-72402501D01*
X60551492Y-72426295D01*
X60551496Y-72426299D01*
X60598654Y-72465000D01*
X60638224Y-72497474D01*
X60770253Y-72568046D01*
X60913514Y-72611503D01*
X61025167Y-72622500D01*
X61025176Y-72622500D01*
X61062499Y-72626176D01*
X61099822Y-72622500D01*
X63933616Y-72622500D01*
X64011595Y-72768388D01*
X64122037Y-72902963D01*
X64256612Y-73013405D01*
X64410148Y-73095472D01*
X64576743Y-73146008D01*
X64749997Y-73163072D01*
X66050003Y-73163072D01*
X66223257Y-73146008D01*
X66389852Y-73095472D01*
X66543388Y-73013405D01*
X66677963Y-72902963D01*
X66788405Y-72768388D01*
X66870472Y-72614852D01*
X66921008Y-72448257D01*
X66938072Y-72275003D01*
X66938072Y-71449997D01*
X66933520Y-71403782D01*
X67727302Y-70610001D01*
X70461928Y-70610001D01*
X70461928Y-71855000D01*
G37*
%TD.AperFunction*%
D17*
X81414045Y-68598102D02*
X81394454Y-68634754D01*
X81350997Y-68778015D01*
X81340000Y-68889668D01*
X81340000Y-68889678D01*
X81336324Y-68927000D01*
X81340000Y-68964323D01*
X81340001Y-72286928D01*
X80800000Y-72286928D01*
X80675518Y-72299188D01*
X80555820Y-72335498D01*
X80445506Y-72394463D01*
X80348815Y-72473815D01*
X80269463Y-72570506D01*
X80210498Y-72680820D01*
X80192546Y-72740000D01*
X78557030Y-72740000D01*
X78570472Y-72714852D01*
X78621008Y-72548257D01*
X78638072Y-72375003D01*
X78638072Y-71549997D01*
X78621008Y-71376743D01*
X78615667Y-71359135D01*
X81456928Y-68517873D01*
X81414045Y-68598102D01*
%TA.AperFunction,NonConductor*%
D18*
G36*
X81414045Y-68598102D02*
G01*
X81394454Y-68634754D01*
X81350997Y-68778015D01*
X81340000Y-68889668D01*
X81340000Y-68889678D01*
X81336324Y-68927000D01*
X81340000Y-68964323D01*
X81340001Y-72286928D01*
X80800000Y-72286928D01*
X80675518Y-72299188D01*
X80555820Y-72335498D01*
X80445506Y-72394463D01*
X80348815Y-72473815D01*
X80269463Y-72570506D01*
X80210498Y-72680820D01*
X80192546Y-72740000D01*
X78557030Y-72740000D01*
X78570472Y-72714852D01*
X78621008Y-72548257D01*
X78638072Y-72375003D01*
X78638072Y-71549997D01*
X78621008Y-71376743D01*
X78615667Y-71359135D01*
X81456928Y-68517873D01*
X81414045Y-68598102D01*
G37*
%TD.AperFunction*%
D17*
X62440001Y-59541801D02*
X62440000Y-68196289D01*
X62396063Y-68240226D01*
X62282795Y-68409744D01*
X62204774Y-68598102D01*
X62165000Y-68798061D01*
X62165000Y-69001939D01*
X62204774Y-69201898D01*
X62282795Y-69390256D01*
X62396063Y-69559774D01*
X62540226Y-69703937D01*
X62709744Y-69817205D01*
X62898102Y-69895226D01*
X63098061Y-69935000D01*
X63301939Y-69935000D01*
X63501898Y-69895226D01*
X63690256Y-69817205D01*
X63859774Y-69703937D01*
X63979802Y-69583909D01*
X64011595Y-69643388D01*
X64122037Y-69777963D01*
X64256612Y-69888405D01*
X64410148Y-69970472D01*
X64576743Y-70021008D01*
X64749997Y-70038072D01*
X66050003Y-70038072D01*
X66160510Y-70027188D01*
X65625770Y-70561928D01*
X64749997Y-70561928D01*
X64576743Y-70578992D01*
X64410148Y-70629528D01*
X64256612Y-70711595D01*
X64122037Y-70822037D01*
X64011595Y-70956612D01*
X63933616Y-71102500D01*
X61435000Y-71102500D01*
X61435000Y-71098061D01*
X61395226Y-70898102D01*
X61317205Y-70709744D01*
X61203937Y-70540226D01*
X61059774Y-70396063D01*
X60890256Y-70282795D01*
X60701898Y-70204774D01*
X60501939Y-70165000D01*
X60434999Y-70165000D01*
X60434999Y-60939802D01*
X61639802Y-59735000D01*
X61701939Y-59735000D01*
X61901898Y-59695226D01*
X62090256Y-59617205D01*
X62259774Y-59503937D01*
X62330956Y-59432755D01*
X62440001Y-59541801D01*
%TA.AperFunction,NonConductor*%
D18*
G36*
X62440001Y-59541801D02*
G01*
X62440000Y-68196289D01*
X62396063Y-68240226D01*
X62282795Y-68409744D01*
X62204774Y-68598102D01*
X62165000Y-68798061D01*
X62165000Y-69001939D01*
X62204774Y-69201898D01*
X62282795Y-69390256D01*
X62396063Y-69559774D01*
X62540226Y-69703937D01*
X62709744Y-69817205D01*
X62898102Y-69895226D01*
X63098061Y-69935000D01*
X63301939Y-69935000D01*
X63501898Y-69895226D01*
X63690256Y-69817205D01*
X63859774Y-69703937D01*
X63979802Y-69583909D01*
X64011595Y-69643388D01*
X64122037Y-69777963D01*
X64256612Y-69888405D01*
X64410148Y-69970472D01*
X64576743Y-70021008D01*
X64749997Y-70038072D01*
X66050003Y-70038072D01*
X66160510Y-70027188D01*
X65625770Y-70561928D01*
X64749997Y-70561928D01*
X64576743Y-70578992D01*
X64410148Y-70629528D01*
X64256612Y-70711595D01*
X64122037Y-70822037D01*
X64011595Y-70956612D01*
X63933616Y-71102500D01*
X61435000Y-71102500D01*
X61435000Y-71098061D01*
X61395226Y-70898102D01*
X61317205Y-70709744D01*
X61203937Y-70540226D01*
X61059774Y-70396063D01*
X60890256Y-70282795D01*
X60701898Y-70204774D01*
X60501939Y-70165000D01*
X60434999Y-70165000D01*
X60434999Y-60939802D01*
X61639802Y-59735000D01*
X61701939Y-59735000D01*
X61901898Y-59695226D01*
X62090256Y-59617205D01*
X62259774Y-59503937D01*
X62330956Y-59432755D01*
X62440001Y-59541801D01*
G37*
%TD.AperFunction*%
D17*
X78638072Y-69187127D02*
X78638072Y-68424997D01*
X78633520Y-68378781D01*
X79977303Y-67034999D01*
X80790199Y-67034999D01*
X78638072Y-69187127D01*
%TA.AperFunction,NonConductor*%
D18*
G36*
X78638072Y-69187127D02*
G01*
X78638072Y-68424997D01*
X78633520Y-68378781D01*
X79977303Y-67034999D01*
X80790199Y-67034999D01*
X78638072Y-69187127D01*
G37*
%TD.AperFunction*%
D17*
X73673740Y-48745000D02*
X73815620Y-48745000D01*
X73815026Y-48745724D01*
X73744454Y-48877754D01*
X73726688Y-48936323D01*
X73707153Y-49000725D01*
X73700998Y-49021015D01*
X73686324Y-49170000D01*
X73690001Y-49207332D01*
X73690001Y-49865298D01*
X73556613Y-49936595D01*
X73422038Y-50047038D01*
X73311595Y-50181613D01*
X73229528Y-50335149D01*
X73178992Y-50501745D01*
X73161928Y-50674999D01*
X73161928Y-51925001D01*
X73178992Y-52098255D01*
X73229528Y-52264851D01*
X73311595Y-52418387D01*
X73422038Y-52552962D01*
X73556613Y-52663405D01*
X73690001Y-52734702D01*
X73690000Y-55637332D01*
X73690001Y-55637342D01*
X73690000Y-68350198D01*
X73288072Y-68752126D01*
X73288072Y-68145000D01*
X73275812Y-68020518D01*
X73239502Y-67900820D01*
X73180537Y-67790506D01*
X73110000Y-67704556D01*
X73110000Y-49044801D01*
X73453592Y-48701210D01*
X73673740Y-48745000D01*
%TA.AperFunction,NonConductor*%
D18*
G36*
X73673740Y-48745000D02*
G01*
X73815620Y-48745000D01*
X73815026Y-48745724D01*
X73744454Y-48877754D01*
X73726688Y-48936323D01*
X73707153Y-49000725D01*
X73700998Y-49021015D01*
X73686324Y-49170000D01*
X73690001Y-49207332D01*
X73690001Y-49865298D01*
X73556613Y-49936595D01*
X73422038Y-50047038D01*
X73311595Y-50181613D01*
X73229528Y-50335149D01*
X73178992Y-50501745D01*
X73161928Y-50674999D01*
X73161928Y-51925001D01*
X73178992Y-52098255D01*
X73229528Y-52264851D01*
X73311595Y-52418387D01*
X73422038Y-52552962D01*
X73556613Y-52663405D01*
X73690001Y-52734702D01*
X73690000Y-55637332D01*
X73690001Y-55637342D01*
X73690000Y-68350198D01*
X73288072Y-68752126D01*
X73288072Y-68145000D01*
X73275812Y-68020518D01*
X73239502Y-67900820D01*
X73180537Y-67790506D01*
X73110000Y-67704556D01*
X73110000Y-49044801D01*
X73453592Y-48701210D01*
X73673740Y-48745000D01*
G37*
%TD.AperFunction*%
D17*
X71411928Y-68386730D02*
X71411928Y-68698270D01*
X71388072Y-68722126D01*
X71388072Y-68362874D01*
X71411928Y-68386730D01*
%TA.AperFunction,NonConductor*%
D18*
G36*
X71411928Y-68386730D02*
G01*
X71411928Y-68698270D01*
X71388072Y-68722126D01*
X71388072Y-68362874D01*
X71411928Y-68386730D01*
G37*
%TD.AperFunction*%
D17*
X69560498Y-67900820D02*
X69537237Y-67977500D01*
X66949679Y-67977500D01*
X67059774Y-67903937D01*
X67103711Y-67860000D01*
X69582317Y-67860000D01*
X69560498Y-67900820D01*
%TA.AperFunction,NonConductor*%
D18*
G36*
X69560498Y-67900820D02*
G01*
X69537237Y-67977500D01*
X66949679Y-67977500D01*
X67059774Y-67903937D01*
X67103711Y-67860000D01*
X69582317Y-67860000D01*
X69560498Y-67900820D01*
G37*
%TD.AperFunction*%
D17*
X64640001Y-56155803D02*
X64640000Y-67447762D01*
X64576743Y-67453992D01*
X64410148Y-67504528D01*
X64256612Y-67586595D01*
X64122037Y-67697037D01*
X64011595Y-67831612D01*
X63960000Y-67928139D01*
X63960000Y-59264320D01*
X63963676Y-59226997D01*
X63960000Y-59189674D01*
X63960000Y-59189665D01*
X63949003Y-59078012D01*
X63905546Y-58934751D01*
X63856588Y-58843158D01*
X63834974Y-58802721D01*
X63763799Y-58715995D01*
X63740001Y-58686997D01*
X63711003Y-58663199D01*
X60406806Y-55359003D01*
X60383003Y-55329999D01*
X60267278Y-55235026D01*
X60135249Y-55164454D01*
X59991988Y-55120997D01*
X59880335Y-55110000D01*
X59880324Y-55110000D01*
X59843002Y-55106324D01*
X59805680Y-55110000D01*
X59698178Y-55110000D01*
X59573475Y-54923368D01*
X59366632Y-54716525D01*
X59192240Y-54600000D01*
X59366632Y-54483475D01*
X59573475Y-54276632D01*
X59735990Y-54033411D01*
X59847932Y-53763158D01*
X59905000Y-53476260D01*
X59905000Y-53183740D01*
X59847932Y-52896842D01*
X59735990Y-52626589D01*
X59573475Y-52383368D01*
X59366632Y-52176525D01*
X59192240Y-52060000D01*
X59366632Y-51943475D01*
X59573475Y-51736632D01*
X59735990Y-51493411D01*
X59806759Y-51322560D01*
X64640001Y-56155803D01*
%TA.AperFunction,NonConductor*%
D18*
G36*
X64640001Y-56155803D02*
G01*
X64640000Y-67447762D01*
X64576743Y-67453992D01*
X64410148Y-67504528D01*
X64256612Y-67586595D01*
X64122037Y-67697037D01*
X64011595Y-67831612D01*
X63960000Y-67928139D01*
X63960000Y-59264320D01*
X63963676Y-59226997D01*
X63960000Y-59189674D01*
X63960000Y-59189665D01*
X63949003Y-59078012D01*
X63905546Y-58934751D01*
X63856588Y-58843158D01*
X63834974Y-58802721D01*
X63763799Y-58715995D01*
X63740001Y-58686997D01*
X63711003Y-58663199D01*
X60406806Y-55359003D01*
X60383003Y-55329999D01*
X60267278Y-55235026D01*
X60135249Y-55164454D01*
X59991988Y-55120997D01*
X59880335Y-55110000D01*
X59880324Y-55110000D01*
X59843002Y-55106324D01*
X59805680Y-55110000D01*
X59698178Y-55110000D01*
X59573475Y-54923368D01*
X59366632Y-54716525D01*
X59192240Y-54600000D01*
X59366632Y-54483475D01*
X59573475Y-54276632D01*
X59735990Y-54033411D01*
X59847932Y-53763158D01*
X59905000Y-53476260D01*
X59905000Y-53183740D01*
X59847932Y-52896842D01*
X59735990Y-52626589D01*
X59573475Y-52383368D01*
X59366632Y-52176525D01*
X59192240Y-52060000D01*
X59366632Y-51943475D01*
X59573475Y-51736632D01*
X59735990Y-51493411D01*
X59806759Y-51322560D01*
X64640001Y-56155803D01*
G37*
%TD.AperFunction*%
D17*
X67255000Y-47113740D02*
X67255000Y-47406260D01*
X67312068Y-47693158D01*
X67424010Y-47963411D01*
X67586525Y-48206632D01*
X67793368Y-48413475D01*
X68036589Y-48575990D01*
X68306842Y-48687932D01*
X68593740Y-48745000D01*
X68886260Y-48745000D01*
X69173158Y-48687932D01*
X69443411Y-48575990D01*
X69686632Y-48413475D01*
X69893475Y-48206632D01*
X70010000Y-48032240D01*
X70126525Y-48206632D01*
X70333368Y-48413475D01*
X70576589Y-48575990D01*
X70846842Y-48687932D01*
X71133740Y-48745000D01*
X71426260Y-48745000D01*
X71588016Y-48712825D01*
X71586324Y-48730000D01*
X71590001Y-48767332D01*
X71590001Y-49786928D01*
X70949999Y-49786928D01*
X70776745Y-49803992D01*
X70610149Y-49854528D01*
X70456613Y-49936595D01*
X70322038Y-50047038D01*
X70211595Y-50181613D01*
X70129528Y-50335149D01*
X70078992Y-50501745D01*
X70075224Y-50540000D01*
X67902238Y-50540000D01*
X67896008Y-50476746D01*
X67845472Y-50310150D01*
X67763405Y-50156614D01*
X67652962Y-50022038D01*
X67518386Y-49911595D01*
X67423298Y-49860769D01*
X67435000Y-49801939D01*
X67435000Y-49598061D01*
X67395226Y-49398102D01*
X67317205Y-49209744D01*
X67203937Y-49040226D01*
X67059774Y-48896063D01*
X66890256Y-48782795D01*
X66701898Y-48704774D01*
X66501939Y-48665000D01*
X66298061Y-48665000D01*
X66098102Y-48704774D01*
X65909744Y-48782795D01*
X65740226Y-48896063D01*
X65596063Y-49040226D01*
X65482795Y-49209744D01*
X65404774Y-49398102D01*
X65365000Y-49598061D01*
X65365000Y-49801939D01*
X65376702Y-49860769D01*
X65281614Y-49911595D01*
X65147038Y-50022038D01*
X65036595Y-50156614D01*
X64954528Y-50310150D01*
X64903992Y-50476746D01*
X64886928Y-50650000D01*
X64886928Y-51575000D01*
X64903992Y-51748254D01*
X64954528Y-51914850D01*
X65036595Y-52068386D01*
X65147038Y-52202962D01*
X65281614Y-52313405D01*
X65435150Y-52395472D01*
X65601746Y-52446008D01*
X65775000Y-52463072D01*
X67025000Y-52463072D01*
X67198254Y-52446008D01*
X67364850Y-52395472D01*
X67518386Y-52313405D01*
X67652962Y-52202962D01*
X67763405Y-52068386D01*
X67767887Y-52060000D01*
X70075224Y-52060000D01*
X70078992Y-52098255D01*
X70129528Y-52264851D01*
X70211595Y-52418387D01*
X70322038Y-52552962D01*
X70456613Y-52663405D01*
X70610149Y-52745472D01*
X70776745Y-52796008D01*
X70949999Y-52813072D01*
X71590000Y-52813072D01*
X71590000Y-54987332D01*
X71590001Y-54987342D01*
X71590000Y-64782516D01*
X71501939Y-64765000D01*
X71298061Y-64765000D01*
X71098102Y-64804774D01*
X70909744Y-64882795D01*
X70740226Y-64996063D01*
X70596063Y-65140226D01*
X70482795Y-65309744D01*
X70404774Y-65498102D01*
X70365000Y-65698061D01*
X70365000Y-65760198D01*
X69785199Y-66340000D01*
X67103711Y-66340000D01*
X67059774Y-66296063D01*
X66890256Y-66182795D01*
X66701898Y-66104774D01*
X66501939Y-66065000D01*
X66298061Y-66065000D01*
X66160000Y-66092462D01*
X66160000Y-61083967D01*
X66209744Y-61117205D01*
X66398102Y-61195226D01*
X66598061Y-61235000D01*
X66801939Y-61235000D01*
X67001898Y-61195226D01*
X67190256Y-61117205D01*
X67359774Y-61003937D01*
X67503937Y-60859774D01*
X67617205Y-60690256D01*
X67695226Y-60501898D01*
X67735000Y-60301939D01*
X67735000Y-60098061D01*
X67695226Y-59898102D01*
X67617205Y-59709744D01*
X67503937Y-59540226D01*
X67360000Y-59396289D01*
X67360000Y-55371943D01*
X67364850Y-55370472D01*
X67518386Y-55288405D01*
X67652962Y-55177962D01*
X67763405Y-55043386D01*
X67845472Y-54889850D01*
X67896008Y-54723254D01*
X67913072Y-54550000D01*
X67913072Y-53625000D01*
X67896008Y-53451746D01*
X67845472Y-53285150D01*
X67763405Y-53131614D01*
X67652962Y-52997038D01*
X67518386Y-52886595D01*
X67364850Y-52804528D01*
X67198254Y-52753992D01*
X67025000Y-52736928D01*
X65775000Y-52736928D01*
X65601746Y-52753992D01*
X65435150Y-52804528D01*
X65281614Y-52886595D01*
X65147038Y-52997038D01*
X65036595Y-53131614D01*
X64954528Y-53285150D01*
X64903992Y-53451746D01*
X64886928Y-53625000D01*
X64886928Y-54253126D01*
X59676398Y-49042597D01*
X59735990Y-48953411D01*
X59847932Y-48683158D01*
X59905000Y-48396260D01*
X59905000Y-48103740D01*
X59861209Y-47883592D01*
X60899803Y-46844999D01*
X67308456Y-46844999D01*
X67255000Y-47113740D01*
%TA.AperFunction,NonConductor*%
D18*
G36*
X67255000Y-47113740D02*
G01*
X67255000Y-47406260D01*
X67312068Y-47693158D01*
X67424010Y-47963411D01*
X67586525Y-48206632D01*
X67793368Y-48413475D01*
X68036589Y-48575990D01*
X68306842Y-48687932D01*
X68593740Y-48745000D01*
X68886260Y-48745000D01*
X69173158Y-48687932D01*
X69443411Y-48575990D01*
X69686632Y-48413475D01*
X69893475Y-48206632D01*
X70010000Y-48032240D01*
X70126525Y-48206632D01*
X70333368Y-48413475D01*
X70576589Y-48575990D01*
X70846842Y-48687932D01*
X71133740Y-48745000D01*
X71426260Y-48745000D01*
X71588016Y-48712825D01*
X71586324Y-48730000D01*
X71590001Y-48767332D01*
X71590001Y-49786928D01*
X70949999Y-49786928D01*
X70776745Y-49803992D01*
X70610149Y-49854528D01*
X70456613Y-49936595D01*
X70322038Y-50047038D01*
X70211595Y-50181613D01*
X70129528Y-50335149D01*
X70078992Y-50501745D01*
X70075224Y-50540000D01*
X67902238Y-50540000D01*
X67896008Y-50476746D01*
X67845472Y-50310150D01*
X67763405Y-50156614D01*
X67652962Y-50022038D01*
X67518386Y-49911595D01*
X67423298Y-49860769D01*
X67435000Y-49801939D01*
X67435000Y-49598061D01*
X67395226Y-49398102D01*
X67317205Y-49209744D01*
X67203937Y-49040226D01*
X67059774Y-48896063D01*
X66890256Y-48782795D01*
X66701898Y-48704774D01*
X66501939Y-48665000D01*
X66298061Y-48665000D01*
X66098102Y-48704774D01*
X65909744Y-48782795D01*
X65740226Y-48896063D01*
X65596063Y-49040226D01*
X65482795Y-49209744D01*
X65404774Y-49398102D01*
X65365000Y-49598061D01*
X65365000Y-49801939D01*
X65376702Y-49860769D01*
X65281614Y-49911595D01*
X65147038Y-50022038D01*
X65036595Y-50156614D01*
X64954528Y-50310150D01*
X64903992Y-50476746D01*
X64886928Y-50650000D01*
X64886928Y-51575000D01*
X64903992Y-51748254D01*
X64954528Y-51914850D01*
X65036595Y-52068386D01*
X65147038Y-52202962D01*
X65281614Y-52313405D01*
X65435150Y-52395472D01*
X65601746Y-52446008D01*
X65775000Y-52463072D01*
X67025000Y-52463072D01*
X67198254Y-52446008D01*
X67364850Y-52395472D01*
X67518386Y-52313405D01*
X67652962Y-52202962D01*
X67763405Y-52068386D01*
X67767887Y-52060000D01*
X70075224Y-52060000D01*
X70078992Y-52098255D01*
X70129528Y-52264851D01*
X70211595Y-52418387D01*
X70322038Y-52552962D01*
X70456613Y-52663405D01*
X70610149Y-52745472D01*
X70776745Y-52796008D01*
X70949999Y-52813072D01*
X71590000Y-52813072D01*
X71590000Y-54987332D01*
X71590001Y-54987342D01*
X71590000Y-64782516D01*
X71501939Y-64765000D01*
X71298061Y-64765000D01*
X71098102Y-64804774D01*
X70909744Y-64882795D01*
X70740226Y-64996063D01*
X70596063Y-65140226D01*
X70482795Y-65309744D01*
X70404774Y-65498102D01*
X70365000Y-65698061D01*
X70365000Y-65760198D01*
X69785199Y-66340000D01*
X67103711Y-66340000D01*
X67059774Y-66296063D01*
X66890256Y-66182795D01*
X66701898Y-66104774D01*
X66501939Y-66065000D01*
X66298061Y-66065000D01*
X66160000Y-66092462D01*
X66160000Y-61083967D01*
X66209744Y-61117205D01*
X66398102Y-61195226D01*
X66598061Y-61235000D01*
X66801939Y-61235000D01*
X67001898Y-61195226D01*
X67190256Y-61117205D01*
X67359774Y-61003937D01*
X67503937Y-60859774D01*
X67617205Y-60690256D01*
X67695226Y-60501898D01*
X67735000Y-60301939D01*
X67735000Y-60098061D01*
X67695226Y-59898102D01*
X67617205Y-59709744D01*
X67503937Y-59540226D01*
X67360000Y-59396289D01*
X67360000Y-55371943D01*
X67364850Y-55370472D01*
X67518386Y-55288405D01*
X67652962Y-55177962D01*
X67763405Y-55043386D01*
X67845472Y-54889850D01*
X67896008Y-54723254D01*
X67913072Y-54550000D01*
X67913072Y-53625000D01*
X67896008Y-53451746D01*
X67845472Y-53285150D01*
X67763405Y-53131614D01*
X67652962Y-52997038D01*
X67518386Y-52886595D01*
X67364850Y-52804528D01*
X67198254Y-52753992D01*
X67025000Y-52736928D01*
X65775000Y-52736928D01*
X65601746Y-52753992D01*
X65435150Y-52804528D01*
X65281614Y-52886595D01*
X65147038Y-52997038D01*
X65036595Y-53131614D01*
X64954528Y-53285150D01*
X64903992Y-53451746D01*
X64886928Y-53625000D01*
X64886928Y-54253126D01*
X59676398Y-49042597D01*
X59735990Y-48953411D01*
X59847932Y-48683158D01*
X59905000Y-48396260D01*
X59905000Y-48103740D01*
X59861209Y-47883592D01*
X60899803Y-46844999D01*
X67308456Y-46844999D01*
X67255000Y-47113740D01*
G37*
%TD.AperFunction*%
D17*
X60867245Y-57969044D02*
X60796063Y-58040226D01*
X60682795Y-58209744D01*
X60604774Y-58398102D01*
X60565000Y-58598061D01*
X60565000Y-58660198D01*
X59397653Y-59827546D01*
X59366632Y-59796525D01*
X59192240Y-59680000D01*
X59366632Y-59563475D01*
X59573475Y-59356632D01*
X59735990Y-59113411D01*
X59847932Y-58843158D01*
X59905000Y-58556260D01*
X59905000Y-58263740D01*
X59847932Y-57976842D01*
X59735990Y-57706589D01*
X59573475Y-57463368D01*
X59366632Y-57256525D01*
X59192240Y-57140000D01*
X59366632Y-57023475D01*
X59573475Y-56816632D01*
X59630095Y-56731894D01*
X60867245Y-57969044D01*
%TA.AperFunction,NonConductor*%
D18*
G36*
X60867245Y-57969044D02*
G01*
X60796063Y-58040226D01*
X60682795Y-58209744D01*
X60604774Y-58398102D01*
X60565000Y-58598061D01*
X60565000Y-58660198D01*
X59397653Y-59827546D01*
X59366632Y-59796525D01*
X59192240Y-59680000D01*
X59366632Y-59563475D01*
X59573475Y-59356632D01*
X59735990Y-59113411D01*
X59847932Y-58843158D01*
X59905000Y-58556260D01*
X59905000Y-58263740D01*
X59847932Y-57976842D01*
X59735990Y-57706589D01*
X59573475Y-57463368D01*
X59366632Y-57256525D01*
X59192240Y-57140000D01*
X59366632Y-57023475D01*
X59573475Y-56816632D01*
X59630095Y-56731894D01*
X60867245Y-57969044D01*
G37*
%TD.AperFunction*%
M02*
